<?xml version="1.0" standalone="no"?>
<!DOCTYPE svg PUBLIC "-//W3C//DTD SVG 20010904//EN"
 "http://www.w3.org/TR/2001/REC-SVG-20010904/DTD/svg10.dtd">
<svg version="1.0" xmlns="http://www.w3.org/2000/svg"
 width="1008.000000pt" height="1008.000000pt" viewBox="0 0 1008.000000 1008.000000"
 preserveAspectRatio="xMidYMid meet">
<metadata>
Created by potrace 1.14, written by Peter Selinger 2001-2017
</metadata>
<g transform="translate(0.000000,1008.000000) scale(0.100000,-0.100000)"
fill="#000000" stroke="none">
<path d="M4835 9744 c-112 -27 -179 -52 -220 -84 -23 -18 -93 -89 -115 -116
-20 -25 -57 -111 -67 -155 -12 -56 -8 -211 7 -254 8 -22 15 -42 15 -45 3 -19
42 -84 79 -131 39 -50 159 -143 183 -141 4 0 13 -3 18 -8 13 -10 91 -32 130
-36 17 -2 104 -6 195 -9 287 -9 300 -10 300 -15 0 -3 17 -5 38 -6 37 -1 150
-13 187 -20 11 -2 40 -7 65 -10 25 -3 61 -9 80 -14 19 -5 52 -11 72 -14 112
-17 409 -94 524 -136 29 -10 55 -16 58 -13 3 4 6 1 6 -6 0 -7 4 -10 9 -6 5 3
12 1 15 -4 3 -5 18 -12 33 -15 33 -8 140 -49 200 -77 24 -10 45 -19 48 -19 17
0 376 -186 427 -222 14 -10 29 -18 33 -18 9 0 245 -158 271 -181 11 -11 25
-19 31 -19 6 0 13 -3 15 -7 2 -5 45 -41 96 -81 52 -40 108 -85 125 -100 60
-52 342 -337 372 -376 17 -22 39 -49 50 -60 11 -12 33 -39 49 -61 17 -22 33
-42 36 -45 3 -3 22 -27 41 -55 18 -27 37 -52 40 -55 10 -8 152 -229 184 -285
90 -161 242 -484 249 -529 1 -6 4 -15 8 -21 12 -20 92 -278 103 -335 2 -8 8
-27 13 -41 6 -15 8 -30 5 -33 -3 -3 0 -12 7 -21 7 -8 10 -15 7 -15 -3 0 0 -19
5 -42 9 -39 12 -56 23 -123 1 -11 8 -47 14 -80 5 -33 13 -85 16 -115 3 -30 7
-71 10 -90 3 -19 7 -98 11 -175 3 -77 7 -159 8 -182 1 -24 -2 -43 -7 -43 -6 0
-6 -5 0 -12 8 -11 10 -32 4 -40 -1 -2 -4 -41 -5 -88 -4 -78 -14 -204 -21 -240
-2 -8 -6 -44 -10 -80 -4 -36 -9 -68 -11 -72 -2 -3 -7 -27 -10 -53 -3 -26 -9
-58 -14 -71 -5 -13 -8 -24 -5 -24 2 0 -1 -15 -6 -32 -5 -18 -12 -46 -15 -63
-3 -16 -19 -77 -35 -135 -17 -58 -32 -109 -33 -115 -1 -5 -4 -14 -7 -20 -3 -5
-12 -30 -19 -55 -7 -25 -17 -49 -22 -55 -4 -5 -8 -16 -8 -25 0 -8 -7 -28 -15
-44 -8 -15 -15 -33 -15 -38 0 -6 -6 -24 -14 -41 -35 -78 -66 -147 -67 -152 -3
-16 -127 -248 -179 -335 -55 -91 -170 -265 -206 -310 -7 -8 -44 -55 -82 -103
-156 -197 -351 -395 -563 -572 -64 -54 -200 -155 -208 -155 -5 0 -11 -4 -13
-8 -6 -17 -205 -142 -398 -252 -96 -54 -442 -214 -490 -225 -8 -2 -62 -21
-120 -41 -104 -36 -284 -91 -327 -100 -13 -2 -33 -6 -45 -9 -143 -31 -260 -55
-293 -60 -22 -2 -49 -7 -61 -9 -18 -4 -72 -10 -174 -22 -162 -17 -565 -23
-730 -10 -104 8 -213 20 -281 31 -13 2 -58 9 -99 15 -64 10 -214 41 -272 56
-10 2 -26 6 -36 8 -39 9 -109 27 -132 35 -14 5 -59 19 -100 31 -96 29 -292
101 -395 146 -85 38 -327 156 -335 164 -3 3 -25 16 -50 29 -25 14 -48 29 -51
33 -3 5 -12 10 -20 11 -8 2 -29 13 -46 25 -17 12 -34 22 -37 22 -4 0 -12 5
-19 10 -7 6 -67 48 -134 95 -67 46 -130 91 -140 99 -10 8 -49 41 -88 72 -214
173 -480 446 -622 639 -126 172 -193 271 -193 286 0 5 -4 9 -10 9 -5 0 -10 7
-10 15 0 8 -4 15 -10 15 -5 0 -10 9 -10 19 0 11 -4 21 -8 23 -20 8 -174 309
-242 473 -35 84 -124 349 -136 405 -4 19 -9 40 -10 45 -2 6 -10 35 -18 65 -8
30 -17 66 -19 80 -11 56 -27 147 -32 170 -3 14 -7 43 -10 65 -3 22 -8 60 -11
85 -9 63 -13 111 -18 220 -3 52 -6 95 -6 95 -7 0 -4 214 2 228 6 11 5 17 -2
17 -6 0 -8 5 -5 10 4 6 8 47 11 93 2 45 6 98 8 117 7 69 20 175 21 180 1 3 5
25 9 50 11 70 45 229 63 295 8 33 16 65 17 70 1 6 5 16 10 23 4 7 5 16 2 19
-3 3 1 18 10 34 8 16 15 32 15 36 0 26 70 226 104 300 8 17 15 34 15 37 0 11
147 308 187 378 59 103 125 209 141 224 7 8 11 14 8 14 -3 0 9 20 27 44 17 24
41 56 52 71 11 16 26 34 33 41 6 7 12 15 12 18 0 3 9 16 19 28 10 13 54 66 97
118 83 100 318 339 419 427 54 46 98 82 167 136 61 49 222 161 303 212 93 58
110 78 91 108 -17 27 -39 21 -143 -45 -306 -193 -685 -523 -883 -769 -19 -24
-42 -50 -50 -59 -25 -27 -170 -219 -170 -225 0 -4 -6 -13 -12 -20 -30 -33 -38
-45 -38 -55 0 -5 -4 -10 -10 -10 -5 0 -10 -5 -10 -10 0 -9 -44 -83 -93 -154
-30 -44 -187 -356 -187 -372 0 -8 -4 -14 -10 -14 -5 0 -10 -7 -10 -16 0 -9 -6
-28 -14 -42 -17 -33 -76 -184 -76 -195 0 -5 -6 -23 -14 -40 -16 -38 -57 -170
-86 -283 -20 -77 -24 -96 -35 -154 -3 -14 -7 -36 -10 -50 -41 -195 -67 -468
-66 -695 0 -130 8 -302 16 -362 3 -21 7 -60 10 -88 3 -27 8 -61 10 -75 2 -14
7 -45 10 -70 3 -24 9 -60 15 -80 5 -19 11 -48 14 -65 3 -16 8 -41 11 -55 4
-14 8 -32 9 -40 3 -20 14 -60 38 -144 11 -38 21 -76 23 -85 2 -9 10 -35 19
-58 8 -24 13 -43 9 -43 -3 0 -1 -6 4 -12 5 -7 18 -35 27 -63 27 -75 67 -179
74 -190 4 -5 7 -12 8 -15 5 -27 116 -254 126 -258 4 -2 8 -12 8 -22 0 -10 3
-20 8 -22 4 -1 15 -19 25 -38 9 -19 26 -48 37 -65 11 -16 24 -39 29 -50 8 -19
92 -149 109 -171 5 -5 22 -30 38 -55 16 -24 31 -46 34 -49 3 -3 31 -39 63 -80
31 -41 67 -87 79 -101 13 -14 46 -52 73 -84 68 -80 276 -287 355 -355 36 -30
75 -65 87 -77 12 -13 25 -23 28 -23 6 0 105 -77 142 -110 12 -11 25 -20 28
-20 9 0 79 -53 83 -62 2 -5 10 -8 18 -8 8 0 14 -4 14 -10 0 -5 7 -10 15 -10 8
0 15 -3 15 -7 0 -5 10 -13 23 -19 12 -6 75 -44 140 -83 109 -67 310 -172 420
-220 26 -12 66 -29 90 -40 64 -28 319 -121 347 -126 3 -1 32 -9 65 -20 33 -10
65 -19 70 -21 43 -10 143 -36 158 -39 44 -12 62 -16 127 -29 14 -3 35 -7 46
-10 12 -2 39 -7 60 -11 22 -3 53 -8 69 -11 31 -6 38 -7 140 -18 33 -4 74 -9
90 -11 248 -34 756 -24 1015 20 14 2 48 7 75 10 28 3 68 10 90 15 22 5 56 12
75 15 19 3 55 11 80 16 25 6 54 12 65 14 17 3 51 12 115 30 8 2 44 13 80 24
176 53 246 76 251 84 3 5 9 8 13 7 7 -2 80 22 121 40 11 5 49 21 85 36 70 28
333 158 390 192 19 11 53 30 75 42 52 29 344 223 370 247 11 10 41 34 66 53
193 148 447 394 594 576 51 63 77 93 93 110 6 7 12 15 12 19 0 5 55 80 70 95
14 14 70 102 70 109 0 5 3 11 8 13 11 5 104 154 174 283 23 42 107 212 123
250 31 72 34 79 55 135 33 83 41 103 52 123 5 10 6 22 3 27 -4 6 -1 10 6 10 7
0 10 3 7 6 -4 3 0 21 8 40 8 19 11 34 8 34 -4 0 -1 6 5 14 7 8 14 23 16 34 2
12 14 56 26 99 30 108 56 220 64 273 3 25 8 53 11 63 6 21 10 46 19 123 3 28
7 59 9 70 16 79 26 254 26 439 -1 218 -10 344 -41 545 -5 36 -12 81 -14 100
-3 19 -12 64 -20 100 -8 36 -17 76 -20 90 -8 43 -13 65 -15 65 -2 0 -5 13 -14
51 -2 12 -15 54 -27 95 -27 87 -24 77 -34 114 -4 17 -10 35 -14 40 -3 6 -6 15
-7 20 -6 29 -76 202 -102 250 -9 17 -14 30 -12 30 2 0 -18 43 -43 95 -26 52
-46 98 -44 101 1 4 -5 15 -14 25 -9 11 -34 51 -54 89 -57 104 -252 396 -300
449 -5 6 -39 47 -75 91 -68 84 -75 92 -210 230 -111 113 -206 201 -305 280
-28 21 -52 42 -55 45 -13 15 -166 124 -255 184 -55 36 -104 69 -110 74 -5 4
-26 16 -45 25 -19 10 -62 34 -95 54 -78 46 -173 94 -181 93 -4 -1 -10 2 -13 7
-8 11 -297 143 -314 143 -7 0 -23 7 -35 16 -12 8 -22 13 -22 10 0 -2 -28 7
-62 21 -35 13 -67 26 -73 27 -5 2 -23 6 -40 11 -16 4 -34 10 -40 14 -5 3 -16
6 -22 7 -7 1 -41 11 -75 22 -53 17 -142 40 -259 68 -13 3 -37 8 -54 11 -16 2
-37 7 -45 10 -8 3 -24 7 -35 8 -11 2 -65 10 -120 19 -125 21 -139 23 -197 30
-159 19 -270 28 -453 36 -27 1 -25 3 20 18 74 26 318 16 570 -23 65 -10 208
-34 230 -39 11 -3 52 -11 91 -20 129 -28 389 -101 449 -126 11 -5 47 -18 80
-30 33 -11 69 -24 80 -29 88 -39 162 -69 173 -72 4 -1 79 -38 167 -82 164 -83
257 -136 263 -150 2 -4 7 -5 12 -2 4 3 13 -2 20 -10 7 -8 19 -15 26 -15 8 0
14 -4 14 -10 0 -5 4 -10 10 -10 11 0 133 -82 138 -92 2 -5 8 -8 12 -8 17 0
300 -219 300 -232 0 -4 4 -8 10 -8 5 0 31 -19 57 -42 64 -57 333 -325 333
-332 0 -3 10 -16 23 -29 21 -21 88 -100 105 -122 55 -72 78 -101 85 -103 4 -2
7 -10 7 -17 0 -7 4 -15 9 -17 9 -3 176 -251 210 -310 12 -21 31 -55 43 -75 69
-120 220 -441 234 -498 3 -14 43 -125 54 -150 9 -21 58 -186 66 -220 2 -11 6
-29 9 -40 30 -128 46 -197 51 -235 3 -25 8 -48 10 -51 3 -6 12 -68 19 -134 2
-22 4 -40 5 -40 19 0 31 -571 16 -750 -7 -95 -9 -106 -19 -122 -5 -8 -3 -13 3
-13 6 0 9 -3 6 -8 -2 -4 -7 -27 -11 -50 -3 -24 -12 -78 -20 -120 -8 -42 -17
-90 -20 -107 -3 -16 -10 -51 -16 -76 -6 -26 -11 -53 -12 -60 -2 -8 -6 -20 -10
-27 -5 -6 -6 -12 -3 -12 2 0 0 -15 -5 -32 -6 -18 -12 -44 -15 -57 -3 -14 -8
-29 -12 -35 -3 -6 -7 -15 -7 -21 0 -15 -67 -219 -75 -230 -4 -5 -11 -25 -15
-42 -3 -18 -11 -33 -16 -33 -5 0 -8 -3 -8 -8 1 -4 0 -9 -1 -12 -1 -3 -3 -12
-5 -20 -9 -43 -150 -333 -214 -441 -9 -15 -38 -65 -65 -111 -27 -46 -52 -85
-56 -88 -4 -3 -29 -38 -56 -79 -27 -40 -56 -83 -64 -95 -17 -26 -80 -106 -95
-122 -5 -6 -23 -28 -40 -48 -69 -87 -97 -118 -245 -267 -142 -143 -233 -226
-334 -304 -21 -16 -44 -35 -50 -40 -6 -6 -40 -31 -76 -57 -36 -26 -69 -51 -75
-55 -5 -5 -32 -23 -60 -40 -27 -18 -54 -36 -60 -40 -20 -16 -125 -83 -129 -83
-2 0 -39 -20 -80 -45 -42 -25 -79 -45 -81 -45 -3 0 -24 -12 -48 -27 -23 -14
-44 -26 -47 -26 -3 0 -50 -22 -106 -48 -146 -69 -455 -190 -519 -203 -5 -1
-16 -5 -22 -9 -7 -5 -13 -6 -13 -3 0 3 -16 -2 -35 -10 -19 -8 -35 -12 -35 -10
0 3 -16 -2 -36 -10 -20 -8 -39 -13 -42 -10 -3 3 -10 2 -16 -3 -7 -6 -25 -13
-41 -16 -58 -12 -75 -15 -97 -19 -13 -3 -54 -11 -93 -19 -91 -20 -157 -31
-235 -42 -19 -2 -51 -7 -70 -10 -19 -3 -60 -7 -90 -10 -30 -2 -55 -5 -55 -5 0
-13 -551 -18 -700 -7 -135 10 -289 29 -395 48 -30 6 -66 12 -80 14 -24 4 -46
9 -100 20 -86 18 -105 23 -105 25 0 1 -9 3 -20 5 -40 8 -113 28 -240 68 -71
22 -134 42 -140 43 -27 7 -153 57 -264 104 -182 77 -389 185 -534 277 -37 24
-71 43 -76 43 -5 0 -11 3 -13 8 -1 4 -30 25 -63 47 -33 22 -62 43 -63 48 -2 4
-8 7 -13 7 -8 0 -35 20 -64 47 -8 7 -16 13 -20 13 -4 0 -12 6 -19 12 -7 7 -28
24 -46 38 -62 47 -105 82 -121 98 -9 10 -36 33 -60 52 -61 49 -282 272 -353
355 -33 39 -64 75 -70 80 -6 6 -33 39 -61 75 -27 36 -53 67 -57 68 -5 2 -8 10
-8 17 0 7 -4 15 -8 17 -8 3 -120 160 -147 206 -116 195 -152 260 -213 384 -40
81 -72 152 -72 158 0 6 -7 22 -16 35 -9 14 -13 25 -9 25 4 0 3 6 -2 13 -15 18
-116 300 -128 355 -6 25 -6 27 -35 132 -18 69 -57 252 -65 310 -7 55 -16 117
-21 145 -11 66 -16 181 -18 420 -1 333 12 480 71 761 8 39 16 79 18 90 2 10 4
19 5 19 1 0 3 9 5 20 2 11 8 35 14 54 6 19 8 37 6 42 -3 4 -1 10 4 13 4 3 12
20 16 38 9 38 10 43 24 83 6 17 25 73 43 125 18 52 38 106 45 120 7 14 13 29
13 33 0 35 232 490 287 563 13 17 23 34 23 38 0 5 10 22 23 39 12 17 27 39 32
49 33 56 224 303 299 387 109 121 171 184 320 326 12 11 53 47 91 79 39 32 72
63 73 67 2 5 9 9 17 9 7 0 19 7 26 16 28 35 342 255 419 294 14 7 27 16 30 19
3 3 19 13 35 22 17 9 55 30 85 46 30 17 80 43 110 58 79 41 100 63 100 101 0
34 -37 74 -68 74 -19 0 -123 -51 -230 -112 -46 -27 -86 -48 -88 -48 -3 0 -17
-8 -32 -19 -15 -10 -58 -38 -97 -62 -61 -38 -166 -110 -245 -166 -30 -22 -171
-134 -186 -148 -6 -5 -29 -25 -51 -43 -38 -31 -81 -70 -188 -172 -53 -50 -216
-221 -250 -262 -11 -13 -38 -46 -60 -73 -22 -28 -44 -55 -50 -61 -5 -6 -19
-23 -30 -38 -11 -15 -30 -40 -42 -54 -13 -15 -23 -30 -23 -34 0 -4 -6 -13 -13
-20 -48 -48 -243 -371 -332 -548 -52 -103 -151 -329 -161 -365 -1 -5 -16 -47
-33 -92 -16 -46 -27 -83 -24 -83 3 0 0 -7 -7 -15 -7 -8 -9 -15 -5 -15 4 0 2
-7 -5 -15 -7 -8 -9 -15 -5 -15 4 0 2 -6 -4 -14 -6 -8 -11 -18 -10 -22 1 -5 -1
-16 -4 -24 -13 -32 -66 -259 -82 -350 -3 -16 -8 -45 -11 -62 -7 -39 -11 -67
-19 -128 -25 -191 -30 -280 -29 -515 1 -248 11 -417 30 -515 5 -25 7 -34 18
-119 4 -24 11 -63 16 -85 5 -23 12 -57 15 -76 9 -50 44 -187 61 -240 9 -25 16
-53 17 -62 1 -10 5 -18 10 -18 4 0 6 -4 3 -8 -10 -17 111 -333 198 -516 252
-533 636 -1015 1116 -1402 47 -38 87 -72 88 -76 2 -5 9 -8 15 -8 7 0 23 -10
37 -23 64 -58 457 -307 485 -307 8 0 15 -4 17 -9 7 -18 393 -196 533 -245 28
-10 59 -21 70 -26 29 -13 241 -79 268 -84 12 -3 22 -5 22 -6 0 -1 7 -3 15 -5
29 -7 60 -15 83 -21 83 -22 104 -26 247 -54 130 -26 175 -33 290 -45 36 -3 81
-8 100 -10 131 -14 208 -18 385 -18 177 -1 383 7 470 17 17 2 59 7 95 10 67 8
91 11 150 21 19 4 46 8 60 10 42 5 192 35 230 45 19 5 46 11 60 14 14 3 40 9
58 15 18 5 33 10 35 9 13 -2 309 91 369 116 21 9 40 16 43 16 8 1 36 11 115
44 41 17 78 29 83 28 4 -1 7 2 7 8 0 5 6 10 14 10 8 0 47 16 87 36 41 19 94
45 119 57 25 12 53 28 63 36 9 8 17 11 17 7 0 -4 17 5 37 19 21 14 43 25 50
25 7 0 13 5 13 10 0 6 5 10 11 10 21 0 371 226 444 287 6 4 30 24 55 43 217
166 503 444 650 632 8 10 32 38 52 61 21 23 38 45 38 49 0 4 6 13 13 20 40 41
196 277 292 441 119 204 300 628 340 793 3 10 12 44 20 74 18 60 23 79 30 111
2 11 7 29 10 39 6 19 11 42 21 95 3 17 9 48 14 70 8 40 19 98 25 145 6 41 17
133 19 155 1 11 5 25 9 32 4 6 3 14 -3 18 -6 4 -7 11 -4 17 23 38 23 536 0
743 -13 116 -17 153 -22 180 -3 17 -6 41 -8 55 -6 37 -16 93 -21 110 -2 8 -7
31 -10 50 -6 34 -47 197 -78 310 -9 30 -32 100 -52 155 -20 55 -37 105 -39
110 -4 14 -25 66 -36 90 -5 11 -21 49 -36 85 -39 91 -172 351 -191 373 -9 9
-13 17 -10 17 4 0 -18 38 -48 85 -30 47 -55 87 -55 91 0 3 -6 12 -12 19 -27
30 -38 44 -38 50 0 5 -61 92 -87 125 -7 8 -35 44 -63 80 -192 246 -433 490
-676 682 -43 35 -80 66 -82 70 -2 5 -10 8 -18 8 -8 0 -14 5 -14 10 0 6 -6 10
-14 10 -8 0 -16 4 -18 9 -3 8 -269 191 -298 204 -8 4 -33 18 -55 31 -180 107
-603 304 -715 332 -8 2 -53 17 -100 34 -46 16 -93 31 -105 32 -11 2 -22 6 -25
10 -3 4 -19 9 -35 12 -17 2 -30 5 -30 6 0 1 -7 3 -15 5 -8 1 -35 8 -60 15 -42
11 -53 14 -105 25 -11 3 -30 7 -42 10 -13 3 -31 7 -40 9 -18 4 -157 30 -223
41 -19 4 -51 8 -70 10 -19 3 -48 6 -65 9 -16 2 -66 8 -110 12 -44 4 -91 8
-105 9 -14 2 -35 3 -48 4 -20 1 -21 3 -11 24 17 31 28 36 74 33 145 -13 201
-19 205 -21 3 -2 37 -6 75 -10 39 -4 72 -9 75 -10 3 -2 24 -6 46 -9 44 -7 66
-11 104 -20 14 -3 39 -8 55 -11 103 -20 112 -22 200 -45 64 -16 182 -50 260
-74 6 -2 15 -4 20 -6 6 -1 17 -6 26 -11 9 -4 27 -10 40 -13 13 -2 58 -19 99
-36 41 -17 83 -32 93 -33 9 -1 17 -4 17 -7 0 -5 61 -32 80 -35 3 -1 32 -14 65
-29 138 -64 236 -114 335 -169 58 -33 122 -69 143 -80 20 -11 37 -24 37 -29 0
-4 5 -8 12 -8 19 0 364 -240 388 -270 3 -3 14 -13 26 -21 58 -39 210 -176 323
-290 158 -158 258 -272 369 -419 40 -52 75 -99 80 -105 34 -44 142 -213 142
-223 0 -7 4 -12 9 -12 5 0 13 -9 16 -20 3 -11 12 -26 18 -33 12 -13 22 -31 81
-142 17 -33 35 -63 39 -66 5 -3 8 -9 8 -13 -1 -3 14 -36 32 -74 33 -64 147
-332 152 -356 1 -6 7 -22 12 -36 6 -14 9 -28 6 -32 -2 -5 1 -8 6 -8 6 0 11 -9
11 -20 0 -11 4 -28 9 -38 8 -15 42 -121 47 -147 1 -5 13 -55 27 -110 24 -94
50 -217 62 -295 3 -19 8 -42 10 -50 2 -8 7 -37 10 -65 3 -27 7 -66 10 -85 15
-126 19 -206 19 -455 0 -154 -4 -311 -8 -350 -5 -38 -9 -81 -11 -95 -22 -207
-92 -529 -160 -735 -15 -44 -28 -87 -30 -95 -2 -8 -4 -16 -5 -17 -2 -2 -3 -6
-5 -10 -2 -8 -9 -27 -48 -123 -12 -30 -22 -57 -23 -60 -7 -32 -156 -335 -222
-450 -48 -83 -162 -266 -184 -295 -5 -5 -47 -62 -94 -125 -48 -63 -98 -128
-112 -145 -137 -165 -373 -404 -526 -530 -26 -22 -58 -48 -70 -59 -11 -10 -46
-37 -76 -59 -30 -23 -59 -45 -65 -50 -5 -4 -41 -30 -80 -57 -38 -27 -75 -53
-80 -58 -6 -4 -51 -33 -100 -63 -50 -30 -91 -57 -93 -61 -2 -5 -12 -8 -23 -8
-10 0 -19 -4 -19 -9 0 -5 -17 -17 -37 -26 -21 -10 -40 -21 -43 -24 -3 -3 -25
-16 -50 -28 -25 -12 -56 -29 -70 -36 -66 -38 -312 -150 -345 -157 -5 -1 -19
-7 -30 -13 -11 -6 -24 -12 -30 -13 -5 -1 -47 -16 -93 -34 -45 -17 -88 -33 -95
-34 -6 -2 -19 -6 -27 -9 -79 -30 -405 -119 -485 -131 -11 -2 -72 -13 -135 -24
-63 -12 -135 -24 -160 -27 -25 -3 -61 -7 -80 -10 -190 -24 -273 -28 -545 -29
-227 0 -378 6 -465 19 -35 5 -130 17 -160 20 -26 2 -99 14 -135 21 -11 3 -38
7 -60 10 -22 3 -47 8 -55 11 -8 3 -26 7 -40 9 -14 2 -54 10 -90 19 -36 9 -74
18 -85 20 -125 28 -439 130 -551 180 -31 14 -60 25 -65 25 -19 0 -331 152
-439 214 -25 14 -52 29 -60 32 -13 7 -48 28 -145 90 -16 10 -38 23 -47 29 -23
13 -178 119 -203 139 -11 9 -47 36 -80 61 -66 50 -139 110 -167 137 -10 10
-18 16 -18 14 0 -4 -37 30 -171 160 -175 169 -318 332 -457 524 -34 47 -71 96
-82 110 -11 14 -29 44 -41 68 -12 23 -26 42 -31 42 -4 0 -8 4 -8 9 0 5 -22 45
-48 88 -55 88 -56 89 -134 245 -64 129 -97 201 -140 308 -34 84 -115 319 -122
353 -3 12 -10 38 -16 57 -6 19 -13 46 -16 60 -3 14 -9 39 -14 55 -8 27 -34
154 -46 223 -3 15 -7 34 -9 42 -2 8 -7 41 -10 73 -4 32 -8 68 -11 80 -7 39
-15 100 -20 172 -8 92 -12 577 -6 589 3 5 6 32 8 60 2 44 8 107 19 196 7 63
18 124 42 240 14 69 27 134 28 145 2 11 4 20 5 20 1 0 3 8 6 18 2 9 6 25 8 35
3 9 5 17 6 17 1 0 3 9 5 19 5 28 17 68 27 96 4 8 23 67 43 130 76 233 175 454
325 720 56 98 164 262 256 386 80 109 99 133 139 178 11 13 49 56 85 97 295
336 689 652 1094 878 133 73 368 190 396 196 3 0 20 9 37 18 18 10 34 17 35
17 4 -2 37 10 115 42 56 23 74 35 81 56 25 72 -47 126 -119 88 -14 -7 -37 -16
-50 -19 -14 -4 -47 -16 -75 -29 -27 -12 -51 -23 -54 -23 -40 -9 -390 -187
-523 -266 -59 -35 -116 -69 -125 -74 -34 -20 -208 -139 -237 -162 -42 -33 -46
-36 -85 -63 -19 -14 -42 -32 -52 -40 -9 -8 -23 -19 -30 -25 -22 -16 -140 -117
-188 -160 -117 -105 -380 -379 -380 -396 0 -4 -4 -9 -9 -11 -9 -3 -171 -203
-201 -248 -8 -12 -21 -29 -28 -36 -7 -8 -10 -14 -6 -14 4 0 -3 -8 -14 -19 -12
-10 -22 -21 -22 -25 0 -4 -22 -39 -48 -79 -85 -126 -181 -296 -257 -451 -79
-162 -158 -346 -148 -346 3 0 1 -6 -4 -12 -26 -33 -161 -485 -178 -598 -2 -14
-7 -38 -10 -55 -11 -58 -22 -124 -30 -180 -3 -22 -8 -56 -11 -75 -32 -225 -39
-832 -10 -879 4 -6 2 -11 -4 -11 -6 0 -8 -5 -5 -10 8 -12 12 -39 19 -105 6
-58 15 -129 22 -165 3 -14 9 -47 14 -75 7 -44 32 -156 59 -267 5 -20 6 -39 3
-42 -3 -4 0 -6 6 -6 7 0 12 -7 12 -16 0 -32 57 -212 122 -384 23 -61 34 -87
72 -173 14 -32 26 -62 26 -67 0 -6 5 -10 12 -10 6 0 9 -3 5 -6 -7 -8 118 -252
181 -354 12 -19 25 -43 28 -52 4 -10 9 -18 13 -18 4 0 14 -15 23 -33 34 -71
250 -364 363 -493 104 -118 145 -161 240 -255 141 -137 176 -170 285 -259 30
-25 60 -49 66 -55 17 -15 68 -54 163 -122 47 -34 91 -67 98 -73 7 -5 24 -15
38 -22 14 -6 25 -15 25 -20 0 -5 4 -7 9 -4 5 4 11 2 13 -3 5 -15 252 -159 396
-231 142 -72 228 -112 322 -150 30 -12 69 -29 87 -36 17 -8 33 -14 36 -14 3 0
18 -5 34 -11 15 -6 29 -10 31 -10 1 1 15 -5 32 -14 16 -8 37 -17 47 -18 10 -2
25 -7 33 -10 56 -22 351 -106 395 -112 11 -1 20 -3 20 -5 0 -1 14 -4 30 -6 25
-4 52 -10 85 -19 6 -1 84 -16 120 -22 14 -2 50 -8 80 -13 30 -5 73 -12 95 -15
22 -2 51 -7 65 -9 25 -5 104 -12 260 -23 259 -18 688 -4 920 32 14 2 45 6 70
9 25 3 83 13 130 22 47 9 94 17 105 19 11 2 43 9 70 15 28 6 61 13 75 16 58
11 382 105 423 122 16 7 31 12 35 12 6 0 144 52 197 75 11 4 22 9 25 10 28 10
119 50 210 93 41 20 77 36 80 36 13 3 294 160 340 191 28 19 54 35 56 35 6 0
247 161 254 169 3 3 32 26 65 51 72 53 146 114 274 225 162 141 435 439 576
630 81 110 225 325 218 325 -3 0 1 8 10 18 15 16 167 289 167 299 0 3 18 42
39 86 48 100 103 227 105 241 1 6 4 16 7 21 4 6 12 28 19 50 7 22 20 56 28 75
9 19 17 44 19 55 2 11 12 45 23 75 11 30 21 64 23 75 2 11 7 27 10 35 13 33
26 94 21 101 -2 4 0 10 6 14 6 4 8 11 5 16 -4 5 -2 9 2 9 5 0 9 10 10 23 1 12
4 33 7 47 3 14 9 39 11 55 3 17 8 37 10 45 2 8 7 31 10 50 3 19 7 46 10 60 3
14 7 39 9 55 2 17 7 48 11 71 3 22 8 62 10 90 2 27 5 49 5 49 3 0 10 105 13
226 2 70 7 131 11 137 3 6 2 13 -4 17 -7 4 -7 12 0 24 5 10 7 21 4 24 -3 3 -8
59 -10 124 -4 125 -8 190 -19 288 -4 33 -9 74 -11 90 -7 65 -59 339 -80 430
-3 11 -7 27 -9 35 -2 8 -4 15 -5 15 -2 0 -11 38 -12 53 -1 6 -5 12 -10 12 -5
0 -7 4 -4 9 3 4 -8 51 -25 102 -17 52 -32 102 -34 111 -2 9 -8 25 -13 35 -6
10 -11 23 -12 28 -3 14 -9 30 -42 115 -41 106 -65 159 -129 290 -31 63 -59
122 -63 130 -3 8 -16 31 -27 50 -19 31 -33 55 -83 144 -6 11 -14 25 -19 30 -4
6 -34 52 -67 101 -32 50 -64 95 -70 102 -5 7 -10 16 -10 22 0 5 -3 11 -7 13
-13 5 -73 86 -73 97 0 5 -4 11 -8 13 -4 2 -23 23 -42 48 -19 24 -45 56 -57 70
-12 14 -31 36 -43 50 -62 73 -94 108 -186 202 -110 113 -234 231 -309 293 -26
22 -57 48 -69 58 -109 92 -445 327 -467 327 -5 0 -9 4 -9 9 0 5 -8 11 -17 14
-18 6 -73 37 -83 47 -8 8 -97 56 -180 97 -41 21 -76 41 -78 45 -2 5 -8 8 -13
8 -4 0 -38 14 -74 30 -36 17 -70 30 -75 30 -6 0 -10 5 -10 12 0 6 -3 8 -6 5
-4 -4 -19 0 -33 8 -109 59 -612 225 -766 252 -16 3 -37 9 -46 14 -9 4 -19 6
-22 3 -2 -3 -31 2 -63 10 -60 15 -88 21 -159 31 -22 3 -65 10 -97 16 -31 5
-60 9 -65 8 -4 -1 -10 0 -13 1 -10 4 -169 21 -217 22 -26 1 -33 6 -33 21 0 18
5 19 73 13 101 -10 156 -16 197 -22 19 -3 49 -7 65 -9 17 -2 47 -6 68 -9 20
-4 54 -8 75 -11 20 -3 45 -8 54 -11 18 -5 45 -11 93 -19 54 -10 250 -57 260
-63 6 -4 19 -8 30 -10 44 -6 273 -80 342 -109 17 -7 38 -13 47 -13 9 0 16 -5
16 -11 0 -5 3 -8 8 -5 4 2 25 -4 47 -14 22 -11 43 -19 46 -20 4 0 24 -8 45
-17 22 -9 41 -17 44 -18 34 -5 444 -220 559 -292 20 -13 43 -26 51 -30 8 -3
17 -9 20 -12 3 -3 46 -33 95 -66 50 -33 92 -63 93 -67 2 -5 10 -8 18 -8 8 0
14 -3 14 -7 0 -5 17 -19 38 -33 20 -14 42 -29 48 -35 6 -5 26 -21 44 -35 84
-62 186 -149 275 -235 35 -33 76 -72 91 -86 92 -85 262 -274 368 -409 36 -47
70 -90 75 -96 15 -18 188 -271 192 -281 2 -4 30 -51 62 -105 31 -53 57 -101
57 -106 0 -6 3 -12 8 -14 12 -5 192 -376 192 -396 0 -4 13 -38 28 -77 36 -89
112 -313 118 -347 1 -5 2 -9 4 -10 1 -2 3 -10 5 -18 1 -8 10 -42 19 -75 10
-33 19 -73 22 -90 3 -16 9 -43 14 -60 5 -16 12 -48 15 -70 4 -22 9 -49 11 -60
4 -24 12 -71 24 -145 5 -30 12 -84 16 -120 3 -36 8 -73 9 -82 22 -110 21 -634
0 -783 -4 -25 -14 -105 -30 -235 -3 -25 -14 -89 -20 -119 -29 -143 -50 -232
-71 -306 -14 -49 -27 -97 -29 -105 -5 -24 -75 -232 -89 -265 -7 -16 -19 -46
-26 -65 -45 -124 -163 -370 -256 -533 -103 -179 -298 -468 -364 -538 -8 -9
-31 -36 -50 -60 -93 -115 -269 -302 -412 -434 -62 -59 -274 -233 -338 -280
-30 -21 -57 -42 -60 -45 -6 -7 -111 -79 -145 -100 -13 -8 -77 -48 -142 -88
-65 -40 -125 -77 -133 -82 -8 -5 -37 -21 -65 -35 -27 -14 -57 -30 -65 -35 -12
-8 -243 -118 -315 -150 -58 -26 -250 -99 -260 -100 -3 0 -22 -7 -43 -16 -43
-18 -305 -99 -357 -109 -5 -2 -71 -16 -145 -33 -74 -17 -151 -33 -170 -36 -19
-3 -47 -8 -62 -11 -16 -3 -40 -7 -55 -10 -48 -8 -162 -23 -228 -30 -22 -2 -69
-7 -105 -11 -36 -4 -209 -8 -385 -8 -316 -1 -420 4 -610 29 -27 3 -61 8 -75 9
-44 6 -124 18 -145 23 -11 2 -33 6 -50 9 -40 7 -66 12 -90 18 -11 2 -51 11
-90 20 -38 8 -95 22 -125 31 -30 9 -62 17 -70 19 -27 5 -75 17 -95 25 -11 4
-78 27 -150 50 -131 43 -225 78 -302 113 -43 18 -96 40 -100 39 -6 0 -329 162
-333 168 -3 3 -23 15 -45 26 -22 11 -76 42 -120 69 -44 27 -96 58 -115 70 -19
11 -37 23 -40 26 -3 3 -41 29 -85 59 -69 47 -240 175 -255 191 -3 3 -32 27
-65 55 -141 117 -307 275 -416 396 -13 15 -40 44 -59 65 -60 65 -193 234 -264
334 -37 52 -72 102 -79 111 -48 62 -206 341 -277 485 -58 119 -157 349 -165
384 -2 8 -10 33 -19 55 -14 36 -72 217 -81 255 -2 8 -11 42 -20 75 -9 33 -18
69 -19 80 -2 11 -6 27 -9 35 -3 8 -8 29 -11 45 -34 189 -47 267 -52 305 -3 25
-7 56 -9 70 -5 33 -15 139 -21 220 -12 161 -6 552 10 650 3 14 7 52 10 85 3
33 8 69 10 80 4 26 17 111 22 150 2 17 10 60 18 96 8 36 17 77 20 90 27 138
121 437 195 622 55 138 188 418 203 428 6 3 9 10 9 15 -3 37 373 599 410 612
5 2 9 10 9 17 0 8 6 18 13 22 6 4 35 35 62 68 124 148 318 343 479 480 32 28
64 55 70 60 6 6 52 41 101 79 50 37 97 73 105 79 48 38 121 87 130 87 6 0 10
5 10 10 0 6 7 10 15 10 8 0 15 5 15 10 0 6 7 10 15 10 8 0 15 5 15 10 0 6 6
10 13 10 7 0 23 9 35 20 12 11 23 20 25 20 3 0 56 30 118 66 139 81 325 175
479 242 111 48 357 140 393 147 9 2 22 7 27 10 6 4 22 9 37 11 15 3 31 8 37
12 6 3 16 7 21 9 6 1 21 4 33 7 31 7 62 43 62 71 0 12 -10 35 -21 50 -19 23
-27 26 -63 21 -42 -5 -60 -9 -86 -19 -8 -3 -40 -13 -70 -22 -30 -9 -62 -19
-70 -22 -63 -24 -148 -54 -164 -58 -10 -2 -38 -14 -62 -26 -24 -11 -50 -22
-56 -23 -39 -8 -322 -142 -463 -219 -44 -24 -96 -53 -115 -63 -19 -10 -37 -21
-40 -24 -3 -3 -45 -30 -95 -60 -49 -29 -92 -56 -95 -59 -3 -3 -39 -28 -80 -56
-41 -27 -80 -54 -86 -60 -29 -26 -55 -45 -60 -45 -4 0 -127 -96 -160 -125 -6
-5 -38 -32 -70 -60 -146 -126 -301 -278 -421 -413 -38 -41 -78 -86 -89 -98
-12 -12 -32 -37 -45 -56 -13 -18 -26 -35 -29 -38 -3 -3 -28 -34 -55 -70 -28
-36 -53 -66 -57 -68 -5 -2 -8 -8 -8 -12 0 -5 -21 -38 -47 -74 -64 -86 -139
-203 -224 -351 -27 -45 -193 -373 -196 -385 -3 -12 -23 -59 -46 -112 -14 -32
-23 -58 -20 -58 3 0 1 -6 -4 -12 -9 -11 -36 -82 -38 -98 0 -3 -3 -9 -6 -15 -4
-5 -21 -57 -38 -115 -18 -58 -37 -116 -41 -130 -12 -33 -71 -268 -75 -300 -2
-14 -11 -59 -19 -100 -9 -41 -18 -95 -21 -120 -5 -48 -10 -81 -19 -145 -32
-212 -37 -594 -10 -890 5 -61 11 -110 14 -110 0 0 3 -25 5 -55 3 -30 7 -66 10
-80 3 -14 8 -41 11 -60 6 -34 28 -149 38 -200 16 -75 50 -205 73 -280 15 -47
28 -91 30 -97 6 -25 10 -38 16 -55 4 -10 10 -26 14 -35 3 -10 7 -23 8 -28 4
-18 87 -229 99 -250 5 -11 11 -23 12 -27 1 -5 3 -10 4 -13 1 -3 3 -8 4 -12 3
-19 149 -306 190 -376 25 -43 46 -80 46 -83 0 -10 192 -299 201 -302 5 -2 9
-8 9 -13 0 -5 6 -17 14 -26 8 -10 50 -63 93 -118 79 -102 91 -116 176 -214 63
-72 360 -365 416 -411 23 -19 55 -45 69 -58 15 -13 43 -35 62 -50 19 -15 37
-29 40 -32 3 -3 32 -25 65 -50 33 -25 65 -49 71 -55 15 -13 27 -21 175 -118
160 -105 180 -117 202 -124 9 -3 17 -9 17 -14 0 -5 4 -9 10 -9 5 0 33 -14 62
-31 56 -33 277 -146 293 -150 6 -1 30 -13 55 -27 25 -14 47 -25 50 -25 3 1 25
-8 50 -19 25 -12 74 -32 110 -45 36 -13 74 -28 85 -33 11 -5 88 -32 170 -59
134 -43 184 -59 221 -67 6 -1 36 -9 65 -17 45 -13 177 -44 264 -63 61 -13 205
-37 235 -40 19 -2 49 -6 66 -9 17 -3 56 -8 85 -11 30 -3 65 -7 78 -9 24 -4
130 -13 241 -20 78 -5 420 -5 505 0 180 11 310 24 490 51 17 2 41 6 55 8 22 3
103 18 170 31 84 16 179 38 200 45 14 5 36 12 50 14 34 6 283 80 340 101 25 9
74 27 110 39 65 23 159 61 235 95 22 10 61 26 87 37 27 10 48 22 48 27 0 4 5
7 12 7 14 0 220 104 299 151 30 17 74 43 99 57 25 14 77 47 117 74 40 26 75
48 78 48 3 0 11 5 18 10 7 6 44 33 82 60 39 27 75 53 80 57 6 5 51 40 100 78
93 72 104 81 195 161 155 135 321 303 450 454 30 36 60 70 65 76 36 41 156
198 173 226 9 15 20 28 24 28 4 0 8 4 8 9 0 5 24 45 54 88 67 98 158 251 220
368 26 50 52 95 56 100 5 6 9 13 9 18 0 4 21 51 46 104 25 53 48 107 51 120 4
12 10 23 15 23 5 0 8 3 7 8 -3 9 58 176 78 214 8 15 14 29 13 30 0 2 5 23 12
48 7 25 13 47 14 50 2 9 26 84 32 100 3 8 8 23 10 33 1 10 12 53 24 95 11 42
22 88 25 101 3 12 11 51 19 85 7 33 16 83 20 110 3 27 8 52 10 55 1 3 6 31 9
61 4 30 11 78 16 105 5 28 12 93 16 145 3 52 8 113 10 135 4 58 4 429 -1 500
-10 155 -19 241 -34 321 -4 23 -7 55 -7 73 1 17 -2 31 -6 31 -5 0 -8 13 -8 28
0 16 -9 71 -21 123 -11 52 -22 103 -23 114 -5 31 -16 71 -51 193 -18 61 -31
112 -28 112 3 0 0 6 -6 14 -7 8 -14 26 -17 41 -4 23 -83 236 -116 315 -6 14
-12 30 -13 36 -11 49 -230 462 -316 594 -16 25 -34 56 -41 70 -7 14 -15 27
-18 30 -3 3 -22 27 -41 55 -18 27 -37 54 -42 60 -4 5 -20 26 -35 47 -15 20
-36 49 -47 64 -141 198 -502 573 -695 724 -45 35 -83 66 -104 85 -6 6 -45 35
-86 65 -41 30 -77 57 -80 60 -3 3 -12 10 -22 15 -9 6 -67 44 -130 86 -216 146
-473 282 -738 394 -74 31 -144 61 -155 65 -51 23 -226 81 -235 78 -3 -1 -15 4
-27 10 -12 7 -64 24 -115 38 -51 14 -100 27 -108 29 -21 6 -232 56 -250 60 -8
1 -35 6 -60 10 -25 4 -53 9 -62 11 -10 2 -28 6 -40 9 -12 2 -44 7 -72 10 -28
3 -60 8 -71 11 -25 5 -82 12 -165 20 -36 3 -78 7 -95 9 -16 2 -46 4 -66 4 -28
1 -38 6 -47 26 l-11 25 79 -3 c44 -1 80 -4 80 -7 0 -3 29 -6 65 -8 35 -2 75
-5 87 -8 13 -2 48 -7 78 -10 46 -5 355 -63 425 -79 11 -3 31 -7 45 -10 13 -2
83 -21 155 -41 71 -20 136 -37 143 -37 6 0 12 -4 12 -8 0 -4 17 -10 38 -15 44
-9 39 -8 77 -23 17 -7 37 -14 45 -16 15 -3 120 -43 175 -66 17 -7 32 -13 35
-14 73 -25 464 -208 480 -225 3 -3 30 -18 60 -34 30 -16 67 -37 82 -48 14 -10
29 -18 32 -18 3 0 25 -13 48 -30 22 -16 47 -30 54 -30 7 0 14 -4 16 -8 2 -5
30 -26 63 -47 33 -22 62 -43 63 -47 2 -5 8 -8 13 -8 10 0 212 -148 255 -186
12 -11 36 -30 54 -44 17 -13 42 -33 55 -45 145 -129 193 -174 279 -261 117
-117 175 -180 231 -249 22 -28 45 -54 51 -60 34 -33 274 -356 274 -369 0 -3
23 -37 50 -77 28 -40 50 -78 50 -85 0 -7 4 -14 8 -16 25 -10 212 -378 286
-563 27 -66 52 -129 57 -140 69 -164 189 -619 214 -810 3 -22 7 -51 10 -64 7
-35 21 -166 31 -296 8 -92 8 -529 0 -625 -3 -41 -8 -100 -10 -130 -2 -30 -7
-71 -11 -91 -3 -20 -8 -51 -10 -70 -6 -47 -14 -99 -20 -129 -3 -14 -8 -41 -11
-60 -3 -19 -14 -71 -24 -115 -11 -45 -21 -92 -24 -105 -3 -14 -9 -39 -15 -57
-5 -17 -7 -34 -3 -37 3 -3 0 -6 -7 -6 -7 0 -9 -5 -6 -10 3 -6 3 -16 -2 -23 -4
-6 -9 -19 -10 -27 -3 -23 -87 -273 -116 -350 -71 -185 -224 -504 -295 -614
-14 -23 -26 -44 -27 -48 0 -4 -5 -15 -12 -25 -7 -10 -54 -81 -105 -158 -51
-77 -99 -147 -106 -155 -7 -8 -29 -38 -50 -66 -231 -316 -535 -618 -923 -917
-50 -39 -334 -229 -359 -240 -8 -4 -28 -16 -45 -27 -16 -11 -37 -23 -45 -27
-8 -4 -36 -19 -62 -34 -43 -25 -201 -106 -288 -147 -19 -10 -36 -20 -38 -24
-2 -5 -12 -8 -22 -8 -10 0 -22 -5 -25 -10 -3 -6 -15 -10 -26 -10 -10 0 -19 -4
-19 -8 0 -4 -10 -8 -22 -9 -11 -1 -24 -6 -27 -10 -3 -4 -22 -14 -41 -21 -196
-74 -307 -115 -317 -116 -7 -1 -16 -5 -19 -9 -4 -4 -17 -7 -29 -7 -11 0 -26
-5 -33 -12 -7 -7 -12 -9 -12 -6 0 3 -21 -1 -47 -9 -96 -30 -213 -61 -213 -57
0 3 -8 0 -17 -5 -10 -5 -35 -12 -57 -15 -21 -4 -41 -8 -45 -10 -3 -2 -22 -7
-41 -10 -19 -3 -57 -10 -85 -15 -55 -12 -78 -16 -175 -32 -59 -9 -101 -15
-185 -24 -16 -2 -48 -6 -70 -9 -185 -26 -777 -26 -990 -1 -22 3 -58 7 -80 9
-22 2 -60 7 -85 10 -25 4 -65 9 -90 13 -51 6 -57 7 -120 21 -25 5 -52 10 -60
10 -8 1 -33 5 -55 11 -22 5 -53 12 -70 15 -43 8 -65 14 -103 25 -18 5 -35 10
-37 10 -3 1 -6 1 -7 2 -2 0 -14 3 -28 5 -14 2 -84 22 -155 44 -72 22 -137 42
-145 44 -34 9 -191 66 -285 104 -286 115 -585 272 -840 441 -128 85 -195 131
-205 141 -3 3 -34 27 -70 55 -36 27 -67 52 -70 55 -3 3 -23 19 -44 36 -114 84
-395 354 -516 494 -81 93 -99 114 -108 125 -83 106 -104 132 -115 145 -23 25
-177 247 -177 254 0 4 -9 16 -20 28 -11 12 -20 28 -20 35 0 7 -4 13 -10 13 -5
0 -10 7 -10 15 0 8 -4 15 -9 15 -5 0 -11 8 -14 18 -4 9 -17 35 -30 57 -90 151
-174 319 -253 505 -33 76 -44 103 -50 125 -1 6 -18 51 -37 100 -32 84 -65 187
-72 228 -2 9 -6 21 -10 26 -7 13 -71 272 -84 346 -6 33 -14 74 -17 90 -7 39
-11 59 -18 120 -4 28 -9 66 -12 85 -22 151 -27 242 -28 505 -1 231 6 411 18
485 3 14 7 45 10 70 16 133 24 185 26 185 1 0 3 11 5 25 1 14 8 52 15 85 7 33
14 67 15 75 2 12 32 134 60 240 25 95 91 290 148 435 138 354 399 807 609
1057 15 18 28 36 28 40 0 4 6 13 13 20 7 7 40 45 72 83 99 117 115 135 255
275 74 75 169 165 210 201 41 35 80 69 86 74 16 15 81 67 154 124 36 28 71 56
78 61 29 25 294 201 373 248 174 104 410 224 576 293 67 27 85 40 98 66 20 41
19 45 -10 77 -25 27 -78 36 -90 16 -3 -5 -13 -10 -22 -10 -18 0 -39 -10 -248
-111 -333 -162 -646 -358 -900 -564 -27 -22 -58 -47 -68 -55 -11 -8 -24 -19
-31 -25 -128 -110 -185 -164 -313 -292 -84 -84 -153 -158 -153 -164 0 -5 -4
-7 -10 -4 -5 3 -10 3 -10 -2 0 -4 -14 -24 -31 -43 -46 -53 -124 -149 -212
-260 -66 -83 -216 -308 -210 -314 4 -3 1 -6 -6 -6 -7 0 -17 -13 -22 -30 -6
-16 -15 -30 -20 -30 -5 0 -9 -4 -9 -10 0 -5 -15 -33 -33 -62 -18 -29 -42 -71
-52 -93 -11 -22 -22 -42 -25 -45 -7 -6 -132 -261 -155 -315 -35 -82 -67 -163
-101 -255 -19 -52 -38 -102 -41 -110 -3 -8 -7 -21 -9 -28 -1 -8 -6 -21 -10
-30 -4 -9 -8 -22 -10 -29 -2 -12 -36 -130 -54 -188 -11 -36 -37 -140 -44 -175
-3 -14 -8 -36 -11 -50 -11 -49 -28 -149 -28 -167 0 -7 -3 -13 -6 -13 -3 0 -6
-12 -7 -27 0 -16 -4 -50 -8 -78 -4 -27 -9 -66 -11 -85 -3 -19 -7 -55 -9 -80
-27 -237 -28 -748 -2 -900 2 -14 7 -52 10 -85 4 -33 8 -71 10 -85 3 -14 8 -47
12 -75 11 -80 12 -90 14 -90 1 0 3 -11 5 -25 3 -20 30 -155 40 -195 16 -70 77
-291 84 -310 5 -11 20 -57 35 -102 43 -140 144 -380 232 -558 47 -93 88 -172
92 -175 4 -3 8 -9 9 -15 1 -5 27 -50 58 -100 30 -49 58 -98 61 -107 4 -10 10
-18 15 -18 5 0 9 -6 9 -13 0 -8 9 -22 20 -32 11 -10 20 -22 20 -28 0 -5 13
-26 30 -47 16 -21 30 -42 30 -48 0 -6 3 -12 8 -14 4 -1 32 -37 62 -78 30 -41
57 -77 60 -80 3 -3 18 -23 35 -45 16 -22 32 -42 36 -45 3 -3 30 -34 60 -70
101 -122 329 -356 443 -455 32 -27 70 -61 85 -74 23 -20 42 -36 121 -101 53
-43 183 -140 237 -177 10 -7 45 -32 78 -54 33 -23 123 -80 200 -125 77 -46
145 -87 150 -92 16 -12 332 -167 420 -205 115 -51 318 -130 365 -142 8 -3 56
-18 105 -35 80 -27 365 -106 419 -116 12 -2 44 -8 71 -14 28 -6 61 -13 75 -15
14 -3 36 -8 48 -11 23 -5 59 -10 127 -19 17 -2 30 -4 30 -5 0 -4 180 -26 280
-35 22 -1 40 -4 40 -5 0 -5 254 -12 455 -13 229 0 383 8 545 27 22 3 65 8 95
11 30 4 64 8 75 10 11 2 40 6 65 9 25 4 52 8 60 11 8 3 32 7 53 9 21 3 41 7
45 10 4 2 26 7 48 10 52 8 66 11 149 31 39 9 75 18 80 19 6 1 19 5 30 9 11 3
31 8 45 11 14 3 63 17 110 31 47 15 92 28 100 30 8 2 85 28 170 58 472 168
890 394 1314 710 35 26 136 107 152 122 6 5 35 30 65 55 171 144 376 351 534
540 44 52 82 97 85 100 3 3 29 37 57 75 29 39 56 75 61 80 27 34 162 238 221
335 76 124 215 394 273 530 36 83 80 192 93 230 1 3 5 12 8 20 13 29 66 195
69 215 2 11 6 22 10 25 4 3 10 21 13 39 3 19 8 38 11 43 3 5 8 21 11 36 7 40
9 45 16 67 3 11 8 31 11 45 2 14 12 52 20 86 9 34 18 79 20 100 3 21 7 46 10
54 5 16 15 74 21 125 2 17 6 44 10 60 40 203 52 792 20 1040 -6 44 -14 121
-19 175 -2 19 -5 37 -6 40 -3 8 -5 20 -14 88 -5 34 -13 65 -17 68 -5 3 -7 9
-4 14 3 5 -1 38 -9 74 -9 35 -18 75 -21 87 -9 43 -24 103 -35 149 -6 25 -13
53 -15 62 -2 9 -9 26 -15 37 -6 12 -8 21 -5 21 3 0 -1 16 -9 35 -8 19 -13 35
-11 35 2 0 -7 30 -22 68 -14 37 -26 72 -28 77 -3 15 -16 47 -26 70 -6 12 -11
27 -13 35 -1 8 -10 32 -19 54 -9 21 -17 40 -17 42 0 2 -14 33 -30 69 -16 36
-30 68 -30 70 0 8 -145 297 -169 335 -11 19 -25 44 -31 55 -5 11 -20 36 -32
56 -13 20 -39 62 -58 94 -90 146 -203 304 -329 460 -67 82 -71 87 -163 190
-64 71 -301 306 -359 355 -22 19 -51 44 -64 55 -42 37 -81 70 -120 100 -21 17
-62 49 -91 73 -29 23 -57 42 -62 42 -6 0 -12 4 -14 8 -1 4 -25 23 -53 42 -27
19 -52 37 -55 40 -7 7 -221 145 -285 183 -116 70 -357 193 -500 257 -27 12
-63 28 -80 36 -16 7 -66 27 -110 44 -44 17 -89 35 -100 41 -12 6 -27 11 -35
13 -8 2 -23 6 -32 10 -9 4 -22 9 -30 10 -7 2 -20 6 -28 9 -14 6 -150 50 -160
52 -3 1 -25 7 -50 15 -25 7 -52 15 -60 16 -9 2 -58 15 -110 29 -52 14 -104 28
-115 29 -11 2 -78 15 -148 30 -71 14 -133 24 -137 21 -5 -3 -11 -1 -15 5 -3 5
-16 10 -28 10 -12 0 -42 2 -67 6 -25 3 -57 7 -72 7 -16 1 -28 4 -28 7 0 3 -19
6 -43 7 -23 1 -62 4 -87 7 -43 4 -190 15 -310 21 -34 2 -69 11 -90 23 l-34 21
75 -4 c66 -3 108 -6 280 -20 51 -4 210 -24 250 -30 29 -5 102 -16 134 -19 11
-2 38 -7 60 -11 22 -5 48 -8 58 -7 9 0 17 -4 17 -9 0 -6 4 -8 9 -5 5 4 40 -1
78 -10 37 -9 77 -18 88 -19 11 -2 56 -13 100 -25 44 -11 87 -23 95 -25 8 -2
15 -4 15 -5 0 -2 12 -4 55 -13 14 -3 63 -18 110 -33 47 -15 87 -28 90 -29 3 0
37 -12 75 -25 39 -13 75 -25 80 -26 17 -4 277 -109 340 -138 193 -89 425 -211
580 -306 83 -51 218 -141 225 -150 3 -3 12 -9 20 -12 14 -5 221 -158 246 -182
7 -6 29 -24 49 -41 43 -34 57 -47 140 -118 93 -81 324 -313 410 -412 43 -49
85 -96 93 -102 9 -7 12 -13 6 -13 -5 0 -4 -4 1 -8 6 -4 32 -34 58 -67 26 -33
51 -65 55 -70 5 -6 29 -39 55 -75 25 -36 50 -70 54 -76 4 -5 13 -17 18 -26 6
-9 45 -70 87 -136 42 -65 101 -164 132 -218 67 -123 216 -432 216 -451 0 -5 6
-19 13 -33 7 -14 21 -47 31 -75 10 -27 21 -59 26 -70 11 -25 50 -135 55 -155
2 -8 18 -62 35 -120 32 -108 75 -282 84 -335 2 -16 5 -30 6 -30 2 0 8 -31 14
-70 48 -307 60 -408 61 -507 0 -32 2 -58 5 -58 9 0 6 -444 -3 -457 -5 -8 -4
-13 3 -13 6 0 9 -4 6 -8 -3 -4 -8 -51 -11 -103 -3 -51 -8 -105 -10 -119 -1
-14 -6 -54 -10 -90 -4 -36 -9 -74 -11 -85 -2 -11 -7 -40 -10 -65 -3 -25 -8
-54 -11 -65 -2 -11 -8 -40 -13 -65 -4 -25 -11 -56 -14 -70 -4 -14 -9 -38 -11
-55 -4 -31 -15 -78 -45 -190 -6 -22 -12 -47 -14 -56 -10 -38 -89 -286 -101
-314 -7 -16 -21 -50 -30 -75 -9 -25 -22 -56 -28 -70 -6 -14 -11 -27 -11 -30
-11 -53 -223 -478 -296 -595 -11 -16 -27 -43 -36 -60 -59 -105 -325 -476 -384
-535 -3 -3 -34 -39 -69 -80 -36 -41 -72 -82 -80 -91 -130 -135 -214 -219 -291
-289 -52 -47 -101 -92 -110 -100 -59 -56 -294 -238 -380 -295 -25 -16 -47 -32
-50 -35 -3 -4 -34 -25 -70 -47 -36 -23 -70 -47 -77 -52 -7 -6 -15 -11 -19 -11
-4 0 -21 -10 -38 -23 -17 -13 -38 -26 -46 -30 -8 -4 -37 -20 -65 -36 -227
-133 -544 -280 -800 -372 -99 -36 -317 -106 -355 -114 -8 -1 -35 -8 -60 -15
-25 -7 -49 -13 -55 -14 -5 -1 -16 -5 -23 -10 -7 -4 -16 -6 -19 -3 -3 3 -15 2
-27 -3 -30 -11 -221 -51 -316 -66 -19 -3 -43 -8 -53 -11 -11 -3 -38 -7 -60 -9
-64 -7 -98 -11 -152 -18 -174 -23 -329 -31 -615 -30 -259 0 -371 4 -500 19
-25 3 -65 7 -90 10 -71 8 -133 16 -160 21 -14 3 -40 7 -59 9 -51 8 -94 15
-111 20 -8 2 -32 6 -54 10 -21 3 -41 7 -45 9 -3 2 -22 7 -41 10 -19 3 -89 19
-155 36 -66 17 -129 33 -141 35 -12 3 -40 11 -63 20 -23 8 -45 15 -49 16 -4 1
-11 3 -17 5 -5 1 -28 8 -50 14 -22 6 -49 15 -60 20 -11 4 -63 23 -115 41 -205
70 -523 215 -709 321 -46 26 -86 48 -88 48 -3 0 -33 19 -140 87 -28 18 -56 33
-61 33 -6 0 -12 3 -14 8 -1 4 -46 36 -98 72 -52 35 -100 69 -106 75 -6 5 -22
17 -34 25 -32 22 -113 82 -126 95 -6 5 -26 21 -44 35 -18 14 -53 43 -78 65
-25 22 -53 46 -62 52 -41 29 -331 314 -402 395 -103 118 -157 183 -177 212 -8
12 -18 23 -21 26 -12 10 -127 165 -192 260 -169 247 -342 570 -448 835 -17 44
-37 94 -44 110 -7 17 -21 55 -31 85 -10 30 -21 64 -26 75 -4 11 -22 67 -39
125 -16 58 -34 119 -39 135 -5 17 -13 46 -17 65 -11 47 -11 50 -14 53 -1 1 -3
11 -5 22 -6 37 -16 80 -21 94 -3 8 -7 35 -10 60 -3 25 -7 48 -9 51 -6 9 -27
144 -41 255 -6 51 -7 66 -19 195 -9 93 -14 630 -6 630 3 0 6 26 7 58 1 51 6
104 19 214 34 293 153 782 240 983 7 17 28 68 46 115 18 47 45 113 61 148 15
34 28 67 28 72 0 6 5 10 12 10 6 0 9 3 5 6 -3 3 21 56 53 117 32 62 71 137 86
167 16 30 31 57 34 60 7 7 29 43 37 60 3 8 24 41 45 72 21 31 38 61 38 67 0 5
3 11 8 13 4 2 29 37 57 78 27 41 53 80 58 85 44 57 114 151 122 164 6 8 15 20
21 26 6 5 30 35 55 65 56 69 95 115 137 157 17 19 32 35 32 37 0 7 225 230
311 307 87 79 138 123 204 174 21 17 48 39 61 50 13 11 48 38 80 60 31 22 62
45 68 50 31 29 348 233 406 263 14 7 52 28 85 47 33 19 110 60 172 91 62 31
114 63 117 71 8 21 -12 53 -32 53 -10 0 -44 -13 -77 -30 -33 -16 -66 -30 -72
-30 -7 0 -13 -4 -13 -9 0 -5 -17 -16 -37 -25 -66 -27 -333 -183 -400 -232 -17
-13 -34 -24 -37 -24 -6 0 -113 -74 -141 -97 -5 -5 -32 -24 -60 -43 -27 -19
-52 -37 -55 -40 -3 -3 -36 -30 -75 -60 -94 -74 -104 -82 -131 -105 -239 -207
-473 -447 -634 -650 -39 -49 -82 -103 -96 -119 -13 -15 -24 -32 -24 -37 0 -5
-4 -9 -9 -9 -5 0 -12 -8 -15 -18 -4 -10 -14 -27 -24 -38 -21 -22 -212 -310
-212 -319 0 -3 -12 -24 -27 -48 -151 -237 -353 -707 -444 -1027 -7 -25 -14
-49 -15 -55 -16 -57 -42 -159 -51 -205 -9 -46 -10 -50 -13 -52 -2 -4 -7 -27
-14 -73 -4 -23 -9 -52 -12 -65 -2 -14 -7 -38 -9 -53 -2 -16 -6 -40 -9 -55 -6
-33 -14 -88 -22 -150 -3 -26 -7 -58 -9 -72 -27 -177 -27 -745 0 -962 12 -91
25 -185 32 -223 3 -16 6 -41 8 -55 6 -47 44 -229 70 -332 15 -57 28 -110 30
-118 2 -8 4 -16 5 -17 2 -2 3 -6 4 -10 14 -54 34 -118 67 -213 22 -63 41 -119
43 -125 2 -5 8 -21 13 -35 6 -14 19 -45 28 -70 9 -25 23 -58 30 -75 8 -16 26
-57 40 -90 60 -135 173 -352 247 -474 21 -34 38 -64 38 -66 0 -7 174 -261 191
-281 11 -11 19 -23 19 -27 0 -4 9 -17 19 -29 11 -13 59 -72 107 -133 48 -60
93 -115 98 -122 6 -6 40 -44 76 -84 120 -136 296 -306 488 -472 41 -35 197
-157 225 -176 12 -8 41 -30 64 -48 23 -18 44 -33 47 -33 3 0 29 -18 58 -40 29
-22 58 -40 65 -40 6 0 13 -3 15 -8 2 -4 32 -25 68 -47 249 -154 448 -258 686
-359 88 -37 168 -71 179 -76 11 -5 47 -19 80 -31 33 -11 67 -23 75 -26 8 -3
21 -7 28 -9 8 -1 21 -6 30 -10 9 -4 22 -8 27 -9 6 -2 64 -20 130 -41 66 -20
130 -38 143 -38 12 -1 22 -5 22 -9 0 -4 6 -7 13 -6 6 1 19 0 27 -4 8 -3 33 -9
55 -13 22 -4 45 -8 50 -10 6 -2 20 -5 33 -8 13 -3 31 -7 40 -10 9 -3 31 -8 47
-11 17 -2 41 -7 55 -10 28 -7 47 -10 105 -19 22 -4 49 -8 60 -11 11 -2 43 -7
70 -10 28 -4 61 -9 75 -11 14 -3 54 -7 90 -10 36 -3 76 -7 90 -9 101 -20 694
-27 880 -12 146 12 181 15 235 22 28 4 61 8 75 10 14 2 39 5 55 8 17 3 53 8
80 12 28 3 118 20 200 37 83 17 158 31 168 32 9 0 17 3 17 6 0 3 8 7 18 8 68
7 510 143 597 183 11 5 49 20 85 33 125 47 361 154 372 171 4 5 8 7 8 2 0 -11
299 151 333 181 9 8 17 12 17 8 0 -4 6 -2 13 4 25 21 88 60 97 60 6 0 10 3 10
8 0 4 16 16 36 27 39 21 276 189 345 245 187 152 318 268 444 395 100 101 241
254 276 300 13 17 31 37 41 46 10 9 18 21 18 27 0 6 4 12 8 14 8 3 117 143
152 195 8 11 36 51 63 88 26 36 47 68 47 70 0 4 86 136 100 153 6 6 7 12 3 12
-4 0 -3 4 2 8 10 7 25 31 54 87 9 16 18 32 22 35 9 9 155 302 189 380 18 41
40 93 50 115 20 45 110 292 115 315 2 8 4 15 5 15 1 0 3 7 5 15 2 8 10 35 19
60 21 63 95 357 101 404 3 21 7 41 10 45 4 7 24 119 30 171 2 14 5 39 8 55 5
26 11 79 23 190 33 306 23 796 -22 1075 -3 19 -7 49 -9 65 -6 56 -30 186 -52
280 -2 11 -6 31 -9 45 -3 14 -9 39 -14 55 -5 17 -12 41 -14 55 -3 14 -10 43
-16 65 -6 22 -15 54 -19 70 -34 130 -168 489 -227 609 -8 16 -14 35 -14 42 0
7 -3 14 -7 16 -5 2 -34 55 -66 118 -31 63 -71 140 -88 170 -17 30 -37 64 -43
75 -6 11 -21 34 -33 52 -13 17 -23 33 -23 36 0 17 -253 379 -295 423 -5 6 -21
25 -35 43 -14 18 -29 38 -35 44 -246 287 -458 495 -695 683 -41 32 -79 63 -85
67 -5 4 -35 26 -65 48 -30 22 -62 45 -71 52 -8 7 -23 17 -31 22 -9 6 -60 40
-115 76 -54 36 -120 78 -148 94 -27 16 -52 32 -55 35 -3 3 -23 15 -45 27 -22
11 -58 31 -80 44 -71 40 -298 154 -365 183 -36 16 -83 37 -106 47 -22 10 -65
27 -95 39 -30 11 -63 25 -74 30 -41 19 -185 68 -185 63 0 -3 -6 0 -14 6 -8 7
-27 14 -42 17 -15 3 -32 8 -38 12 -6 3 -17 7 -24 8 -6 1 -49 14 -95 27 -45 14
-111 33 -147 42 -36 9 -72 19 -80 22 -8 3 -22 7 -30 8 -8 1 -45 10 -83 19 -37
8 -79 18 -95 21 -15 3 -38 7 -52 11 -14 3 -36 7 -50 8 -14 2 -34 6 -45 9 -11
3 -40 8 -65 11 -25 3 -56 8 -70 10 -68 13 -217 31 -325 41 -38 3 -90 8 -115
10 -76 7 -484 14 -505 9z m-232 -209 c-3 -9 -8 -14 -10 -11 -3 3 -2 9 2 15 9
16 15 13 8 -4z m-45 -65 c-7 -10 -14 -17 -17 -15 -4 4 18 35 25 35 2 0 -1 -9
-8 -20z"/>
<path d="M3431 9684 c-2 -39 -33 -114 -60 -143 -25 -27 -26 -30 -9 -40 21 -13
53 -73 63 -121 l8 -34 23 64 c14 40 34 74 51 87 15 13 24 23 18 23 -17 0 -56
66 -75 127 -10 32 -19 49 -19 37z"/>
<path d="M3881 8978 c1 -7 0 -20 -3 -28 -3 -8 -14 -37 -24 -65 -9 -27 -30 -62
-45 -77 l-27 -27 33 -35 c21 -22 39 -57 51 -100 10 -36 20 -63 22 -61 2 2 6
18 9 37 6 44 52 127 80 145 l22 15 -28 24 c-32 26 -69 105 -73 153 -1 17 -6
31 -11 31 -4 0 -7 -6 -6 -12z"/>
<path d="M3460 8515 c0 -8 0 -17 0 -20 0 -3 -9 -25 -19 -49 -22 -50 -50 -86
-68 -86 -6 0 3 -15 21 -33 20 -18 41 -54 51 -85 16 -47 40 -84 34 -51 -5 30
27 104 58 134 32 31 32 31 11 46 -24 16 -68 104 -68 137 0 12 -4 22 -10 22 -5
0 -10 -7 -10 -15z"/>
<path d="M7281 7519 c-28 -10 -81 -38 -119 -63 -59 -39 -80 -56 -140 -107 -7
-6 -41 -34 -75 -62 -34 -28 -67 -56 -73 -62 -6 -5 -25 -21 -43 -35 -18 -14
-40 -32 -49 -41 -10 -9 -53 -44 -97 -78 -44 -34 -87 -68 -95 -74 -8 -7 -47
-35 -86 -64 -70 -50 -72 -51 -100 -37 -16 9 -36 21 -44 28 -50 41 -361 178
-460 202 -8 2 -40 10 -70 19 -85 24 -229 55 -279 61 -25 3 -57 7 -71 10 -137
24 -640 24 -780 -1 -14 -2 -47 -7 -75 -11 -79 -10 -124 -18 -205 -39 -30 -8
-66 -16 -80 -19 -24 -4 -139 -41 -170 -53 -8 -4 -17 -7 -20 -8 -49 -13 -242
-103 -251 -118 -3 -5 -10 -9 -15 -9 -17 -1 -54 -21 -54 -30 0 -4 -6 -8 -12 -8
-7 0 -24 -9 -37 -19 l-25 -19 -150 113 c-83 63 -156 119 -163 124 -7 6 -16 11
-22 11 -5 0 -11 4 -13 8 -1 5 -68 58 -148 117 -80 60 -147 112 -150 115 -3 3
-26 20 -52 38 -187 130 -376 120 -448 -24 -25 -51 -32 -84 -33 -154 -2 -108
11 -177 78 -420 14 -52 28 -102 30 -110 1 -8 26 -104 54 -213 51 -197 57 -225
67 -282 3 -16 10 -32 15 -33 5 -2 7 -7 5 -11 -3 -4 2 -34 11 -67 8 -32 17 -67
18 -77 2 -9 6 -21 10 -26 3 -6 -9 -25 -28 -43 -43 -44 -117 -142 -117 -156 0
-7 -4 -12 -9 -12 -20 0 -97 -211 -116 -318 -14 -85 -7 -234 16 -327 6 -22 10
-47 10 -55 0 -23 -78 -212 -154 -369 -93 -195 -260 -363 -462 -468 -63 -33
-200 -84 -207 -78 -2 2 -14 -4 -27 -14 -34 -26 -20 -57 37 -84 26 -12 50 -26
54 -32 4 -5 8 -7 8 -3 0 4 15 1 34 -7 35 -15 43 -17 147 -38 71 -14 211 -15
299 -2 l55 8 -44 -52 c-25 -29 -93 -101 -153 -160 -95 -94 -108 -112 -103
-133 5 -20 20 -30 73 -48 36 -13 75 -25 87 -26 11 -1 20 -3 20 -4 0 -4 88 -11
150 -12 61 0 120 4 189 16 14 2 45 -28 114 -113 101 -122 301 -327 392 -401
30 -25 62 -52 70 -60 8 -8 33 -29 55 -45 22 -16 45 -33 50 -37 6 -4 24 -18 40
-31 17 -12 57 -41 90 -62 33 -22 62 -43 63 -47 2 -5 10 -8 18 -8 8 0 14 -4 14
-10 0 -5 7 -10 15 -10 8 0 15 -3 15 -7 0 -5 10 -13 23 -18 33 -16 111 -59 117
-65 6 -7 215 -110 280 -138 75 -33 260 -99 343 -122 75 -20 88 -24 140 -35 12
-2 36 -8 52 -12 39 -9 33 -8 88 -17 27 -4 58 -9 69 -11 24 -5 91 -13 173 -22
134 -14 514 -7 625 11 14 3 57 9 95 15 83 13 101 16 183 35 118 27 324 91 398
123 22 9 45 18 52 19 39 7 437 213 452 234 3 4 16 13 29 20 71 37 343 245 424
324 21 20 39 36 41 36 6 0 160 156 214 218 28 31 63 71 78 87 14 17 65 82 113
146 64 86 91 115 102 109 16 -9 254 -6 312 4 49 8 156 45 185 64 38 25 28 54
-40 113 -62 53 -211 198 -236 231 -12 15 -9 16 40 10 69 -8 183 -7 233 2 22 4
52 9 67 11 15 3 39 10 53 15 15 6 31 8 36 4 5 -3 9 -1 9 3 0 5 21 16 48 25 70
25 142 74 142 97 0 27 -16 37 -90 55 -36 9 -87 27 -115 41 -95 46 -334 212
-395 275 -47 48 -90 98 -90 106 0 3 -8 18 -19 32 -21 29 -101 186 -151 297
-31 67 -31 72 -23 145 6 41 9 111 7 155 -2 78 -27 220 -44 254 -4 9 -18 41
-31 71 -13 30 -31 67 -41 82 -10 14 -18 31 -18 37 0 6 -4 11 -10 11 -5 0 -10
5 -10 10 0 10 -16 30 -91 114 l-36 41 29 115 c16 63 31 124 32 135 2 11 4 20
5 20 2 0 5 11 7 25 3 14 14 63 25 110 12 47 22 90 24 95 1 6 5 17 8 25 3 8 8
31 11 50 3 19 12 58 21 87 8 28 15 55 14 60 -1 4 1 15 4 23 4 8 18 62 32 120
14 58 27 112 29 120 52 195 57 331 16 413 -28 56 -77 99 -135 117 -22 7 -45
16 -50 21 -22 16 -85 16 -134 -2z m-4351 -129 c25 -12 84 -52 133 -87 90 -67
120 -97 45 -45 -129 88 -236 133 -330 135 -32 1 -58 3 -58 5 0 1 10 7 23 12
35 15 137 4 187 -20z m585 -428 c-3 -3 -11 0 -18 7 -9 10 -8 11 6 5 10 -3 15
-9 12 -12z m70 -52 c10 -11 16 -20 13 -20 -3 0 -13 9 -23 20 -10 11 -16 20
-13 20 3 0 13 -9 23 -20z"/>
</g>
</svg>
