<svg width="58" height="24" viewBox="0 0 58 24" fill="none" xmlns="http://www.w3.org/2000/svg">
<path d="M32.7348 11.9287H31.2045V17.6317H29.0659V11.9287H27.9609V10.0966H29.0659V9.38375C29.0659 7.53741 30.2184 6.58929 31.972 6.58929C32.2432 6.59187 32.5133 6.62374 32.7776 6.68434V8.82296C32.546 8.73139 32.2994 8.68384 32.0504 8.68276C31.8237 8.66547 31.6008 8.74802 31.44 8.90879C31.2793 9.06955 31.1967 9.2925 31.214 9.5192V10.0871H32.7443L32.7348 11.9287ZM35.957 17.6317H33.7946V6.7485H35.957V17.6317Z" fill="black"/>
<path d="M40.7578 9.62379C42.416 9.6209 43.9124 10.618 44.5484 12.1494C45.1843 13.6809 44.8342 15.4446 43.6617 16.6172C42.4891 17.7897 40.7254 18.1398 39.1939 17.5039C37.6625 16.8679 36.6654 15.3715 36.6683 13.7133C36.6547 12.6246 37.0813 11.5765 37.8511 10.8066C38.621 10.0368 39.6691 9.61025 40.7578 9.62379ZM40.7578 15.7165C41.8627 15.7165 42.6588 14.8016 42.6588 13.7133C42.6588 12.625 41.8699 11.722 40.7578 11.722C39.6816 11.7591 38.8283 12.6424 38.8283 13.7192C38.8283 14.7961 39.6816 15.6793 40.7578 15.7165Z" fill="black"/>
<path d="M47.1038 9.78058L48.4915 15.0083L49.8816 10.857L49.5038 9.78295H51.6424L53.4744 15.0107L54.8337 9.78295H57.0578L54.722 17.6459H52.4812L50.9176 13.3354L49.4657 17.6459H47.2083L44.8867 9.78295L47.1038 9.78058Z" fill="black"/>
<path d="M11.9007 23.8384C18.4625 23.8384 23.7819 18.519 23.7819 11.9572C23.7819 5.39544 18.4625 0.0760498 11.9007 0.0760498C5.33892 0.0760498 0.0195312 5.39544 0.0195312 11.9572C0.0195312 18.519 5.33892 23.8384 11.9007 23.8384Z" fill="#00EF8B"/>
<path d="M17.117 10.0966H13.7617V13.4519H17.117V10.0966Z" fill="white"/>
<path d="M10.4054 14.7089C10.4064 15.2187 10.0999 15.6788 9.62909 15.8744C9.15827 16.0699 8.616 15.9623 8.25551 15.6018C7.89501 15.2413 7.78742 14.699 7.98296 14.2282C8.1785 13.7574 8.6386 13.4509 9.14842 13.4519H10.4054V10.0966H9.14842C7.28153 10.0957 5.59798 11.2196 4.88311 12.9442C4.16824 14.6688 4.5629 16.6542 5.88299 17.9743C7.20307 19.2944 9.18849 19.6891 10.9131 18.9742C12.6377 18.2593 13.7617 16.5758 13.7607 14.7089V13.4519H10.4054V14.7089Z" fill="white"/>
<path d="M15.0185 8.41903H18.792V5.06616H15.0185C12.4723 5.06878 10.4089 7.13223 10.4062 9.67844V10.0967H13.7615V9.67844C13.7628 8.98435 14.3244 8.42164 15.0185 8.41903Z" fill="white"/>
<path d="M10.4062 13.4519H13.7615V10.0966H10.4062V13.4519Z" fill="#16FF99"/>
</svg>
