<svg width="33" height="33" viewBox="0 0 33 33" fill="none" xmlns="http://www.w3.org/2000/svg">
<path d="M16.38 32.76C25.4264 32.76 32.76 25.4264 32.76 16.38C32.76 7.33357 25.4264 0 16.38 0C7.33358 0 0 7.33357 0 16.38C0 25.4264 7.33358 32.76 16.38 32.76Z" fill="#00EF8B"/>
<path d="M23.571 13.8148H18.9453V18.4405H23.571V13.8148Z" fill="white"/>
<path d="M14.3289 20.1735C14.3303 20.8764 13.9077 21.5107 13.2586 21.7803C12.6095 22.0499 11.8619 21.9015 11.3649 21.4045C10.8679 20.9076 10.7196 20.16 10.9892 19.5109C11.2587 18.8618 11.8931 18.4392 12.5959 18.4405H14.3289V13.8148H12.5959C10.0221 13.8135 7.70112 15.3631 6.71556 17.7407C5.73 20.1183 6.2741 22.8555 8.09404 24.6754C9.91398 26.4954 12.6512 27.0395 15.0288 26.0539C17.4064 25.0683 18.956 22.7473 18.9546 20.1735V18.4405H14.3289V20.1735Z" fill="white"/>
<path d="M20.6829 11.5022H25.8852V6.87976H20.6829C17.1726 6.88337 14.3278 9.72815 14.3242 13.2385V13.815H18.9499V13.2385C18.9517 12.2816 19.726 11.5058 20.6829 11.5022Z" fill="white"/>
<path d="M14.3242 18.4405H18.9499V13.8148H14.3242V18.4405Z" fill="#16FF99"/>
</svg>
