<svg width="63" height="59" viewBox="0 0 63 59" fill="none" xmlns="http://www.w3.org/2000/svg">
<path d="M30.8177 1.29552C47.1557 0.953518 60.6737 13.288 61.0097 28.8475C61.3442 44.4085 48.3797 57.2965 32.0447 57.6385C15.7097 57.979 2.19318 45.649 1.85418 30.088C1.59618 18.268 9.01668 7.99302 19.7582 3.58002" stroke="#EF52D1" stroke-width="0.927" stroke-linecap="round"/>
<path d="M30.8455 2.51951C46.4725 2.18951 59.4025 13.9915 59.7325 28.873C60.0625 43.753 47.653 56.0875 32.026 56.413C16.399 56.7385 3.46902 44.944 3.13902 30.061C2.86902 17.656 11.4415 7.02701 23.35 3.63851" stroke="#7C40FF" stroke-width="0.927" stroke-linecap="round"/>
<path d="M30.8818 3.67448C45.8398 3.36998 58.2148 14.644 58.5268 28.9C58.8358 43.156 46.9648 54.9475 32.0068 55.261C17.0473 55.576 4.67235 44.293 4.36185 30.037C4.10985 18.8725 11.3473 9.20798 21.6928 5.39948" stroke="#45F0F4" stroke-width="0.927" stroke-linecap="round"/>
<path d="M30.8977 4.98551C45.0952 4.67951 56.8432 15.4075 57.1387 28.927C57.4327 42.4465 46.1647 53.65 31.9792 53.947C17.7937 54.247 6.03069 43.516 5.72019 30.007C5.51469 20.3125 11.2507 11.8255 19.7407 7.66451" stroke="#FCDF35" stroke-width="0.927" stroke-linecap="round"/>
<path d="M42.2573 43.117C45.9398 40.27 47.5388 37.708 47.5388 37.708C49.6133 38.098 50.7998 37.345 50.7998 37.345C49.0043 35.8705 48.4058 34.87 48.4058 34.87C49.1357 35.1282 49.9144 35.2183 50.684 35.1336C51.4535 35.0489 52.194 34.7917 52.8503 34.381C52.8503 34.381 48.5483 32.146 47.9018 30.295C45.5138 23.446 45.6728 22.8175 45.6728 22.8175C46.8458 19.4665 47.8478 15.6175 46.8308 14.3935C45.5288 12.8185 44.0078 15.3595 40.1558 18.025C40.1558 18.025 37.7678 15.892 31.4843 16.018C27.3308 16.1065 23.1938 18.418 23.1938 18.418C21.3788 17.173 20.1863 16.006 18.7688 15.229C16.5788 14.0455 15.5843 15.1885 16.4408 17.869C16.7888 18.955 17.3513 21.328 17.9003 23.44C18.2948 24.9625 17.9003 24.613 16.7678 29.32C16.6373 29.86 15.9128 31.345 15.1298 32.587C13.7978 34.6795 11.1953 35.2525 11.1953 35.2525C11.8681 35.6364 12.6189 35.8632 13.3917 35.9159C14.1645 35.9687 14.9391 35.846 15.6578 35.557C15.6578 35.557 15.1028 36.5845 13.3718 38.1355C13.3718 38.1355 14.5898 38.836 16.6463 38.3605C18.1402 40.3381 19.8993 42.1006 21.8738 43.5985C21.8738 43.5985 25.8518 46.453 32.1458 46.429C38.9753 46.4035 42.2588 43.117 42.2588 43.117H42.2573Z" fill="#FFEE8A"/>
<path d="M25.4243 17.197C25.4243 17.197 17.9198 24.4855 19.1438 34.177C20.4908 44.842 32.1518 46.429 32.1518 46.429C32.1518 46.429 22.9328 47.1085 16.6463 38.3575C16.6463 38.3575 14.4563 39.1765 13.3718 38.1325C13.3718 38.1325 15.3293 36.8365 15.6578 35.554C15.6578 35.554 13.6553 36.6295 11.1953 35.2495C12.1295 34.9904 13.0021 34.5465 13.7617 33.9441C14.5212 33.3417 15.1522 32.5931 15.6173 31.7425C18.0218 27.4855 17.9318 20.6125 25.4243 17.197Z" fill="#F4C458"/>
<path d="M37.9705 16.9315C37.9705 16.9315 46.6465 23.881 45.8485 33.616C44.9665 44.329 32.5195 46.4125 32.5195 46.4125C32.5195 46.4125 41.7595 46.7185 47.659 37.6975C47.659 37.6975 49.8865 38.428 50.923 37.333C50.923 37.333 48.91 36.115 48.526 34.8565C48.526 34.8565 50.575 35.8435 52.9735 34.369C52.0279 34.1488 51.1359 33.7416 50.3502 33.1712C49.5644 32.6008 48.9008 31.8789 48.3985 31.048C45.811 26.9035 45.6025 20.0305 37.9705 16.933V16.9315Z" fill="#FFFBCC"/>
<path d="M21.972 19.7005C21.972 19.7005 20.4195 18.5035 18.651 17.263C17.2665 16.2925 16.6485 16.276 16.332 17.398L18.09 23.9845L19.5435 23.035L20.7105 21.0475L21.972 19.7005ZM41.4405 19.2925C41.4405 19.2925 42.948 18.028 44.652 16.7215C45.9945 15.691 46.6125 15.652 46.9785 16.7575L45.507 23.4055L44.013 22.513L42.771 20.578L41.4405 19.2925Z" fill="#F4C458"/>
<path fill-rule="evenodd" clip-rule="evenodd" d="M16.6463 38.3575C14.5898 38.833 13.3718 38.1325 13.3718 38.1325C15.1028 36.5815 15.6578 35.554 15.6578 35.554C14.2028 36.139 12.5528 36.0265 11.1953 35.2495C12.1415 35.018 13.0265 34.5847 13.7897 33.9794C14.5529 33.3741 15.1763 32.6111 15.6173 31.7425C16.6373 29.683 17.9603 25.648 19.0523 23.5795C21.8483 18.2905 25.6253 16.1395 31.4768 16.015C36.9158 15.9025 41.4818 17.8795 44.5223 23.047C45.7073 25.057 47.2028 29.0425 48.3128 31.057C48.7915 31.9063 49.4478 32.6423 50.2368 33.2149C51.0258 33.7875 51.929 34.1832 52.8848 34.375C52.2281 34.7866 51.4868 35.0445 50.7164 35.1294C49.9461 35.2144 49.1664 35.1241 48.4358 34.8655C48.4358 34.8655 49.0388 35.8645 50.8358 37.342C50.8358 37.342 49.6478 38.092 47.5733 37.705C47.5733 37.705 42.4133 46.2115 32.2913 46.423C22.1693 46.633 16.6463 38.3575 16.6463 38.3575V38.3575Z" stroke="#44392E" stroke-width="0.5" stroke-linecap="round" stroke-linejoin="round"/>
<path d="M40.3754 18.208C40.3754 18.208 43.8734 15.5845 44.7419 14.9275C46.3199 13.7275 47.9204 14.302 47.3069 16.7545C46.9049 18.385 45.6119 23.7055 45.6119 23.7055M23.1374 18.0445C23.1374 18.0445 19.9124 15.625 19.0424 14.9635C17.4644 13.7665 15.8654 14.3545 16.4774 16.792L18.1874 23.7115L23.1374 18.0445Z" stroke="#44392E" stroke-width="0.5" stroke-linecap="round" stroke-linejoin="round"/>
<path d="M21.8105 32.9425C24.7887 32.9425 27.203 30.5745 27.203 27.6535C27.203 24.7325 24.7887 22.3645 21.8105 22.3645C18.8323 22.3645 16.418 24.7325 16.418 27.6535C16.418 30.5745 18.8323 32.9425 21.8105 32.9425Z" fill="white" stroke="#44392E" stroke-width="0.5"/>
<path d="M21.8468 29.5C23.5981 29.5 25.0178 28.1072 25.0178 26.389C25.0178 24.6709 23.5981 23.278 21.8468 23.278C20.0955 23.278 18.6758 24.6709 18.6758 26.389C18.6758 28.1072 20.0955 29.5 21.8468 29.5Z" fill="#44392E" stroke="#F930E7" stroke-width="0.662"/>
<path d="M22.8818 25.3168C23.4878 24.7102 23.4982 23.7381 22.9051 23.1456C22.312 22.5531 21.3399 22.5646 20.7339 23.1712C20.128 23.7778 20.1175 24.7499 20.7107 25.3424C21.3038 25.9349 22.2759 25.9234 22.8818 25.3168Z" fill="white"/>
<path d="M42.0214 32.9425C44.9996 32.9425 47.4139 30.5745 47.4139 27.6535C47.4139 24.7325 44.9996 22.3645 42.0214 22.3645C39.0432 22.3645 36.6289 24.7325 36.6289 27.6535C36.6289 30.5745 39.0432 32.9425 42.0214 32.9425Z" fill="white" stroke="#44392E" stroke-width="0.5"/>
<path d="M42.0499 29.5C43.8012 29.5 45.2209 28.1072 45.2209 26.389C45.2209 24.6709 43.8012 23.278 42.0499 23.278C40.2986 23.278 38.8789 24.6709 38.8789 26.389C38.8789 28.1072 40.2986 29.5 42.0499 29.5Z" fill="#44392E" stroke="#F930E7" stroke-width="0.662"/>
<path d="M43.0928 25.3184C43.6987 24.7117 43.7092 23.7397 43.116 23.1472C42.5229 22.5547 41.5508 22.5661 40.9449 23.1727C40.3389 23.7793 40.3285 24.7514 40.9216 25.3439C41.5147 25.9364 42.4868 25.925 43.0928 25.3184Z" fill="white"/>
<path d="M34.9954 36.931C34.9954 38.713 33.6349 40.6735 31.9594 40.6735C30.2854 40.6735 28.9219 38.7205 28.9219 36.9385L31.9519 35.0725L34.9954 36.9325V36.931Z" fill="#44392E"/>
<path d="M34.4158 39.463C34.0907 39.1361 33.7034 38.8777 33.2767 38.703C32.8501 38.5284 32.3927 38.441 31.9318 38.446C31.471 38.4496 31.0156 38.5456 30.5925 38.7283C30.1695 38.911 29.7874 39.1766 29.4688 39.5095L31.9528 40.57L34.4158 39.463Z" fill="#F930E7"/>
<path d="M29.6562 39.5545C29.8768 38.9185 30.8247 38.437 31.9602 38.437C33.0178 38.437 33.9103 38.851 34.2103 39.424" stroke="#44392E" stroke-width="0.5" stroke-linecap="round"/>
<path d="M31.7461 35.971H32.1811" stroke="white" stroke-width="1.263" stroke-linecap="round" stroke-linejoin="round"/>
<path d="M39.8417 36.166C39.1302 36.7436 38.2672 37.1035 37.3562 37.2025C36.452 37.3169 35.534 37.2496 34.6562 37.0045C33.7457 36.7783 32.9101 36.3181 32.2322 35.6695C31.8638 35.3075 31.6085 34.8464 31.4972 34.342C31.4696 34.2118 31.4555 34.0791 31.4552 33.946V33.64L31.4297 33.007C31.4346 32.8725 31.4905 32.745 31.5861 32.6503C31.6816 32.5555 31.8097 32.5007 31.9442 32.497C32.0788 32.4908 32.2107 32.5361 32.3132 32.6235C32.4157 32.711 32.4811 32.8341 32.4962 32.968V33.007L32.4707 33.64V33.946C32.4644 34.0249 32.4644 34.1041 32.4707 34.183C32.5247 34.5235 32.6777 34.8415 32.9117 35.098C33.4502 35.671 34.1327 36.0985 34.8917 36.334C35.6682 36.6014 36.4901 36.7121 37.3097 36.6595C38.1308 36.6196 38.9232 36.3447 39.5927 35.8675C39.6346 35.8401 39.6851 35.8291 39.7347 35.8366C39.7842 35.8441 39.8292 35.8695 39.8612 35.908C39.8925 35.9457 39.9085 35.9937 39.906 36.0427C39.9035 36.0916 39.8827 36.1378 39.8477 36.172L39.8417 36.166Z" fill="#44392E"/>
<path d="M24.6931 35.8765C25.3291 36.3745 26.1166 36.6475 26.9281 36.6505C27.7402 36.673 28.5482 36.5291 29.3026 36.2275C30.0299 35.966 30.6692 35.5055 31.1476 34.8985C31.3486 34.636 31.4581 34.3135 31.4581 33.985C31.4581 33.589 31.4296 33.1525 31.4371 32.74C31.4481 32.6067 31.5091 32.4825 31.6078 32.3924C31.7066 32.3022 31.8359 32.2528 31.9696 32.254C32.2486 32.254 32.4796 32.4655 32.5021 32.7385C32.5021 33.166 32.5021 33.5635 32.4766 34.009C32.4412 34.5321 32.2387 35.0301 31.8991 35.4295C31.2752 36.1294 30.4652 36.6377 29.5636 36.895C28.703 37.1716 27.7947 37.2686 26.8951 37.18C25.988 37.1088 25.13 36.7397 24.4546 36.13C24.4369 36.1142 24.4225 36.095 24.4122 36.0736C24.402 36.0522 24.396 36.029 24.3948 36.0053C24.3935 35.9816 24.397 35.9579 24.4049 35.9355C24.4129 35.9132 24.4252 35.8926 24.4411 35.875C24.4743 35.8392 24.5201 35.8178 24.5688 35.8153C24.6176 35.8128 24.6654 35.8293 24.7021 35.8615L24.6931 35.8765Z" fill="#44392E"/>
<path d="M34.9954 37.2205C34.9954 38.8855 33.6349 40.573 31.9594 40.573C30.2854 40.573 28.9219 38.887 28.9219 37.2205" stroke="#44392E" stroke-width="0.553" stroke-linecap="round"/>
<path d="M29.3879 32.74C29.3472 32.6316 29.3387 32.5137 29.3634 32.4006C29.3882 32.2875 29.4451 32.184 29.5274 32.1025C29.8784 31.7545 30.6329 31.24 32.0324 31.228C33.4274 31.216 34.0964 31.7125 34.4129 32.059C34.4898 32.1452 34.5402 32.2518 34.5581 32.3659C34.5759 32.4801 34.5604 32.5969 34.5134 32.7025C34.4512 32.8431 34.351 32.9635 34.2241 33.0501C34.0971 33.1368 33.9485 33.1863 33.7949 33.193C33.5457 33.1884 33.299 33.2434 33.0753 33.3535C32.8517 33.4636 32.6577 33.6256 32.5094 33.826C32.4888 33.8572 32.4647 33.8859 32.4374 33.9115C32.3696 33.975 32.2896 34.0241 32.2023 34.0559C32.115 34.0877 32.0222 34.1015 31.9294 34.0965C31.8366 34.0914 31.7458 34.0676 31.6625 34.0266C31.5791 33.9855 31.5049 33.928 31.4444 33.8575C31.4444 33.8575 31.1594 33.361 30.1019 33.2755C29.9462 33.2625 29.7974 33.2049 29.6735 33.1097C29.5495 33.0145 29.4556 32.8856 29.4029 32.7385H29.3879V32.74ZM27.9254 33.8755C25.9376 33.4364 23.8725 33.4905 21.9104 34.033C20.9346 34.3241 20.0123 34.7709 19.1789 35.356C18.3439 35.9454 17.6095 36.6657 17.0039 37.489C18.1361 35.728 19.819 34.3911 21.7904 33.6865C23.8031 33.0004 25.9534 32.8181 28.0529 33.1555C28.2509 33.187 28.3889 33.3685 28.3634 33.565C28.3563 33.6121 28.34 33.6573 28.3152 33.698C28.2905 33.7387 28.2579 33.774 28.2194 33.802C28.1407 33.8594 28.0427 33.8836 27.9464 33.8695L27.9254 33.8755Z" fill="#44392E"/>
<path d="M27.9882 34.75C27.3065 34.7109 26.6226 34.7345 25.9452 34.8205C25.2747 34.8985 24.6282 35.1055 24.0402 35.4295C23.4552 35.7715 22.9722 36.259 22.6392 36.8425C22.3062 37.4425 22.0737 38.092 21.9492 38.7655C22.0152 38.0725 22.1922 37.396 22.4742 36.757C22.78 36.1038 23.2516 35.5421 23.8422 35.128C24.4482 34.7195 25.1286 34.4341 25.8447 34.288C26.5497 34.135 27.2667 34.048 27.9882 34.027C28.0847 34.0217 28.1793 34.0549 28.2513 34.1193C28.3233 34.1837 28.3668 34.2741 28.3722 34.3705C28.3755 34.4666 28.3405 34.56 28.275 34.6303C28.2095 34.7005 28.1187 34.742 28.0227 34.7455L27.9882 34.75ZM35.8317 33.157C37.9297 32.8199 40.0782 33.0017 42.0897 33.6865C44.0598 34.3934 45.7421 35.7298 46.8762 37.489C46.2706 36.6657 45.5362 35.9455 44.7012 35.356C43.8673 34.7713 42.9444 34.3251 41.9682 34.0345C40.0067 33.4917 37.9422 33.4372 35.9547 33.8755C35.8599 33.8952 35.7612 33.8768 35.6798 33.8243C35.5984 33.7719 35.5409 33.6895 35.5197 33.595C35.5106 33.5484 35.5108 33.5005 35.5202 33.4539C35.5297 33.4074 35.5483 33.3632 35.5749 33.3239C35.6016 33.2846 35.6357 33.2509 35.6754 33.2248C35.7151 33.1988 35.7596 33.1808 35.8062 33.172L35.8317 33.157Z" fill="#44392E"/>
<path d="M35.8959 34.03C36.6159 34.0525 37.3344 34.138 38.0394 34.2895C38.7579 34.4365 39.4389 34.723 40.0419 35.1295C40.6344 35.5465 41.1054 36.109 41.4069 36.76C41.6889 37.399 41.8674 38.0755 41.9349 38.77C41.8101 38.0955 41.5771 37.4457 41.2449 36.8455C40.9103 36.2595 40.427 35.7721 39.8439 35.4325C39.2542 35.1083 38.6073 34.9015 37.9389 34.8235C37.2615 34.7375 36.5776 34.7139 35.8959 34.753C35.832 34.7561 35.7684 34.7425 35.7113 34.7136C35.6543 34.6847 35.6057 34.6414 35.5704 34.588C35.5354 34.5351 35.5153 34.4738 35.5122 34.4105C35.509 34.3472 35.5229 34.2841 35.5524 34.228C35.5824 34.1714 35.6268 34.1236 35.681 34.0894C35.7352 34.0552 35.7974 34.0358 35.8614 34.033L35.8959 34.03Z" fill="#44392E"/>
<path d="M30.8574 5.73402C32.3536 5.73402 33.5664 4.54467 33.5664 3.07752C33.5664 1.61038 32.3536 0.421021 30.8574 0.421021C29.3613 0.421021 28.1484 1.61038 28.1484 3.07752C28.1484 4.54467 29.3613 5.73402 30.8574 5.73402Z" fill="white"/>
<path d="M30.7758 4.80849C31.707 4.80849 32.4618 4.06909 32.4618 3.15699C32.4618 2.24489 31.707 1.50549 30.7758 1.50549C29.8447 1.50549 29.0898 2.24489 29.0898 3.15699C29.0898 4.06909 29.8447 4.80849 30.7758 4.80849Z" fill="#E6E6E6"/>
<path d="M32.0029 4.07796C31.3759 4.31196 30.6679 4.18596 30.1639 3.74796C29.9286 3.51276 29.7755 3.20791 29.7274 2.87873C29.6793 2.54956 29.7388 2.21365 29.8969 1.92096C29.1169 2.46546 29.1544 3.74796 29.6824 4.26396C30.2104 4.77846 31.4374 4.63146 32.0029 4.07796Z" fill="#A0A0A0"/>
<path d="M29.8687 2.1025C30.4387 1.8715 31.0882 1.93 31.6042 2.2615C32.0947 2.722 32.2522 3.427 32.0047 4.0465C32.5207 3.541 32.6827 2.4595 32.1577 1.9465C31.6327 1.438 30.3832 1.5985 29.8672 2.104L29.8687 2.1025Z" fill="white"/>
<path d="M30.93 4.71696C31.8686 4.71696 32.6295 3.99838 32.6295 3.11196C32.6295 2.22554 31.8686 1.50696 30.93 1.50696C29.9914 1.50696 29.2305 2.22554 29.2305 3.11196C29.2305 3.99838 29.9914 4.71696 30.93 4.71696Z" stroke="#44392E" stroke-width="0.5" stroke-linecap="round" stroke-linejoin="round"/>
<path d="M18.2877 9.55751C11.1927 13.8235 6.55019 21.4195 6.73769 29.9725C7.01969 42.964 18.3072 53.263 31.9452 52.9765C45.5847 52.69 56.4117 41.9275 56.1297 28.936C55.8462 15.9445 44.9157 5.94701 30.9207 5.94701C30.1298 5.96878 29.3623 5.67772 28.7847 5.13701C28.502 4.87249 28.2754 4.55389 28.1182 4.20011C27.961 3.84633 27.8765 3.46458 27.8697 3.07751C27.8697 1.50551 28.9887 0.314514 30.7992 0.314514C48.0072 0.314514 61.6947 12.724 62.0457 28.8235C62.3967 44.923 48.9762 58.2655 32.0697 58.6225C15.1647 58.978 1.17419 46.21 0.82319 30.109C0.56819 18.454 7.52519 8.25101 17.8002 3.36401" stroke="#44392E" stroke-width="0.5" stroke-linecap="round" stroke-linejoin="round"/>
<path d="M21.6726 7.5145C21.7941 8.1685 21.9306 8.5795 22.3536 8.809C21.9426 8.9275 21.7821 9.391 21.6726 10C21.5706 9.436 21.3966 8.9305 20.9961 8.803C21.3711 8.6935 21.5646 8.197 21.6726 7.513V7.5145Z" fill="#FCDF35"/>
<path d="M24.2942 4.71704C24.4247 5.42954 24.5732 5.88104 25.0337 6.12704C24.5897 6.25904 24.4127 6.76454 24.2942 7.43204C24.1787 6.82154 23.9837 6.26804 23.5547 6.12704C23.9642 6.00254 24.1607 5.45954 24.2942 4.71704Z" fill="#45F0F4"/>
<path d="M21.4765 0.314514C21.5845 0.923514 21.709 1.32251 22.0975 1.53251C21.7225 1.64501 21.5755 2.08751 21.4765 2.66651C21.3805 2.13251 21.2215 1.65401 20.8555 1.53251C21.2005 1.42901 21.3655 0.956514 21.4765 0.314514Z" fill="#EF52D1"/>
</svg>
