<svg width="127" height="197" viewBox="0 0 127 197" fill="none" xmlns="http://www.w3.org/2000/svg">
<path d="M55.9691 148.214C52.7725 148.214 50.1475 145.699 49.9696 142.508C49.8741 140.701 49.8264 138.894 49.8264 137.087C49.8264 128.718 50.5423 121.681 51.9741 115.975C53.5013 110.269 55.3626 105.323 57.5581 101.139C59.8489 96.8595 62.283 93.0555 64.8602 89.727C67.5329 86.3034 69.9669 82.7372 72.1623 79.0282C74.4532 75.2242 76.3145 70.9923 77.7463 66.3324C79.2736 61.5774 80.0372 55.7287 80.0372 48.7864C80.0372 43.4608 79.4168 38.8484 78.1759 34.9493C76.935 30.9551 75.2168 27.6742 73.0214 25.1064C70.826 22.5387 68.2011 20.6367 65.1466 19.4004C62.0921 18.069 58.7512 17.4033 55.124 17.4033C49.1105 17.4033 44.1469 18.7347 40.2334 21.3975C36.4153 23.9652 34.5062 27.2462 34.5062 31.2404C34.5062 33.3326 34.9835 35.1871 35.938 36.8038C36.8925 38.4205 37.9425 40.0372 39.0879 41.6539C40.3288 43.1755 41.4265 44.7446 42.3811 46.3613C43.3356 47.978 43.8129 49.8325 43.8129 51.9247C43.8129 54.3973 43.2879 56.6322 42.2379 58.6293C41.2834 60.5313 39.8993 62.1955 38.0857 63.622C36.2721 65.0485 34.1721 66.1422 31.7858 66.903C29.3995 67.6638 26.7745 68.0442 23.9109 68.0442C20.5701 68.0442 17.4679 67.4736 14.6043 66.3324C11.7407 65.0961 9.2112 63.4794 7.01578 61.4823C4.82037 59.3901 3.10222 56.9175 1.86133 54.0644C0.620443 51.1163 0 47.9305 0 44.5069C0 36.5185 1.90906 29.7188 5.72717 24.1079C9.54528 18.4019 14.4611 13.7895 20.4746 10.2708C26.4882 6.65701 33.1221 4.04176 40.3766 2.42505C47.7264 0.808351 54.9331 0 61.9966 0C71.351 0 79.9895 1.09365 87.9121 3.28096C95.9301 5.37316 102.803 8.46391 108.53 12.5532C114.353 16.6425 118.887 21.5877 122.132 27.3888C125.377 33.19 127 39.7519 127 47.0746C127 52.1149 126.141 56.6797 124.423 60.769C122.8 64.7632 120.652 68.4721 117.98 71.8957C115.307 75.2242 112.205 78.4101 108.673 81.4533C105.237 84.4965 101.705 87.5397 98.0778 90.5829C94.546 93.6261 91.0143 96.812 87.4825 100.14C84.0462 103.469 80.9917 107.178 78.3191 111.267C75.6464 115.261 73.451 119.731 71.7328 124.676C70.1101 129.622 69.2988 135.232 69.2988 141.509C69.2988 142.555 69.2988 143.696 69.2988 144.933C69.2988 146.649 68.004 148.214 66.2872 148.214H55.9691ZM38.372 177.6C38.372 174.937 38.9448 172.417 40.0902 170.039C41.2356 167.566 42.7629 165.474 44.6719 163.762C46.6764 161.956 48.9673 160.529 51.5445 159.483C54.2172 158.437 57.0808 157.914 60.1353 157.914C63.0943 157.914 65.8625 158.437 68.4397 159.483C71.1124 160.529 73.4032 161.956 75.3123 163.762C77.3168 165.474 78.8918 167.566 80.0372 170.039C81.1826 172.417 81.7554 174.937 81.7554 177.6C81.7554 180.357 81.1826 182.925 80.0372 185.303C78.8918 187.68 77.3168 189.725 75.3123 191.437C73.4032 193.148 71.1124 194.48 68.4397 195.431C65.8625 196.477 63.0943 197 60.1353 197C57.0808 197 54.2172 196.477 51.5445 195.431C48.9673 194.48 46.6764 193.148 44.6719 191.437C42.7629 189.725 41.2356 187.68 40.0902 185.303C38.9448 182.925 38.372 180.357 38.372 177.6Z" fill="#5C626F"/>
</svg>
