<svg xmlns="http://www.w3.org/2000/svg" width="42" height="44" viewBox="0 0 42 44">
    <g fill="none" fill-rule="evenodd" transform="translate(.5 3.5)">
        <path stroke="#EF52D1" stroke-linecap="round" stroke-width=".927" d="M20.044.697C30.936.469 39.948 8.692 40.172 19.065c.223 10.374-8.42 18.966-19.31 19.194C9.972 38.486.961 30.266.735 19.892.563 12.012 5.51 5.162 12.671 2.22"/>
        <path stroke="#7C40FF" stroke-linecap="round" stroke-width=".927" d="M20.063 1.513c10.418-.22 19.038 7.648 19.258 17.569.22 9.92-8.053 18.143-18.471 18.36-10.418.217-19.038-7.646-19.258-17.568-.18-8.27 5.535-15.356 13.474-17.615"/>
        <path stroke="#45F0F4" stroke-linecap="round" stroke-width=".927" d="M20.086 2.283c9.972-.203 18.222 7.313 18.43 16.817.206 9.504-7.708 17.365-17.68 17.574-9.973.21-18.223-7.312-18.43-16.816C2.238 12.415 7.063 5.972 13.96 3.433"/>
        <path stroke="#FCDF35" stroke-linecap="round" stroke-width=".927" d="M20.098 3.157c9.465-.204 17.297 6.948 17.494 15.961.196 9.013-7.316 16.482-16.773 16.68-9.457.2-17.299-6.954-17.506-15.96C3.176 13.375 7 7.717 12.66 4.943"/>
        <path fill="#FFEE8A" fill-rule="nonzero" d="M27.67 28.578c2.455-1.898 3.521-3.606 3.521-3.606 1.383.26 2.174-.242 2.174-.242-1.197-.983-1.596-1.65-1.596-1.65a3.43 3.43 0 0 0 2.963-.326s-2.868-1.49-3.299-2.724c-1.592-4.566-1.486-4.985-1.486-4.985.782-2.234 1.45-4.8.772-5.616-.868-1.05-1.882.644-4.45 2.421 0 0-1.592-1.422-5.781-1.338-2.769.059-5.527 1.6-5.527 1.6-1.21-.83-2.005-1.608-2.95-2.126-1.46-.789-2.123-.027-1.552 1.76.232.724.607 2.306.973 3.714.263 1.015 0 .782-.755 3.92-.087.36-.57 1.35-1.092 2.178-.888 1.395-2.623 1.777-2.623 1.777a3.425 3.425 0 0 0 2.975.203s-.37.685-1.524 1.719c0 0 .812.467 2.183.15a18.007 18.007 0 0 0 3.485 3.492s2.652 1.903 6.848 1.887c4.553-.017 6.742-2.208 6.742-2.208z"/>
        <path fill="#F4C458" fill-rule="nonzero" d="M16.448 11.298s-5.003 4.859-4.187 11.32c.898 7.11 8.672 8.168 8.672 8.168s-6.146.453-10.337-5.381c0 0-1.46.546-2.183-.15 0 0 1.305-.864 1.524-1.719 0 0-1.335.717-2.975-.203a4.832 4.832 0 0 0 2.948-2.338c1.603-2.838 1.543-7.42 6.538-9.697z"/>
        <path fill="#FFFBCC" fill-rule="nonzero" d="M24.813 11.121s5.784 4.633 5.252 11.123c-.588 7.142-8.886 8.531-8.886 8.531s6.16.204 10.093-5.81c0 0 1.485.487 2.176-.243 0 0-1.342-.812-1.598-1.651 0 0 1.366.658 2.965-.325a4.849 4.849 0 0 1-3.05-2.214c-1.725-2.763-1.864-7.345-6.952-9.41z"/>
        <path fill="#F4C458" fill-rule="nonzero" d="M14.147 12.967s-1.035-.798-2.214-1.625c-.923-.647-1.335-.658-1.546.09l1.172 4.391.969-.633.778-1.325.841-.898zM27.126 12.695s1.005-.843 2.141-1.714c.895-.687 1.307-.713 1.551.024l-.981 4.432-.996-.595-.828-1.29-.887-.857z"/>
        <path stroke="#44392E" stroke-linecap="round" stroke-linejoin="round" stroke-width=".5" d="M10.596 25.405c-1.371.317-2.183-.15-2.183-.15 1.154-1.034 1.524-1.719 1.524-1.719-.97.39-2.07.315-2.975-.203a4.508 4.508 0 0 0 2.948-2.338c.68-1.373 1.562-4.063 2.29-5.442 1.864-3.526 4.382-4.96 8.283-5.043 3.626-.075 6.67 1.243 8.697 4.688.79 1.34 1.787 3.997 2.527 5.34a4.52 4.52 0 0 0 3.048 2.212 3.43 3.43 0 0 1-2.966.327s.402.666 1.6 1.651c0 0-.792.5-2.175.242 0 0-3.44 5.671-10.188 5.812-6.748.14-10.43-5.377-10.43-5.377z"/>
        <path stroke="#44392E" stroke-linecap="round" stroke-linejoin="round" stroke-width=".5" d="M14.924 11.863s-2.15-1.613-2.73-2.054c-1.052-.798-2.118-.406-1.71 1.219l1.14 4.613M26.416 11.972s2.332-1.749 2.911-2.187c1.052-.8 2.119-.417 1.71 1.218-.268 1.087-1.13 4.634-1.13 4.634"/>
        <ellipse cx="14.039" cy="18.269" fill="#FFF" fill-rule="nonzero" stroke="#44392E" stroke-width=".5" rx="3.595" ry="3.526"/>
        <ellipse cx="14.062" cy="17.426" fill="#44392E" fill-rule="nonzero" stroke="#F930E7" stroke-width=".662" rx="2.114" ry="2.074"/>
        <ellipse cx="14.038" cy="15.996" fill="#FFF" fill-rule="nonzero" rx="1.035" ry="1.012" transform="rotate(-45.03 14.038 15.996)"/>
        <ellipse cx="27.513" cy="18.269" fill="#FFF" fill-rule="nonzero" stroke="#44392E" stroke-width=".5" rx="3.595" ry="3.526"/>
        <ellipse cx="27.534" cy="17.426" fill="#44392E" fill-rule="nonzero" stroke="#F930E7" stroke-width=".662" rx="2.114" ry="2.074"/>
        <ellipse cx="27.512" cy="15.997" fill="#FFF" fill-rule="nonzero" rx="1.035" ry="1.012" transform="rotate(-45.03 27.512 15.997)"/>
        <path fill="#44392E" fill-rule="nonzero" d="M22.83 24.454c0 1.188-.907 2.495-2.024 2.495-1.116 0-2.025-1.302-2.025-2.49l2.02-1.244 2.029 1.24z"/>
        <path fill="#F930E7" fill-rule="nonzero" d="M22.442 26.142a2.3 2.3 0 0 0-1.656-.678 2.298 2.298 0 0 0-1.642.709l1.656.707 1.642-.738z"/>
        <path stroke="#44392E" stroke-linecap="round" stroke-width=".5" d="M19.27 26.203c.147-.424.779-.745 1.536-.745.705 0 1.3.276 1.5.658"/>
        <path stroke="#FFF" stroke-linecap="round" stroke-linejoin="round" stroke-width="1.263" d="M20.664 23.814h.29"/>
        <path fill="#44392E" fill-rule="nonzero" d="M26.06 23.944a3.173 3.173 0 0 1-1.657.691 4.565 4.565 0 0 1-1.8-.132 3.59 3.59 0 0 1-1.616-.89 1.778 1.778 0 0 1-.49-.885 1.288 1.288 0 0 1-.028-.264v-.204l-.017-.422a.353.353 0 0 1 .343-.34.354.354 0 0 1 .368.314v.026l-.017.422v.204a.996.996 0 0 0 0 .158c.036.227.138.439.294.61.359.382.814.667 1.32.824a4.138 4.138 0 0 0 1.612.217 2.862 2.862 0 0 0 1.522-.528.136.136 0 0 1 .179.027.13.13 0 0 1-.009.176l-.004-.004z"/>
        <path fill="#44392E" fill-rule="nonzero" d="M15.961 23.751c.424.332.949.514 1.49.516a3.968 3.968 0 0 0 1.583-.282 2.751 2.751 0 0 0 1.23-.886c.134-.175.207-.39.207-.609 0-.264-.019-.555-.014-.83a.353.353 0 0 1 .355-.324c.186 0 .34.141.355.323 0 .285 0 .55-.017.847a1.632 1.632 0 0 1-.385.947 3.298 3.298 0 0 1-1.557.977 4.403 4.403 0 0 1-1.779.19 2.749 2.749 0 0 1-1.627-.7.12.12 0 0 1-.009-.17.125.125 0 0 1 .174-.009l-.006.01z"/>
        <path stroke="#44392E" stroke-linecap="round" stroke-width=".553" d="M22.83 24.647c0 1.11-.907 2.235-2.024 2.235-1.116 0-2.025-1.124-2.025-2.235"/>
        <path fill="#44392E" fill-rule="nonzero" d="M19.092 21.66a.4.4 0 0 1 .093-.425c.234-.232.737-.575 1.67-.583.93-.008 1.376.323 1.587.554a.4.4 0 0 1 .067.429.55.55 0 0 1-.479.327 1.042 1.042 0 0 0-.857.422.318.318 0 0 1-.048.057.459.459 0 0 1-.662-.036s-.19-.331-.895-.388a.543.543 0 0 1-.466-.358h-.01zM18.117 22.417a8.316 8.316 0 0 0-4.01.105 6.308 6.308 0 0 0-1.821.882 6.337 6.337 0 0 0-1.45 1.422 6.324 6.324 0 0 1 3.191-2.535 8.674 8.674 0 0 1 4.175-.354c.132.021.224.142.207.273a.239.239 0 0 1-.096.158.248.248 0 0 1-.182.045l-.014.004z"/>
        <path fill="#44392E" fill-rule="nonzero" d="M18.158 23a7.427 7.427 0 0 0-1.362.047c-.447.052-.878.19-1.27.406-.39.228-.712.553-.934.942-.222.4-.377.833-.46 1.282.044-.462.162-.913.35-1.339a2.75 2.75 0 0 1 .912-1.086 3.717 3.717 0 0 1 1.335-.56c.47-.102.948-.16 1.429-.174a.243.243 0 0 1 .256.229.242.242 0 0 1-.233.25l-.023.003zM23.387 21.938a8.674 8.674 0 0 1 4.172.353 6.347 6.347 0 0 1 3.191 2.535 6.337 6.337 0 0 0-1.45-1.422 6.308 6.308 0 0 0-1.822-.881 8.316 8.316 0 0 0-4.009-.106.246.246 0 0 1-.29-.187.24.24 0 0 1 .191-.282l.017-.01z"/>
        <path fill="#44392E" fill-rule="nonzero" d="M23.43 22.52c.48.015.959.072 1.429.173.479.098.933.289 1.335.56.395.278.709.653.91 1.087.188.426.307.877.352 1.34a4.244 4.244 0 0 0-.46-1.283 2.558 2.558 0 0 0-.934-.942 3.47 3.47 0 0 0-1.27-.406 7.427 7.427 0 0 0-1.362-.047.246.246 0 0 1-.217-.11.236.236 0 0 1-.012-.24.245.245 0 0 1 .206-.13l.023-.002z"/>
        <ellipse cx="20.071" cy="1.885" fill="#FFF" fill-rule="nonzero" rx="1.806" ry="1.771"/>
        <g transform="translate(18.843 .813)">
            <ellipse cx="1.174" cy="1.125" fill="#E6E6E6" fill-rule="nonzero" rx="1.124" ry="1.101"/>
            <path fill="#A0A0A0" fill-rule="nonzero" d="M1.992 1.739c-.418.156-.89.072-1.226-.22A1.03 1.03 0 0 1 .588.301C.068.664.093 1.519.445 1.863c.352.343 1.17.245 1.547-.124z"/>
            <path fill="#FFF" fill-rule="nonzero" d="M.57.422c.38-.154.813-.115 1.157.106.327.307.432.777.267 1.19.344-.337.452-1.058.102-1.4C1.746-.021.913.086.569.423z"/>
            <ellipse cx="1.276" cy="1.095" stroke="#44392E" stroke-linecap="round" stroke-linejoin="round" stroke-width=".5" rx="1.133" ry="1.07"/>
        </g>
        <path stroke="#44392E" stroke-linecap="round" stroke-linejoin="round" stroke-width=".5" d="M11.691 6.205c-4.73 2.844-7.825 7.908-7.7 13.61.188 8.661 7.713 15.527 16.805 15.336 9.093-.191 16.311-7.366 16.123-16.027-.189-8.661-7.476-15.326-16.806-15.326a2.003 2.003 0 0 1-1.424-.54 1.927 1.927 0 0 1-.61-1.373c0-1.048.746-1.842 1.953-1.842 11.472 0 20.597 8.273 20.831 19.006.234 10.733-8.713 19.628-19.984 19.866C9.609 39.152.282 30.64.048 19.906c-.17-7.77 4.468-14.572 11.318-17.83"/>
        <path fill="#FCDF35" fill-rule="nonzero" d="M13.946 4.843c.081.436.172.71.454.863-.274.079-.381.388-.454.794-.068-.376-.184-.713-.451-.798.25-.073.379-.404.451-.86z"/>
        <path fill="#45F0F4" fill-rule="nonzero" d="M15.696 2.978c.087.475.186.776.493.94-.296.088-.414.425-.493.87-.077-.407-.207-.776-.493-.87.273-.083.404-.445.493-.94z"/>
        <path fill="#EF52D1" fill-rule="nonzero" d="M13.818.043c.072.406.155.672.414.812-.25.075-.348.37-.414.756-.064-.356-.17-.675-.414-.756.23-.069.34-.384.414-.812z"/>
    </g>
</svg>
