<svg xmlns="http://www.w3.org/2000/svg" xmlns:xlink="http://www.w3.org/1999/xlink" width="42" height="42" viewBox="0 0 42 42">
    <defs>
        <path id="a" d="M6.381.534A9.52 9.52 0 0 1 9.535 0 9.535 9.535 0 1 1 0 9.535C0 8.347.217 7.21.614 6.16a2.51 2.51 0 0 0 4.354-2.147h.05A2.007 2.007 0 0 0 6.381.535z"/>
    </defs>
    <g fill="none" fill-rule="evenodd">
        <g>
            <ellipse cx="21" cy="20.971" fill="#FCF4DE" rx="21" ry="20.971"/>
            <ellipse cx="21" cy="30.75" fill="#E0C393" rx="10.25" ry="1.75"/>
        </g>
        <g transform="translate(11.76 11.5)">
            <mask id="b" fill="#fff">
                <use xlink:href="#a"/>
            </mask>
            <use fill="#E09F59" xlink:href="#a"/>
            <path stroke="#000" stroke-width="2" d="M10.204 18.61a9.535 9.535 0 0 0 9.534-9.535c0-5.266-4.269-11.638-9.534-11.638C4.938-2.563.669 3.809.669 9.075a9.535 9.535 0 0 0 9.535 9.534z" mask="url(#b)" style="mix-blend-mode:soft-light"/>
            <path stroke="#FFF0BE" stroke-linejoin="round" stroke-width="1.25" d="M6.923.84A8.567 8.567 0 0 1 9.994.46c5.266.335 8.863 4.269 8.863 9.535 0 5.265-3.597 9.534-8.863 9.534S-.453 15.586-.453 10.321c0-1.447.39-2.868 1.067-4.162.506.61 1.27.998 2.125.998 1.524 0 2.76-.865 2.76-2.39 0-.099-.006-.196-.016-.292C6.59 4.472 7.6 3.668 7.6 2.295c0-.706-.267-1.17-.676-1.456z" mask="url(#b)"/>
        </g>
        <path stroke="#5C411A" stroke-linejoin="round" stroke-width="1.25" d="M18.142 12.034a9.52 9.52 0 0 1 3.153-.534 9.535 9.535 0 1 1-9.534 9.535c0-1.188.217-2.325.614-3.374a2.51 2.51 0 0 0 4.354-2.147h.05a2.007 2.007 0 0 0 1.363-3.48z"/>
        <g transform="translate(8.75 17.522)">
            <circle cx="8.029" cy="4.015" r="1.004" fill="#5C411A"/>
            <circle cx="15.556" cy="1.505" r="1.505" fill="#5C411A"/>
            <circle cx="11.793" cy="9.785" r="1" fill="#5C411A"/>
            <circle cx="10.789" cy="1.756" r="1" fill="#5C411A"/>
            <circle cx="16.811" cy="6.775" r="1" fill="#5C411A"/>
            <path fill="#5C411A" d="M22.244 15.405c.416 0 .753-.068.753-.366s-.337-.573-.753-.573-.753.273-.753.573c0 .3.337.366.753.366zM7.995 17.37c.604 0 1.094-.102 1.094-.544 0-.442-.49-.851-1.094-.851-.605 0-1.095.406-1.095.851 0 .445.49.545 1.095.545z"/>
            <path fill="#C4631F" d="M.844 13.956c.466 0 .843-.079.843-.42 0-.34-.377-.656-.843-.656-.466 0-.844.313-.844.656s.378.42.844.42zM20.06 16.1c.399 0 .722-.067.722-.359 0-.291-.323-.561-.722-.561-.398 0-.72.268-.72.561 0 .294.322.359.72.359z"/>
        </g>
    </g>
</svg>
