<svg xmlns="http://www.w3.org/2000/svg"
  xmlns:xlink="http://www.w3.org/1999/xlink" width="1493.059" height="856" viewBox="0 0 1493.059 856">
  <defs>
    <clipPath id="clip-path">
      <path id="_Clipping_Path_" data-name="&lt;Clipping Path&gt;" d="M1117.4,735.9s20,86.8,123.8,86.8c0,0,130.3-1,130.4-132.4.1-110.9-119.1-119.2-119.1-119.2a400,400,0,0,1,99.1-63.4l1.3-.6c71.1-117.1,184.2-215.9,311.7-266,8.6-3.3,21.2-5,24.5,3.6a13,13,0,0,1-.2,10.4c-30.2,62.1-41.9,123.1-45.1,183.7h1c78-1.9,133.4,6.5,190.3,22.7,48,13.6,87.3,27.7,125.1,55.1l.4.3c35.2,8.6,79,35.1,102.6,47.2,21,10.8,38,18.8,61.5,21.3a9.8,9.8,0,0,1,7.2,15,194.1,194.1,0,0,1-43.4,48.3l-2.5,1.6,4.2,4.5c12.3,12.9,27.8,30.5,39.9,44.6s32.2,19.8,47.4,10.2c83-52,184.1-101.8,300.8-18.7a5.8,5.8,0,0,1-3.3,10.6c-90.5,2.1-172,49-226.5,117.3-66.3,99.9-10.9,213.5,11,255.1a4.9,4.9,0,0,1-6.6,6.7c-89.9-46.9-159.8-129.2-170.2-243.9a56.6,56.6,0,0,0-31.4-45.8c-12-5.8-21.7-10.8-36.8-14.9l-4.7-.8a428.982,428.982,0,0,0,10.1,46.3,6.2,6.2,0,0,1-8.8,7.2,150,150,0,0,1-61.9-59.1h-.1c-27.5-15.1-72-12.3-103.3-9.7l-4.1.2a55.1,55.1,0,0,1-13.2,14.9,138.5,138.5,0,0,1-25.3,16c-15.8,7.6-33.9,16.5-38.4,31.5-6.6,22-.1,42.6-2.3,62.6-2.6,22.7-18.7,40.1-56.6,61.8l11.1,40.9-40.6-8.4-7.4-.6-28.3,49.4-495.6,43.3-48.4-89.3,27.2-.6-6.5-2.7c-37.2,3.4-51.1-21.4-55.9-46.6s15.3-43.5,21.7-68.4c11.6-45.5,14.6-85.2,34.2-127.9" fill="none"/>
    </clipPath>
    <linearGradient id="linear-gradient" x1="0.717" y1="0.686" x2="-0.173" y2="0.249" gradientUnits="objectBoundingBox">
      <stop offset="0" stop-color="#fff"/>
      <stop offset="0.51" stop-color="#f7f8e5"/>
    </linearGradient>
    <linearGradient id="linear-gradient-2" x1="0.131" y1="0.794" x2="0.818" y2="0.373" gradientUnits="objectBoundingBox">
      <stop offset="0.08" stop-color="#c868ab"/>
      <stop offset="0.39" stop-color="#e384e9"/>
      <stop offset="0.58" stop-color="#dfa0f3"/>
      <stop offset="0.67" stop-color="#d198ea"/>
      <stop offset="0.84" stop-color="#b789db"/>
      <stop offset="0.88" stop-color="#ba96e1"/>
      <stop offset="0.95" stop-color="#c2b8f1"/>
      <stop offset="1" stop-color="#c8d5fe"/>
    </linearGradient>
    <linearGradient id="linear-gradient-3" x1="0.131" y1="0.106" x2="0.511" y2="0.951" gradientUnits="objectBoundingBox">
      <stop offset="0" stop-color="#fff"/>
      <stop offset="1" stop-color="#fff" stop-opacity="0"/>
    </linearGradient>
    <linearGradient id="linear-gradient-4" x1="0.555" y1="-0.045" x2="0.494" y2="0.864" xlink:href="#linear-gradient-3"/>
    <linearGradient id="linear-gradient-5" x1="0.469" y1="-0.023" x2="0.535" y2="0.868" xlink:href="#linear-gradient-3"/>
    <linearGradient id="linear-gradient-6" x1="0.205" y1="0.794" x2="1.082" y2="0.309" gradientUnits="objectBoundingBox">
      <stop offset="0" stop-color="#fff"/>
      <stop offset="0.52" stop-color="#fff" stop-opacity="0"/>
      <stop offset="1" stop-color="#fff" stop-opacity="0.89"/>
    </linearGradient>
    <clipPath id="clip-path-2">
      <ellipse id="_Ellipse_" data-name="&lt;Ellipse&gt;" cx="130.6" cy="126.4" rx="130.6" ry="126.4" transform="translate(1110.6 569.9)" fill="#fff" stroke="#31323d" stroke-linecap="round" stroke-miterlimit="10" stroke-width="12.5"/>
    </clipPath>
    <linearGradient id="linear-gradient-7" x1="0.5" y1="1.096" x2="0.5" y2="-0.095" gradientUnits="objectBoundingBox">
      <stop offset="0" stop-color="#ffffc4"/>
      <stop offset="0.49" stop-color="#35ff57"/>
      <stop offset="1" stop-color="#35ece5"/>
    </linearGradient>
    <clipPath id="clip-path-3">
      <path id="_Clipping_Path_2" data-name="&lt;Clipping Path&gt;" d="M1111.8,677a76.8,76.8,0,0,0-30.4-6.2,78.3,78.3,0,1,0,0,156.5h7.7s18.1-64.6,26.3-86.9c-1.3-15.4-7.2-34.2-4.4-53Z" fill="#fff" stroke="#31323d" stroke-linecap="round" stroke-miterlimit="10" stroke-width="12.5"/>
    </clipPath>
    <linearGradient id="linear-gradient-8" x1="0.501" y1="0.996" x2="0.501" y2="0.004" xlink:href="#linear-gradient-7"/>
  </defs>
  <g id="Items" transform="translate(-994.051 -231.441)">
    <g id="_01_Shark" data-name="01 Shark">
      <g id="clipping_mask" data-name="clipping mask">
        <g id="Group_10" data-name="Group 10" clip-path="url(#clip-path)">
          <g id="color">
            <path id="color_teeth" data-name="color teeth" d="M1205.1,899.3c-.3-.1,7.3,75.4-11.1,59.8-14.9-12.5-35.8-32.4-37.6-35.2-6.1-9.7,10.6,51.2,8.4,57.9-3.7,11.1-12.3,14.1-20.2,9.2-13.8-8.6-26.7-21.6-31.8-41,0,0,63.9-46.4,166.6-88s267.2-12,267.2-12,105.9,3.1,156.4,62.1c0,0,2.1,52.2-32.3,66.5,0,0-39.4-108-38.9-110.3-8.8,15.3-34.4,84.6-43.8,68.2-11-19.5-21-45.6-28-80.7-6.5,15.7-37,94.4-46.7,82.3-17.9-22.3-32.9-53.1-41.8-95.3-2.3-11-37.2,63.3-48.2,63.5-14,.3-30.1-59.3-37.5-61.2-3.5-.8-27.3,82-44,89.9-11.2,5.3-36-48.8-43.6-75.5-2.7-9.6-30.7,118.8-44,112.6C1222.2,957.1,1205.1,899.3,1205.1,899.3Z" fill="url(#linear-gradient)"/>
            <path id="base_color_04" data-name="base color 04" d="M1072.4,971.8s41.5,8.3,44.4,7.1c6.4-2.7-9.3-24.8-9.3-24.8s159.7-126.6,363.7-109.6,229,69,229,69l-1,27.5,545,180.5,67-29-12-247s239-119,242-118-49-83-49-83l-744-247s-35,8-47,4,43-169,43-169l-83-11-369,174-40,97-103,95-53,144s-68,159-67,162,24,101,24,101Z" fill="url(#linear-gradient-2)"/>
          </g>
          <g id="s">
            <path id="Path_148" data-name="Path 148" d="M1123.6,978.9c-103.7,24.6-310.1-248.3,25.9-406.4,0,0,324.7-117.4,283.9-88.4-54,38.3-171.9,161.5-173.9,216-3.1,82.4,79.4,33.7,44.4,121.9-11.4,28.7-93.4,36.3-140.1,10.3-28.4-15.8-32.4,11.7-31.1,41.5,1.7,38.7,42.8,29.9,50.6,32.5,16.9,5.6-11.7,0-48,28.5-1.6,9.6-23,10.6-23.8,16.7C1109.7,965.2,1129.3,977.5,1123.6,978.9Z" fill="#595959" opacity="0.3" style="mix-blend-mode: multiply;isolation: isolate"/>
            <path id="Path_149" data-name="Path 149" d="M1086.4,974.2s41.3,48.9,57.6,53.3c0,0,4.5-6.9,4.8-29.6l12.9-8.1s9.9,4.5,20.5,1.3c0,0,3.8-9.4,1.3-31.3,0,0,11.9,9.4,18.1,2.5,0,0,20.7,31.3,26.9,28.2s3.2-35.1,3.2-35.1,16.3,14.4,22.5,18.8,19.1,16.4,19.1,16.4,13.5,15.5,15.4-17,6.2-60.1,6.2-60.1,28.9,28.8,41.4,28.2,35.1-62.7,35.1-62.7l33.8,34.5s14.4,9.4,16.9-10c0,0,.5,13.4,6.1,12.1s27.1-31.6,27.1-31.6,12.5,37.6,20,46.4,11.9,5,23.2-5.7l12.9,12.2,30.9-32.2,3.2-5.6,19.2,28.9s9.2,13.1,15.8,6.1c0,0-1.2,21.3,9.4,15.7s25.7-21.3,31.4-36.3c0,0,13.1,59.5,41.3,52.6l8.8,14.4,15-10.7,20,13.8s10.1,1.3,5.1-10.6-11.3-25.1-11.3-25.1l-20.7,23.8-7.5,3.8-42.6-95.8-33.2,54.4-10.9-2.8-26.7-63.5-18.8,33.1L1516,929.8l-6.9.6-35-78.3H1459s-16.2,35.1-31.9,49.5c0,0-33.8-36.4-39.5-52l-9.4,1.9-33.8,78.9s-11.9-3.1-11.9-5.7-35.1-61.3-35.1-61.3l-6.8,5.6-23.2,73.3-5,21.3-4.4,7.5s-35.7-24.4-40.7-44.5l-9.4.7s1.9,29.4-8.2,32.5-25.6-18.1-25.6-18.1l-14.4-5.7s6.8,31.3,4.3,39.5c0,0-1.1,12.2-9.5,15.5s-30.3-15-30.3-15S1098.7,981.8,1086.4,974.2Z" fill="#595959" opacity="0.3" style="mix-blend-mode: multiply;isolation: isolate"/>
            <path id="Path_150" data-name="Path 150" d="M1429.4,838.7c-9-1-15,1-26.1-.7-5.8-23.3-4.9-53.9,17.8-68.3,37-23.5,65.4-27.2,107.4,16.1,29.1,29.9,39.2,34.4,37.4,67-.8,14.5-7-2-23.1-3-31.9-2-10.8,1.1-30.1-5-21-6.7-23.1,1-46.2-4.1A200.692,200.692,0,0,0,1429.4,838.7Z" fill="#595959" opacity="0.3" style="mix-blend-mode: multiply;isolation: isolate"/>
            <path id="Path_151" data-name="Path 151" d="M1438.4,614.1c-18.6,6.2-33.4,27.2-28.4,50.6s18.5,44.5,54.3,42,29.6-49.4,29.6-66.7S1469.9,603.6,1438.4,614.1Z" fill="#595959" opacity="0.3" style="mix-blend-mode: multiply;isolation: isolate"/>
            <path id="Path_152" data-name="Path 152" d="M1681.7,418.9s-82.8,48.2-93.9,164.3c0,0-2.4,81.5,82.8,45.7s165.5-130.9,189-203.8C1859.6,425.1,1776.8,346,1681.7,418.9Z" fill="#595959" opacity="0.3" style="mix-blend-mode: multiply;isolation: isolate"/>
            <ellipse id="Ellipse_22" data-name="Ellipse 22" cx="28.4" cy="22.5" rx="28.4" ry="22.5" transform="matrix(0.182, -0.983, 0.983, 0.182, 1475.131, 559.041)" fill="#595959" opacity="0.3" style="mix-blend-mode: multiply;isolation: isolate"/>
            <path id="Path_153" data-name="Path 153" d="M1694,292.9s-112.4,13.6-149.4,110c0,0-11.1,50.6,33.3,50.6s79.1-28.4,96.4-80.3S1694,292.9,1694,292.9Z" fill="#595959" opacity="0.3" style="mix-blend-mode: multiply;isolation: isolate"/>
            <path id="Path_154" data-name="Path 154" d="M1951,777.1a38.7,38.7,0,0,0-6.6-16h.4L1931.2,729s-51.9-13.6-69.2-44.5c0,0-75.3,9.9-158.1,53.1,0,0-37.5,27.2-140,8.6,0,0,9.1,55.6,89.4,35.9s100-30.9,116.1-27.2a170.2,170.2,0,0,0,47.1,3.6c-10.3,3.7-20.7,7.3-29.8,10-33.4,9.9-43.2,42-49.4,72.9s-22.3,0-26,11.1,13.1,53.2-4.9,38.3c-96.2-79.7-293.3-59-290.5-58.8,236.9,15.7,289.3,82.2,289.3,82.2s-4.6,9.8-2.3,27.1c1.4,10.4,16.7,21.4,38.1,13.5,56.8-21,75.3-76.4,72.9-119.6S1951,777.1,1951,777.1Z" fill="#595959" opacity="0.3" style="mix-blend-mode: multiply;isolation: isolate"/>
            <path id="Path_155" data-name="Path 155" d="M2006.5,752.4s5,53.1,42,79.1,9.9,148.2,50.7,168c0,0,13.6,4.9,9.9-71.7s-13.6-107.4,7.4-117.3S2111.5,798.1,2006.5,752.4Z" fill="#595959" opacity="0.3" style="mix-blend-mode: multiply;isolation: isolate"/>
            <path id="Path_156" data-name="Path 156" d="M1925,460.9s-63,40.8-33.3,118.6c22.6,59.4,81.5,73.5,148.9,26.5,1.4-1,25.1,25.2,26.5,24.1s22.1,26.4,19.7,18.6C2070.8,595.6,1980.6,499.2,1925,460.9Z" fill="#595959" opacity="0.3" style="mix-blend-mode: multiply;isolation: isolate"/>
            <path id="Path_157" data-name="Path 157" d="M2238.8,885.8s-38.3-16-71.7,5-54.3,107.4-1.2,188.9,132.1,56.9,126,6.2S2247.4,982.2,2238.8,885.8Z" fill="#595959" opacity="0.3" style="mix-blend-mode: multiply;isolation: isolate"/>
            <path id="Path_158" data-name="Path 158" d="M2179.5,682s-34.6,80.3,0,100.1,74.1-38.3,54.3-118.6Z" fill="#595959" opacity="0.3" style="mix-blend-mode: multiply;isolation: isolate"/>
            <path id="Path_159" data-name="Path 159" d="M1121.7,970.2s129.5-90.7,221.5-100.7,150-10,241,8,108,72,108,72l10.5-36.7s-36.1-69.2-264.1-73.2c0,0-122.9-7.3-240.9,60.7l-87.6,51.4Z" fill="#595959" opacity="0.3" style="mix-blend-mode: multiply;isolation: isolate"/>
            <path id="Path_160" data-name="Path 160" d="M1671.1,747.4s-65.3-30-22.7-57.2,91.7-1.8,109.8,22.7l-58.9,25.4Z" fill="#595959" opacity="0.3" style="mix-blend-mode: multiply;isolation: isolate"/>
          </g>
          <g id="h">
            <path id="Path_161" data-name="Path 161" d="M1076.5,971.2s11.3,30.5,6.7,32.2c-26.2,9.5-81,7.8-1.7-222.9s342.1-291.6,342.1-291.6c-140.2,51.3-260.3,216.7-297.8,271.6s-6.9,103.6-32.2,122.7,4.8,60.7,17.2,72.3c4.2,3.9,6.1,6.9,7.8,16.5,3.3,18.8-33.8,1.5-33.8,1.5Z" fill="#fff" opacity="0.8" style="mix-blend-mode: overlay;isolation: isolate"/>
            <path id="Path_162" data-name="Path 162" d="M1301.6,501.8s44.2,54.3,53.3,83.8,30.6,56.6-27.2,91.7-75.9,185.8-43,185.8c6.7,0,90.1-37.6,218.7-16.2,0,0-8.1-92.5-64.7-137.9s-60-83.8-62.3-106.4-10.9-92.7-44.9-107.5S1301.6,501.8,1301.6,501.8Z" opacity="0.8" fill="url(#linear-gradient-3)" style="mix-blend-mode: overlay;isolation: isolate"/>
            <path id="Path_163" data-name="Path 163" d="M1565.6,743.1s82.3-2.5,150.2-37.1c74.5-37.9,181.6-49.5,203.1-43.9,0,0-3.3,13-27.1,17.5s-142.7,35.1-168.8,52.1S1622.5,761.8,1565.6,743.1Z" fill="#fff" opacity="0.8" style="mix-blend-mode: overlay;isolation: isolate"/>
            <path id="Path_164" data-name="Path 164" d="M1718.5,603.7s68,38.5-36.2,143.9a148.7,148.7,0,0,0,52.1-19.3c26-15.9,60-22.6,60-22.6s-58.9-32.9,1.1-89.5C1795.5,616.2,1783.1,604.8,1718.5,603.7Z" opacity="0.8" fill="url(#linear-gradient-4)" style="mix-blend-mode: overlay;isolation: isolate"/>
            <path id="Path_165" data-name="Path 165" d="M1351.5,509.7l17.1-8.9s104.2-127.6,272.6-244C1641.2,256.8,1470.4,294.5,1351.5,509.7Z" fill="#fff" opacity="0.8" style="mix-blend-mode: overlay;isolation: isolate"/>
            <path id="Path_166" data-name="Path 166" d="M1641.5,445.1s-33-191.7,61-208.7C1702.5,236.4,1677.7,376,1641.5,445.1Z" fill="#fff" opacity="0.8" style="mix-blend-mode: overlay;isolation: isolate"/>
            <path id="Path_167" data-name="Path 167" d="M1641.5,451.9s220.9,13.6,309.2,104.2,168.5,175,197.9,159.1a73.5,73.5,0,0,0,48.1,2.3c26.1-8,60.6-18.2,71.4-22.7,19.4-8.2,148.2-49.2,251.3,24.4,0,0-37.4-167.6-327.4-57.7l-70.2,26L2008.5,561.8S1860.1,417.9,1641.5,451.9Z" fill="#fff" opacity="0.8" style="mix-blend-mode: overlay;isolation: isolate"/>
            <path id="Path_168" data-name="Path 168" d="M2436.7,721.5c5.5-1.2-92.9-15.8-155.2,34s-156.3,207.3-27.2,384l53.2-43S2116.1,790.6,2436.7,721.5Z" fill="#fff" opacity="0.8" style="mix-blend-mode: overlay;isolation: isolate"/>
            <path id="Path_169" data-name="Path 169" d="M2025.5,848.4s-47.1-49.8-49.4-88.3-2.7-45.4,23.3-12.5,32.9,66.8,32.9,66.8Z" fill="#fff" opacity="0.8" style="mix-blend-mode: overlay;isolation: isolate"/>
            <path id="Path_170" data-name="Path 170" d="M1956.4,475.7s-86.1-3.4-61.2,51,120.1,96.3,122.3,279.8c0,0,44.2-9.1,43.1-102s-34-120.1-34-120.1l-57.8-67.9Z" opacity="0.8" fill="url(#linear-gradient-5)" style="mix-blend-mode: overlay;isolation: isolate"/>
            <path id="Path_171" data-name="Path 171" d="M1698.7,776s35.6,14.9,39.3,35.1C1738,811.1,1755.2,771.5,1698.7,776Z" fill="#fff" opacity="0.8" style="mix-blend-mode: overlay;isolation: isolate"/>
            <path id="Path_172" data-name="Path 172" d="M1665.5,794.7s59.1,29.1,62.8,49.3C1728.3,844,1738.2,785.7,1665.5,794.7Z" fill="#fff" opacity="0.8" style="mix-blend-mode: overlay;isolation: isolate"/>
            <path id="Path_173" data-name="Path 173" d="M1622.2,844s51.5,23.1,71,37.3,26.4,14.3,27.6,10.5C1725.5,877.6,1651.3,838.7,1622.2,844Z" fill="#fff" opacity="0.8" style="mix-blend-mode: overlay;isolation: isolate"/>
            <path id="Path_174" data-name="Path 174" d="M2088.4,1023.9s57-178.5,141-31.5l18-124.5s-18-67.5,1.5-105,7.5-115.4-19.5-131.9-70.5,109.4-51,163.4,19.5,69,13.5,87-43.5,52.5-117-6Z" opacity="0.8" fill="url(#linear-gradient-6)" style="mix-blend-mode: overlay;isolation: isolate"/>
            <path id="Path_175" data-name="Path 175" d="M1940.6,751.9s-19.4-12.9-92-9c0,0-6.5,22-15.6,25.9,0,0-53.2,7.8-63.5,20.7s-23.4,23.4-23.4,55.8-9.1,77.8-41.5,73.9l-2.4,25.8,56.9,22.2,112.8-172.5Z" fill="#fff" opacity="0.8" style="mix-blend-mode: overlay;isolation: isolate"/>
            <path id="Path_176" data-name="Path 176" d="M1342.4,466.1s119.4-7.2,172.6-40.3,92.9-36.3,99.3-35.9,37.4,0,48.9,27.3c0,0-2.9-79.1,21.6-106.5,0,0-92.1,56.1-141,61.9s-105-1.4-146.8,17.3S1342.4,466.1,1342.4,466.1Z" fill="#fff" opacity="0.4" style="mix-blend-mode: overlay;isolation: isolate"/>
          </g>
        </g>
      </g>
      <g id="outlines">
        <path id="Path_177" data-name="Path 177" d="M1117.4,735.9c-19.6,42.7-22.6,82.4-34.2,127.9-6.4,24.9-26.5,43.2-21.7,68.4s18.7,50,55.9,46.6" fill="none" stroke="#31323d" stroke-linecap="round" stroke-miterlimit="10" stroke-width="12.5"/>
        <path id="Path_178" data-name="Path 178" d="M1550.2,735.2l6.4,2.5,3.5,1.1a40.006,40.006,0,0,0,4.1,1.2l5,1.3,5.7,1.2,1.5.3,1.6.3,3.3.5,7,1,7.7.7,2,.2h2l4.3.3,8.8.2c3.1,0,6.2.1,9.4-.1,6.4,0,13.2-.5,20.1-1.2,3.5-.3,7.1-.8,10.7-1.3l5.3-.9,5.7-1.1a218.206,218.206,0,0,0,22.5-5.7,237.281,237.281,0,0,0,23.1-8.9l11.8-5.4,3-1.4,1.6-.7,1.6-.7,6.1-2.8a516.3,516.3,0,0,1,52.8-19.4c18.2-5.7,36.9-10.8,55.5-15.8l55.4-14.4,6.8-1.9,1.7-.4.9-.3h-.1l.4-.2h.1l.2-.2v-.4c0-.1,0-.2-.1-.2h0a.1.1,0,0,0-.1-.1h0c.2.1-.1-.1-.1-.1h-.2l-.3-.3-2.8-2-2.6-1.7-2.7-1.8-2.8-1.7c-3.8-2.2-7.7-4.2-11.6-6.2a179.518,179.518,0,0,0-23.5-9.7l-1.4-.4-1.6-.5-3.1-.9-6.1-1.9-11.9-3.4c-15.8-4.5-30.8-8.4-44.7-11.5s-26.8-5.6-38.3-7.4l-16-2.6-13.6-2.3-5.9-1.1-5.1-1-8.2-1.6c-4.4-1-6.7-1.7-6.7-1.7h-.1a2.5,2.5,0,0,1-1.7-3.1,2.8,2.8,0,0,1,2.2-1.9l7-.4c4.5-.2,11.2-.3,19.7.1a292.293,292.293,0,0,1,30.4,3.1c11.7,1.8,24.8,4.1,39.1,7.1s29.5,6.8,45.5,11.1l12.2,3.4,6.1,1.8,3.1.9,1.6.4,1.7.5c4.4,1.4,8.6,3,12.9,4.7s8.4,3.7,12.6,5.7,8.4,4.2,12.5,6.6l3.1,1.9,3.1,1.9,3.1,2.1,2.9,2.1.8.6,1.2,1.1a4.3,4.3,0,0,1,1.1,1.2,6.9,6.9,0,0,1,1.1,1.3,15.1,15.1,0,0,1-1.6,18.5l-1.2,1.2-1.4,1-.8.5-1,.5-.9.4-.4.2h-.6l-.7.2-.9.2-1.7.5-6.9,1.9c-18.3,5-37,9.6-55.5,14.4s-37,9.8-54.9,15.3-35.4,11.4-51.6,18.3l-6.2,2.7-1.4.6-1.5.7-3.1,1.4-12.1,5.3a213.831,213.831,0,0,1-24.5,9.1c-4,1.3-8.1,2.4-12.1,3.4l-6,1.3-6,1.2-5.7.9-5.8.9-11.3,1.1c-7.4.5-14.5.7-21.2.5-3.3,0-6.6-.2-9.8-.4l-9.2-.8a149.4,149.4,0,0,1-16.6-2.5c-2.6-.5-5-.9-7.3-1.5l-3.4-.9-1.6-.4-1.6-.5-5.9-1.8-5-1.9c-1.6-.5-3-1.3-4.4-1.8l-3.6-1.7-6-3.3a2.5,2.5,0,0,1-1-3.4,2.4,2.4,0,0,1,3.1-1.1Z" fill="#31323d"/>
        <path id="Path_179" data-name="Path 179" d="M1248.4,566.3l6.8-5.9c1.1-1,2.2-2,3.6-3.1s2.8-2.4,4.4-3.7l5-4,5.7-4.4,6.3-4.6,6.8-4.7,3.6-2.5,3.7-2.4,7.8-4.9c5.3-3.2,10.8-6.6,16.6-9.6s11.7-6.1,17.6-9.1,12-5.5,18.1-8,12-4.8,17.9-6.9c2.9-1.1,5.8-2,8.6-2.9l4.3-1.4,4.1-1.2,8-2.2,7.5-1.8,7-1.6,6.3-1.2,5.6-.9,4.7-.7,9-1.1a2.6,2.6,0,0,1,2.8,2.3,2.5,2.5,0,0,1-1.7,2.6h-.1l-8.5,2.8-4.5,1.3-5.3,1.8-6,1.9-6.5,2.3c-4.6,1.5-9.6,3.3-14.8,5.2l-3.9,1.5-4,1.5-8.3,3.3c-5.5,2.3-11.3,4.6-17.1,7.3s-11.5,5.4-17.3,8.2-11.4,5.9-16.9,9.1-10.8,6.3-16,9.3l-7.4,4.8-3.7,2.3-3.4,2.3-6.7,4.6-6.1,4.3-5.6,4.1-4.9,3.7-4.3,3.3c-1.4,1-2.6,2.1-3.7,3l-7,5.6a6.3,6.3,0,0,1-8.1-9.6Z" fill="#31323d"/>
        <path id="Path_180" data-name="Path 180" d="M1347.6,503.8l4-6.4,4.8-7.7,3-4.9c.6-.8,1.1-1.7,1.7-2.6l1.9-2.9,8.7-12.7,5-7.2,5.6-7.5,6-8,3.1-4.1,3.4-4.2c4.5-5.6,9.3-11.6,14.4-17.7l16.3-18.6,18.3-19.2,9.9-9.7,10.2-9.8,10.8-9.7,5.5-4.9,2.7-2.5,2.9-2.3,11.5-9.6,5.9-4.9,6.1-4.6,12.2-9.3,3.1-2.4,3.2-2.2,6.4-4.5,12.9-9,13.3-8.5,6.7-4.2c2.2-1.5,4.6-2.7,6.8-4.1l13.8-8,3.4-2,3.5-1.9,7.1-3.7,7-3.7,3.5-1.8,3.5-1.8,14.4-6.7,7.1-3.4,7.2-3,14.4-6,1.8-.8.9-.3.5-.2.5-.2.9-.4h.5l.6-.2,2.2-.7a43.4,43.4,0,0,1,9-1.6,25.8,25.8,0,0,1,10.3,1.4l2.8,1.3a16.4,16.4,0,0,1,2.6,2l1.2,1.1,1.1,1.4a15.6,15.6,0,0,1,1.6,2.8l.3.7.3.6v.3l.2.4c.1.2.1.5.2.8a19.2,19.2,0,0,1,.6,8.3,14.993,14.993,0,0,1-.6,2.9c-.2.4-.3.9-.5,1.4l-.3.7-.3.6-1.5,3.3-3.2,6.6-1.5,3.3-1.4,3.3c-.9,2.2-1.9,4.3-2.8,6.5l-1.4,3.2-1.2,3.2c-3.5,8.7-6.6,17.2-9.4,25.6a421.277,421.277,0,0,0-12.9,48.3c-3.2,15.2-5.3,29.3-6.8,41.8-.3,3.2-.7,6.2-1,9.1s-.5,5.8-.8,8.5q-.7,8.3-1.5,15c-1,9-2,16.2-2.8,21s-1.5,7.5-1.5,7.5h0a2.6,2.6,0,0,1-3.1,1.8,2.5,2.5,0,0,1-1.9-2s-.5-2.6-1.1-7.6a90.6,90.6,0,0,1-.8-9.1c-.1-1.8-.2-3.7-.3-5.8s0-2.1-.1-3.2v-3.4c.1-4.6.2-9.7.7-15.3.2-2.8.4-5.7.7-8.7s.6-6.1.9-9.3c1.5-12.9,3.5-27.3,6.6-43a469.5,469.5,0,0,1,12.8-49.8c2.8-8.7,6-17.6,9.5-26.6.4-1.1.8-2.2,1.3-3.3a34.477,34.477,0,0,1,1.4-3.4c.9-2.3,1.9-4.5,2.9-6.8s.9-2.3,1.4-3.4,1-2.2,1.6-3.3,2-4.5,3.1-6.7l1.5-3.3v-.3h.1c0-.1.1-.3.1-.4a1.9,1.9,0,0,0,.1-.8,5.4,5.4,0,0,0,0-1.8,2.9,2.9,0,0,0-.2-.9h0v-.4h0c0-.1,0-.1-.1-.1s-.1-.4-.2-.4-.1-.1-.1-.2h-.1l-.4-.3-.6-.3a14.7,14.7,0,0,0-4.6-.4,27.3,27.3,0,0,0-6,1.1l-1.4.4h-.3l-.5.2-.9.3h-.2c-.2.1,0,0-.1,0l-.4.2-.9.4-1.7.7-14,5.9-7.1,3-6.9,3.4-14,6.6-3.4,1.7-3.4,1.9-6.9,3.6-6.9,3.6-3.4,1.8-3.3,2-13.5,7.8c-2.2,1.3-4.5,2.6-6.6,4l-6.5,4.2-13.1,8.3-12.6,8.8-6.2,4.3-3.1,2.2-3.1,2.3-12,9.1-5.9,4.6-5.8,4.7-11.3,9.3-2.8,2.3-2.7,2.4-5.4,4.8-10.6,9.5c-6.8,6.4-13.4,12.8-19.8,19l-18,18.6L1419.7,427c-5,6-9.7,11.8-14.3,17.2l-3.3,4.1c-1,1.4-2.1,2.7-3.1,4l-5.9,7.8-5.6,7.3-4.9,7-8.6,12.2-1.9,2.7-1.7,2.6c-1.1,1.7-2.2,3.4-3.2,4.8-1.9,3-3.5,5.6-4.9,7.6-2.6,4.2-4.1,6.4-4.1,6.4a6.228,6.228,0,0,1-10.5-6.7Z" fill="#31323d"/>
        <path id="Path_181" data-name="Path 181" d="M1846.2,687c11.2,30,7.4,68.1-17.7,87.9a138.5,138.5,0,0,1-25.3,16c-15.8,7.6-33.9,16.5-38.4,31.5-6.6,22-.1,42.6-2.3,62.6-2.6,22.7-18.7,40.1-56.6,61.8" fill="none" stroke="#31323d" stroke-linecap="round" stroke-miterlimit="10" stroke-width="12.5"/>
        <path id="Path_182" data-name="Path 182" d="M1845.8,759.8c31.3-2.6,75.8-5.4,103.3,9.7" fill="none" stroke="#31323d" stroke-linecap="round" stroke-miterlimit="10" stroke-width="12.5"/>
        <path id="Path_183" data-name="Path 183" d="M1934.4,722.3s.4.8,1,2.4.7,1.8,1.1,3,.8,2.5,1.4,3.9,2.4,6.2,4.2,10.1c.9,1.9,1.7,4,2.8,6.1l1.5,3.3a8.907,8.907,0,0,1,.8,1.7l.9,1.7,1.9,3.5c.6,1.2,1.2,2.4,1.9,3.6l2.1,3.7,1.1,1.9a18.8,18.8,0,0,0,1.2,1.8l2.4,3.8a21.366,21.366,0,0,0,1.3,1.9l1.3,1.8,2.8,3.8c.9,1.3,2,2.5,3,3.8s2,2.5,3.1,3.7l3.4,3.6,1.7,1.8,1.7,1.8,3.6,3.5c1.2,1.2,2.6,2.3,3.8,3.4l1.9,1.7,1,.8,1,.8c2.7,2.1,5.3,4.3,8.1,6.2l4.2,2.9,4.4,2.8,2.1,1.3,2.2,1.2,4.5,2.5.5.3-.4-.2h.8c.1,0-.1,0-.1-.1h-1.2a.4.4,0,0,0-.1.3.6.6,0,0,0-.1.4c-.1,0,0,.1,0,.1h0c0-.2-.1-.4-.1-.6s-.9-3.3-1.3-5c-1.7-6.7-3.2-13.1-4.4-19.2s-2.2-12-3-17.4a149.281,149.281,0,0,1-1.6-14.9,112.682,112.682,0,0,1-.1-11.5c.1-3.2.4-5.7.6-7.4s.4-2.7.4-2.7a2.5,2.5,0,0,1,3-2,2.4,2.4,0,0,1,2,1.6h0l.8,2.5c.5,1.7,1.3,4,2,7.1s1.7,6.7,2.6,10.9,1.8,9,2.8,14.3,2.1,10.8,3.5,16.7,3,12.1,4.7,18.4c.5,1.6.9,3.3,1.4,4.9l.2.6.3,1.3a24.576,24.576,0,0,1,.2,2.8,13.9,13.9,0,0,1-1.4,5.3,14.4,14.4,0,0,1-3.4,4.3,12.9,12.9,0,0,1-4.9,2.6,13.7,13.7,0,0,1-5.7.3l-1.7-.4-.8-.3h-.8l-.6-.3-.6-.3-4.9-2.6-2.5-1.4-2.4-1.5-4.8-2.9-4.6-3.3c-3.1-2.1-5.9-4.6-8.9-6.9l-1-.9-1.1-.9-2-1.9-4.1-3.8-3.9-3.9a18.006,18.006,0,0,0-1.9-2l-1.8-2.1-3.5-4c-1.1-1.4-2.2-2.9-3.3-4.2l-3.1-4.2-2.9-4.2-1.4-2.1a23.835,23.835,0,0,1-1.3-2.1c-.9-1.4-1.7-2.8-2.5-4.2l-1.3-2.1a12.8,12.8,0,0,0-1.1-2l-2.1-4.1c-1.4-2.7-2.5-5.4-3.6-8s-1-2.6-1.5-3.8-.8-2.5-1.3-3.7-1.4-4.8-2-7a95.808,95.808,0,0,1-2.2-11.6,9.7,9.7,0,0,1-.3-2.3c-.1-.7-.1-1.3-.2-1.9a27.3,27.3,0,0,0-.2-3.2v-2.6a2.4,2.4,0,0,1,2.5-2.6,2.5,2.5,0,0,1,2.3,1.8Z" fill="#31323d"/>
        <path id="Path_184" data-name="Path 184" d="M1644.8,438.8c78-1.9,133.4,6.5,190.3,22.7s101.8,33,146.4,72.1c40.8,35.8,71.3,81.8,108.7,121.2,12.3,12.9,27.8,30.5,39.9,44.6s32.2,19.8,47.4,10.2c83-52,184.1-101.8,300.8-18.7a5.8,5.8,0,0,1-3.3,10.6c-90.5,2.1-172,49-226.5,117.3-66.3,99.9-10.9,213.5,11,255.1a4.9,4.9,0,0,1-6.6,6.7c-89.9-46.9-159.8-129.2-170.2-243.9a56.6,56.6,0,0,0-31.4-45.8c-12-5.8-21.7-10.8-36.8-14.9" fill="none" stroke="#31323d" stroke-linecap="round" stroke-miterlimit="10" stroke-width="12.5"/>
        <path id="Path_185" data-name="Path 185" d="M1960.6,516.9c35.2,8.6,79,35.1,102.6,47.2,21,10.8,38,18.8,61.5,21.3a9.8,9.8,0,0,1,7.2,15,194.1,194.1,0,0,1-43.4,48.3" fill="none" stroke="#31323d" stroke-linecap="round" stroke-miterlimit="10" stroke-width="12.5"/>
        <path id="Path_186" data-name="Path 186" d="M1108.3,950c9.5,20,22.7,33.2,44.3,42.1a8.2,8.2,0,0,0,11.2-7.4c.6-24.2-3.7-36.8-7.9-60.3" fill="none" stroke="#31323d" stroke-linecap="round" stroke-miterlimit="10" stroke-width="12.5"/>
        <path id="Path_187" data-name="Path 187" d="M1159.4,923.1a94.4,94.4,0,0,0,38.2,39,5.8,5.8,0,0,0,8.6-4.3,196.7,196.7,0,0,0-.1-56.3" fill="none" stroke="#31323d" stroke-linecap="round" stroke-miterlimit="10" stroke-width="12.5"/>
        <path id="Path_188" data-name="Path 188" d="M1206.1,901.5c5.4,25.8,25.8,53.1,47.9,67.4a5.9,5.9,0,0,0,8.8-3.1c11.8-36.8,17-73.5,39.5-111.3" fill="none" stroke="#31323d" stroke-linecap="round" stroke-miterlimit="10" stroke-width="12.5"/>
        <path id="Path_189" data-name="Path 189" d="M1299,860.2c5.5,20.9,23.5,50.3,39.6,68.8a5.9,5.9,0,0,0,9.8-1.6q16.6-39.9,37.1-78" fill="none" stroke="#31323d" stroke-linecap="round" stroke-miterlimit="10" stroke-width="12.5"/>
        <path id="Path_190" data-name="Path 190" d="M1385.6,841.3c8,19.7,22.2,43.2,36.9,59a5.9,5.9,0,0,0,9-.5c13.2-17.5,28-40.5,37.3-59" fill="none" stroke="#31323d" stroke-linecap="round" stroke-miterlimit="10" stroke-width="12.5"/>
        <path id="Path_191" data-name="Path 191" d="M1475.3,849.6a340.209,340.209,0,0,0,32.9,83.4,5.8,5.8,0,0,0,9.4,1.1,178,178,0,0,0,42.2-75.1" fill="none" stroke="#31323d" stroke-linecap="round" stroke-miterlimit="10" stroke-width="12.5"/>
        <path id="Path_192" data-name="Path 192" d="M1558.9,862.3c4.9,12.4,25.3,72.5,30.3,73.7s39-50.8,42-67.2" fill="none" stroke="#31323d" stroke-linecap="round" stroke-miterlimit="10" stroke-width="12.5"/>
        <path id="Path_193" data-name="Path 193" d="M1630.4,874.7c6.7,15.3,29,74.2,38,97.9a6.8,6.8,0,0,0,11.5,2.1c10-11.6,25.7-35.4,21.5-67.7" fill="none" stroke="#31323d" stroke-linecap="round" stroke-miterlimit="10" stroke-width="12.5"/>
        <path id="Path_194" data-name="Path 194" d="M1092.3,945.9l4.7-.5,4.7-.9a70.192,70.192,0,0,0,9-2.4,44.705,44.705,0,0,0,7.9-3.4c2.6-1.6,5.1-3.5,7.8-5.5l8.1-6.6a51.477,51.477,0,0,1,4.5-3.2l2.4-1.6,2.3-1.4c6.1-3.7,12.3-7,18.5-10.2,12.4-6.4,24.8-12.5,37.4-18.5s25.1-11.8,37.7-17.5,25.4-11.2,38.2-16.7c6.4-2.6,12.8-5.3,19.4-7.8s13.4-4.8,20.3-6.8c27.4-7.8,55.7-10.8,83.7-11.4,14-.3,28-.1,41.9.5l20.9,1.1,10.4.6c3.5.3,7,.5,10.4.9,27.9,2.4,55.4,6.7,82.8,11.3l20.4,3.5c6.8,1.2,13.6,2.3,20.6,3.7a245.093,245.093,0,0,1,40.9,11.9,183.9,183.9,0,0,1,38,20,145.713,145.713,0,0,1,16.8,13.7,148.293,148.293,0,0,1,14.6,16.1,6.3,6.3,0,0,1-9.9,7.7h0a122.2,122.2,0,0,0-13.4-14.4,131.81,131.81,0,0,0-15.6-12.3,174.1,174.1,0,0,0-35.4-18.2,224.3,224.3,0,0,0-38.7-10.8c-6.5-1.3-13.5-2.3-20.3-3.5l-20.4-3.4c-27.2-4.4-54.4-8.5-81.6-10.8-13.6-1.2-27.4-2-41.1-2.6s-27.3-.8-41-.5c-27.2.6-54.3,3.4-80.2,10.6-6.5,1.8-12.8,3.9-19.1,6.3s-12.7,4.9-19,7.6c-12.7,5.2-25.4,10.7-38,16.3s-25.1,11.2-37.6,17-25,11.8-37.2,18c-6.1,3.1-12.1,6.2-17.9,9.6l-2.1,1.3-2,1.2-3.9,2.8-8.1,6.4a70.686,70.686,0,0,1-9.2,6.3,14.818,14.818,0,0,1-1.3.8l-1.5.7-1.4.6-1.5.5c-.9.4-1.9.6-2.8.9l-2.9.6a39.7,39.7,0,0,1-11.4.5,25.4,25.4,0,0,1-11.2-3.3,2.6,2.6,0,0,1-.9-3.5,2.5,2.5,0,0,1,2-1.3Z" fill="#31323d"/>
        <path id="Path_195" data-name="Path 195" d="M1666.5,792.6h.9l2.6.4,1.8.3,2.3.5,2.5.7,2.7.8,2.9,1,3.1,1.2,3.2,1.5,3.3,1.6c2.1,1.2,4.4,2.4,6.6,3.9s2.2,1.4,3.2,2.2l3.2,2.4a73.371,73.371,0,0,1,6,5.1c1.9,1.8,3.7,3.7,5.3,5.5a58.066,58.066,0,0,1,4.5,5.6l1.9,2.7,1.7,2.6,1.4,2.4a17.105,17.105,0,0,1,1.2,2.3c.4.7.7,1.4,1,2a15.933,15.933,0,0,0,.8,1.8,25.5,25.5,0,0,0,1,2.5l.3.9a2.6,2.6,0,0,1-1.6,3.3,2.5,2.5,0,0,1-2.6-.6h-.1l-.6-.6-1.9-1.8c-.7-.8-1.7-1.7-2.7-2.7l-3.6-3.6-4.2-4-2.4-2.2-2.4-2.3-5.2-4.5-5.5-4.5-2.9-2.2-2.8-2.2-5.6-4-5.4-3.6-2.6-1.7-2.4-1.5-2.2-1.4-2-1.2-1.8-1.1a6.5,6.5,0,0,0-1.6-.9l-2.2-1.4-.8-.5a2.6,2.6,0,0,1-.8-3.5,2.7,2.7,0,0,1,2.5-1.2Z" fill="#31323d"/>
        <path id="Path_196" data-name="Path 196" d="M1698.3,774.8h3.7l1.6.3,1.8.3,1.9.5a41.388,41.388,0,0,1,4.3,1.3l2.2.9,2.3,1.1a43.1,43.1,0,0,1,4.7,2.6l2.3,1.5,2.2,1.7a47.254,47.254,0,0,1,4.1,3.7c1.3,1.2,2.4,2.6,3.6,3.9a27.836,27.836,0,0,1,2.9,4.1l1.2,1.9c.3.7.7,1.3,1,1.9a14.174,14.174,0,0,1,.8,1.8c.2.6.5,1.2.7,1.7a21.322,21.322,0,0,1,.9,2.7,14.9,14.9,0,0,1,.6,2.5,2.6,2.6,0,0,1-2.1,3.1,3,3,0,0,1-2.1-.5h-.1l-1.8-1.5-4.5-4.1-2.9-2.6-1.5-1.4-1.7-1.4-3.4-3-3.6-3-1.8-1.4-1.8-1.5-3.6-2.7-3.5-2.5-1.6-1.2-1.6-1.1-1.4-1-1.3-.9-1.1-.8-1-.7-1.5-1.1a1.1,1.1,0,0,1-.5-.4,2.6,2.6,0,0,1-.5-3.7,2.8,2.8,0,0,1,2.1-1Z" fill="#31323d"/>
      </g>
      <g id="Eyes4">
        <ellipse id="_Ellipse_2" data-name="&lt;Ellipse&gt;" cx="130.6" cy="126.4" rx="130.6" ry="126.4" transform="translate(1110.6 569.9)" fill="#fff"/>
        <g id="Group_11" data-name="Group 11" clip-path="url(#clip-path-2)">
          <ellipse id="Ellipse_23" data-name="Ellipse 23" cx="77.8" cy="65.2" rx="77.8" ry="65.2" transform="matrix(0.096, -0.995, 0.995, 0.096, 1107.516, 738.064)" fill="url(#linear-gradient-7)"/>
          <ellipse id="Ellipse_24" data-name="Ellipse 24" cx="49.3" cy="41.3" rx="49.3" ry="41.3" transform="matrix(0.096, -0.995, 0.995, 0.096, 1134.037, 711.986)" fill="#31323d"/>
          <circle id="Ellipse_25" data-name="Ellipse 25" cx="29.5" cy="29.5" r="29.5" transform="translate(1193.5 596.8)" fill="#fff"/>
        </g>
        <ellipse id="_Ellipse_3" data-name="&lt;Ellipse&gt;" cx="130.6" cy="126.4" rx="130.6" ry="126.4" transform="translate(1110.6 569.9)" fill="none" stroke="#31323d" stroke-linecap="round" stroke-miterlimit="10" stroke-width="12.5"/>
        <path id="_Clipping_Path_3" data-name="&lt;Clipping Path&gt;" d="M1111.8,677a76.8,76.8,0,0,0-30.4-6.2,78.3,78.3,0,1,0,0,156.5h7.7s18.1-64.6,26.3-86.9c-1.3-15.4-7.2-34.2-4.4-53Z" fill="#fff"/>
        <g id="Group_12" data-name="Group 12" clip-path="url(#clip-path-3)">
          <ellipse id="Ellipse_26" data-name="Ellipse 26" cx="35.7" cy="42.6" rx="35.7" ry="42.6" transform="translate(983.376 712.318) rotate(-13.9)" fill="url(#linear-gradient-8)"/>
          <ellipse id="Ellipse_27" data-name="Ellipse 27" cx="22.6" cy="27" rx="22.6" ry="27" transform="translate(999.84 724.314) rotate(-13.9)" fill="#31323d"/>
          <circle id="Ellipse_28" data-name="Ellipse 28" cx="16.2" cy="16.2" r="16.2" transform="translate(1026.5 700.4)" fill="#fff"/>
        </g>
        <path id="_Clipping_Path_4" data-name="&lt;Clipping Path&gt;" d="M1111.8,677a76.8,76.8,0,0,0-30.4-6.2,78.3,78.3,0,1,0,0,156.5h7.7s18.1-64.6,26.3-86.9c-1.3-15.4-7.2-34.2-4.4-53Z" fill="none" stroke="#31323d" stroke-linecap="round" stroke-miterlimit="10" stroke-width="12.5"/>
      </g>
    </g>
  </g>
</svg>
