<svg xmlns="http://www.w3.org/2000/svg" xmlns:xlink="http://www.w3.org/1999/xlink" viewBox="0 0 3000 3000"><defs><clipPath id="clip-path"><path id="_Compound_Clipping_Path_" data-name="&lt;Compound Clipping Path&gt;" d="M1888.8,1021.5c-25.7-6.9-97.9-24.9-155-27.4-141.5-3.1-193.8,44.6-215.3,58.4-7.8,5-18.5,8.8-29,11.7a205.6,205.6,0,0,1-53.5,6.9h-12.1a206.4,206.4,0,0,1-53.6-6.9c-10.4-2.9-21.1-6.7-28.9-11.7-21.5-13.8-73.8-61.5-215.3-58.4-57.1,2.5-129.3,20.5-155,27.4a12.8,12.8,0,0,0-9.5,12.4v26.2a12.9,12.9,0,0,0,4.6,9.9c5.7,4.7,15.3,16.3,21.5,44,9.2,41.6,20,142.3,66.1,173.8s130.4,31.5,130.4,31.5,74.2,2.4,105.7-26.1,62.9-88.7,76.1-120.7c11.9-28.8,17.9-43.8,40.8-43.8h46.3c22.9,0,28.9,15,40.8,43.8,13.2,32,44.6,92.3,76.1,120.7s105.7,26.1,105.7,26.1,84.2,0,130.4-31.5,56.9-132.2,66.1-173.8c6.2-27.7,15.8-39.3,21.5-44a12.9,12.9,0,0,0,4.6-9.9v-26.2A12.8,12.8,0,0,0,1888.8,1021.5Zm-594.3,236.3c-31.5,39.2-100.7,41.6-179.9,26.9s-83.8-109.9-92.3-173.7,83.1-77.7,157.6-75.4c0,0,129.2,10.8,149.2,59.5S1326,1218.6,1294.5,1257.8ZM1837.6,1111c-8.5,63.8-13.1,159.1-92.3,173.7s-148.4,12.3-179.9-26.9-54.6-113.9-34.6-162.7,149.1-59.5,149.1-59.5C1754.5,1033.3,1846,1047.1,1837.6,1111Z" fill="#595959" opacity="0.4" style="mix-blend-mode:multiply"/></clipPath><linearGradient id="linear-gradient" x1="961.56" y1="1137.67" x2="1898.33" y2="1137.67" gradientUnits="userSpaceOnUse"><stop offset="0.09" stop-color="#fff" stop-opacity="0"/><stop offset="0.43" stop-color="#fff" stop-opacity="0"/><stop offset="0.45" stop-color="#fbfefb" stop-opacity="0.05"/><stop offset="0.51" stop-color="#e6fce6" stop-opacity="0.27"/><stop offset="0.57" stop-color="#d3f9d3" stop-opacity="0.46"/><stop offset="0.64" stop-color="#c3f7c3" stop-opacity="0.63"/><stop offset="0.7" stop-color="#b7f6b7" stop-opacity="0.76"/><stop offset="0.77" stop-color="#adf5ad" stop-opacity="0.87"/><stop offset="0.84" stop-color="#a6f4a6" stop-opacity="0.94"/><stop offset="0.91" stop-color="#a1f3a1" stop-opacity="0.99"/><stop offset="1" stop-color="#a0f3a0"/></linearGradient><linearGradient id="linear-gradient-2" x1="1179.17" y1="1274.01" x2="1179.17" y2="1016.38" gradientUnits="userSpaceOnUse"><stop offset="0.05" stop-color="#f5fbc2"/><stop offset="0.32" stop-color="#9f6"/><stop offset="0.61" stop-color="#63ef86"/><stop offset="1" stop-color="#2bb673"/></linearGradient><linearGradient id="linear-gradient-3" x1="1680.72" y1="1274.01" x2="1680.72" y2="1016.38" xlink:href="#linear-gradient-2"/><clipPath id="clip-path-2"><path id="_Compound_Clipping_Path_2" data-name="&lt;Compound Clipping Path&gt;" d="M1888.8,1002.5c-25.7-6.9-97.9-24.9-155-27.4-141.5-3.1-193.8,44.6-215.3,58.4-7.8,5-18.5,8.8-29,11.7a205.6,205.6,0,0,1-53.5,6.9h-12.1a206.4,206.4,0,0,1-53.6-6.9c-10.4-2.9-21.1-6.7-28.9-11.7-21.5-13.8-73.8-61.5-215.3-58.4-57.1,2.5-129.3,20.5-155,27.4a12.8,12.8,0,0,0-9.5,12.4v26.2a12.9,12.9,0,0,0,4.6,9.9c5.7,4.7,15.3,16.3,21.5,44,9.2,41.6,20,142.3,66.1,173.8s130.4,31.5,130.4,31.5,74.2,2.4,105.7-26.1,62.9-88.7,76.1-120.7c11.9-28.8,17.9-43.8,40.8-43.8h46.3c22.9,0,28.9,15,40.8,43.8,13.2,32,44.6,92.3,76.1,120.7s105.7,26.1,105.7,26.1,84.2,0,130.4-31.5,56.9-132.2,66.1-173.8c6.2-27.7,15.8-39.3,21.5-44a12.9,12.9,0,0,0,4.6-9.9v-26.2A12.8,12.8,0,0,0,1888.8,1002.5Zm-594.3,236.3c-31.5,39.2-100.7,41.6-179.9,26.9s-83.8-109.9-92.3-173.7,83.1-77.7,157.6-75.4c0,0,129.2,10.8,149.2,59.5S1326,1199.6,1294.5,1238.8ZM1837.6,1092c-8.5,63.8-13.1,159.1-92.3,173.7s-148.4,12.3-179.9-26.9-54.6-113.9-34.6-162.7,149.1-59.5,149.1-59.5C1754.5,1014.3,1846,1028.1,1837.6,1092Z" fill="none" clip-path="url(#clip-path)"/></clipPath><linearGradient id="linear-gradient-4" x1="1617.47" y1="1146.18" x2="1909.57" y2="1146.18" gradientUnits="userSpaceOnUse"><stop offset="0" stop-color="#fff"/><stop offset="0.41" stop-color="#fff" stop-opacity="0"/></linearGradient><linearGradient id="linear-gradient-5" x1="1168.69" y1="1167.67" x2="1316.3" y2="989.1" xlink:href="#linear-gradient-4"/><linearGradient id="linear-gradient-6" x1="1675.76" y1="1169.24" x2="1831.77" y2="980.51" xlink:href="#linear-gradient-4"/><linearGradient id="linear-gradient-7" x1="1023.41" y1="1190.17" x2="1200.63" y2="1055.26" gradientUnits="userSpaceOnUse"><stop offset="0" stop-color="#fff"/><stop offset="0.41" stop-color="#fff" stop-opacity="0"/><stop offset="0.54" stop-color="#fff" stop-opacity="0"/></linearGradient><linearGradient id="linear-gradient-8" x1="1535.15" y1="1200.46" x2="1692.8" y2="1066.46" gradientUnits="userSpaceOnUse"><stop offset="0" stop-color="#fff"/><stop offset="0.52" stop-color="#fff" stop-opacity="0"/><stop offset="0.72" stop-color="#fff" stop-opacity="0"/></linearGradient></defs><title>kittyitems05.3</title><g style="isolation:isolate"><g id="EXPORT_SQUARE"><rect width="3000" height="3000" fill="none"/></g><g id="Items"><g id="_05Glasses" data-name="05Glasses"><g id="color03.1"><g id="lens_frame" data-name="lens frame"><path id="_Compound_Clipping_Path_4" data-name="&lt;Compound Clipping Path&gt;" d="M1888.8,1002.5c-25.7-6.9-97.9-24.9-155-27.4-141.5-3.1-193.8,44.6-215.3,58.4-7.8,5-18.5,8.8-29,11.7a205.6,205.6,0,0,1-53.5,6.9h-12.1a206.4,206.4,0,0,1-53.6-6.9c-10.4-2.9-21.1-6.7-28.9-11.7-21.5-13.8-73.8-61.5-215.3-58.4-57.1,2.5-129.3,20.5-155,27.4a12.8,12.8,0,0,0-9.5,12.4v26.2a12.9,12.9,0,0,0,4.6,9.9c5.7,4.7,15.3,16.3,21.5,44,9.2,41.6,20,142.3,66.1,173.8s130.4,31.5,130.4,31.5,74.2,2.4,105.7-26.1,62.9-88.7,76.1-120.7c11.9-28.8,17.9-43.8,40.8-43.8h46.3c22.9,0,28.9,15,40.8,43.8,13.2,32,44.6,92.3,76.1,120.7s105.7,26.1,105.7,26.1,84.2,0,130.4-31.5,56.9-132.2,66.1-173.8c6.2-27.7,15.8-39.3,21.5-44a12.9,12.9,0,0,0,4.6-9.9v-26.2A12.8,12.8,0,0,0,1888.8,1002.5Zm-594.3,236.3c-31.5,39.2-100.7,41.6-179.9,26.9s-83.8-109.9-92.3-173.7,83.1-77.7,157.6-75.4c0,0,129.2,10.8,149.2,59.5S1326,1199.6,1294.5,1238.8ZM1837.6,1092c-8.5,63.8-13.1,159.1-92.3,173.7s-148.4,12.3-179.9-26.9-54.6-113.9-34.6-162.7,149.1-59.5,149.1-59.5C1754.5,1014.3,1846,1028.1,1837.6,1092Z" fill="#2bb673"/><path id="_Compound_Clipping_Path_5" data-name="&lt;Compound Clipping Path&gt;" d="M1888.8,1002.5c-25.7-6.9-97.9-24.9-155-27.4-141.5-3.1-193.8,44.6-215.3,58.4-7.8,5-18.5,8.8-29,11.7a205.6,205.6,0,0,1-53.5,6.9h-12.1a206.4,206.4,0,0,1-53.6-6.9c-10.4-2.9-21.1-6.7-28.9-11.7-21.5-13.8-73.8-61.5-215.3-58.4-57.1,2.5-129.3,20.5-155,27.4a12.8,12.8,0,0,0-9.5,12.4v26.2a12.9,12.9,0,0,0,4.6,9.9c5.7,4.7,15.3,16.3,21.5,44,9.2,41.6,20,142.3,66.1,173.8s130.4,31.5,130.4,31.5,74.2,2.4,105.7-26.1,62.9-88.7,76.1-120.7c11.9-28.8,17.9-43.8,40.8-43.8h46.3c22.9,0,28.9,15,40.8,43.8,13.2,32,44.6,92.3,76.1,120.7s105.7,26.1,105.7,26.1,84.2,0,130.4-31.5,56.9-132.2,66.1-173.8c6.2-27.7,15.8-39.3,21.5-44a12.9,12.9,0,0,0,4.6-9.9v-26.2A12.8,12.8,0,0,0,1888.8,1002.5Zm-594.3,236.3c-31.5,39.2-100.7,41.6-179.9,26.9s-83.8-109.9-92.3-173.7,83.1-77.7,157.6-75.4c0,0,129.2,10.8,149.2,59.5S1326,1199.6,1294.5,1238.8ZM1837.6,1092c-8.5,63.8-13.1,159.1-92.3,173.7s-148.4,12.3-179.9-26.9-54.6-113.9-34.6-162.7,149.1-59.5,149.1-59.5C1754.5,1014.3,1846,1028.1,1837.6,1092Z" opacity="0.4" fill="url(#linear-gradient)"/></g><g id="len_copy_6" data-name="len copy 6"><path d="M1294.5,1238.8c-31.5,39.2-100.7,41.6-179.9,26.9s-83.8-109.9-92.3-173.7,83.1-77.7,157.6-75.4c0,0,129.2,10.8,149.2,59.5S1326,1199.6,1294.5,1238.8Z" opacity="0.9" fill="url(#linear-gradient-2)"/><path d="M1837.6,1092c-8.5,63.8-13.1,159.1-92.3,173.7s-148.4,12.3-179.9-26.9-54.6-113.9-34.6-162.7,149.1-59.5,149.1-59.5C1754.5,1014.3,1846,1028.1,1837.6,1092Z" opacity="0.9" fill="url(#linear-gradient-3)"/></g></g><g id="S"><path id="_Compound_Clipping_Path_6" data-name="&lt;Compound Clipping Path&gt;" d="M1888.8,1021.5c-25.7-6.9-97.9-24.9-155-27.4-141.5-3.1-193.8,44.6-215.3,58.4-7.8,5-18.5,8.8-29,11.7a205.6,205.6,0,0,1-53.5,6.9h-12.1a206.4,206.4,0,0,1-53.6-6.9c-10.4-2.9-21.1-6.7-28.9-11.7-21.5-13.8-73.8-61.5-215.3-58.4-57.1,2.5-129.3,20.5-155,27.4a12.8,12.8,0,0,0-9.5,12.4v26.2a12.9,12.9,0,0,0,4.6,9.9c5.7,4.7,15.3,16.3,21.5,44,9.2,41.6,20,142.3,66.1,173.8s130.4,31.5,130.4,31.5,74.2,2.4,105.7-26.1,62.9-88.7,76.1-120.7c11.9-28.8,17.9-43.8,40.8-43.8h46.3c22.9,0,28.9,15,40.8,43.8,13.2,32,44.6,92.3,76.1,120.7s105.7,26.1,105.7,26.1,84.2,0,130.4-31.5,56.9-132.2,66.1-173.8c6.2-27.7,15.8-39.3,21.5-44a12.9,12.9,0,0,0,4.6-9.9v-26.2A12.8,12.8,0,0,0,1888.8,1021.5Zm-594.3,236.3c-31.5,39.2-100.7,41.6-179.9,26.9s-83.8-109.9-92.3-173.7,83.1-77.7,157.6-75.4c0,0,129.2,10.8,149.2,59.5S1326,1218.6,1294.5,1257.8ZM1837.6,1111c-8.5,63.8-13.1,159.1-92.3,173.7s-148.4,12.3-179.9-26.9-54.6-113.9-34.6-162.7,149.1-59.5,149.1-59.5C1754.5,1033.3,1846,1047.1,1837.6,1111Z" fill="#595959" opacity="0.4" style="mix-blend-mode:multiply"/><g clip-path="url(#clip-path-2)"><path d="M1368.2,1158.8c-6.9-5,3.4-29.7,5.6-35.7,5.3-14.2,10-24.3,24.5-28.7,22.1-6.6,44.1-9.9,64.9-.2s26.7,29,30.3,49c2,11.4,5.9,24.3,3.8,35.9s-11.6,17.5-21.9,20.7c-12.7,3.9-25.9,5.3-39.2,5.6-5.4.2-13.9-1.4-18.6,1.6l1.2,1.8" fill="#595959" opacity="0.4" style="mix-blend-mode:multiply"/></g></g><g id="H"><g clip-path="url(#clip-path-2)"><path d="M1704.2,857.5c51.8,1.2,98.5,13.1,143.9,38.1,23.4,12.9,102.6,80,107.1,109.9,6.8,46.1-117.3-2.6-142.2-3.9-57.2-3.2-129.8-15.5-187.2-4.5-35.8,6.9-53.5,21.3-86.6,35.6-29.2,12.6-57.4,31.4-89.5,32.8-55.6,2.3-89.8-8.2-135-29-23.1-10.6-43.7-24.2-67.9-32.4-26.5-8.9-59.4-13.6-87.1-14.6-38-1.4-74.9,6.8-112.6,13-24.5,4-48.8,11.3-73.3,13.8-6.6.7-29.6,4.9-32.6,1.2L936.7,986" fill="#fff" opacity="0.7" style="mix-blend-mode:overlay"/><path d="M1911.2,1045.5c-13.3-17.7-33.5,7.3-39,18.6-12.3,25.2-14.2,51.9-22,78.3-6.7,22.9-15.6,46.9-18.1,70.7-.9,8.3-4.6,26.3-1,33.4s14.9,7.5,22.4,6.9c22.3-1.7,31-14.1,40.7-32.9" fill="#fff" opacity="0.7" style="mix-blend-mode:overlay"/><polygon points="1617.5 908.4 1743.5 1383.9 1887.1 1376.9 1909.6 913.5 1617.5 908.4" opacity="0.35" fill="url(#linear-gradient-4)"/></g><path d="M1212.8,1020.3c125.2,16.9,123.8,80.4,123.8,80.4h0c-9.9,181.1-109.9,167.5-109.9,167.5,8.2-178.4-119.3-247.8-119.3-247.8S1162.8,1013.5,1212.8,1020.3Z" opacity="0.3" fill="url(#linear-gradient-5)" style="mix-blend-mode:overlay"/><path d="M1715.4,1018.2c117.9,3,122.7,55.9,122.7,55.9v26.6c-9.9,181.1-109.8,167.5-109.8,167.5,8.1-178.4-112.3-239.8-112.3-239.8S1664.9,1017,1715.4,1018.2Z" opacity="0.3" fill="url(#linear-gradient-6)" style="mix-blend-mode:overlay"/><path d="M1071.3,1057s-31.8,14.3-35.6,30c-1.7,6.9,7.2,132.1,50.1,156,0,0-37.1-42.5-29-138.1C1058.6,1083.6,1060.7,1073.3,1071.3,1057Z" opacity="0.5" fill="url(#linear-gradient-7)" style="mix-blend-mode:overlay"/><path d="M1581.2,1071.6s-23.9,3.1-36,23.8c-10.8,18.6,2.8,126.8,50.6,153.4,0,0-37.2-33.8-29.1-129.3C1568.5,1098.2,1570.6,1087.8,1581.2,1071.6Z" opacity="0.5" fill="url(#linear-gradient-8)" style="mix-blend-mode:overlay"/></g><g id="Outline"><path d="M1179.9,1016.6c-74.5-2.3-166.1,11.5-157.6,75.4s13.1,159.1,92.3,173.7,148.4,12.3,179.9-26.9,54.6-113.9,34.6-162.7S1179.9,1016.6,1179.9,1016.6Z" fill="none" stroke="#31323d" stroke-linecap="round" stroke-miterlimit="10" stroke-width="8"/><path d="M1453.1,1109.7c22.9,0,28.9,15,40.8,43.8,13.2,32,44.6,92.3,76.1,120.7s105.7,26.1,105.7,26.1,84.2,0,130.4-31.5,56.9-132.2,66.1-173.8c6.2-27.7,15.8-39.3,21.5-44a12.9,12.9,0,0,0,4.6-9.9v-26.2a12.8,12.8,0,0,0-9.5-12.4c-25.7-6.9-97.9-24.9-155-27.4-141.5-3.1-193.8,44.6-215.3,58.4-7.8,5-18.5,8.8-29,11.7a205.6,205.6,0,0,1-53.5,6.9h-12.1a206.4,206.4,0,0,1-53.6-6.9c-10.4-2.9-21.1-6.7-28.9-11.7-21.5-13.8-73.8-61.5-215.3-58.4-57.1,2.5-129.3,20.5-155,27.4a12.8,12.8,0,0,0-9.5,12.4v26.2a12.9,12.9,0,0,0,4.6,9.9c5.7,4.7,15.3,16.3,21.5,44,9.2,41.6,20,142.3,66.1,173.8s130.4,31.5,130.4,31.5,74.2,2.4,105.7-26.1,62.9-88.7,76.1-120.7c11.9-28.8,17.9-43.8,40.8-43.8Z" fill="none" stroke="#31323d" stroke-linecap="round" stroke-miterlimit="10" stroke-width="10"/><path d="M1679.9,1016.6c74.6-2.3,166.1,11.5,157.7,75.4s-13.1,159.1-92.3,173.7-148.4,12.3-179.9-26.9-54.6-113.9-34.6-162.7S1679.9,1016.6,1679.9,1016.6Z" fill="none" stroke="#31323d" stroke-linecap="round" stroke-miterlimit="10" stroke-width="8"/></g></g></g></g></svg>