<svg xmlns="http://www.w3.org/2000/svg"
  xmlns:xlink="http://www.w3.org/1999/xlink" width="946.7" height="349.395" viewBox="0 0 946.7 349.395">
  <defs>
    <linearGradient id="linear-gradient" y1="0.5" x2="1" y2="0.5" gradientUnits="objectBoundingBox">
      <stop offset="0.09" stop-color="#fff" stop-opacity="0"/>
      <stop offset="0.43" stop-color="#fff" stop-opacity="0"/>
      <stop offset="0.45" stop-color="#fbfefb" stop-opacity="0.051"/>
      <stop offset="0.51" stop-color="#e6fce6" stop-opacity="0.271"/>
      <stop offset="0.57" stop-color="#d3f9d3" stop-opacity="0.459"/>
      <stop offset="0.64" stop-color="#c3f7c3" stop-opacity="0.631"/>
      <stop offset="0.7" stop-color="#b7f6b7" stop-opacity="0.761"/>
      <stop offset="0.77" stop-color="#adf5ad" stop-opacity="0.871"/>
      <stop offset="0.84" stop-color="#a6f4a6" stop-opacity="0.941"/>
      <stop offset="0.91" stop-color="#a1f3a1" stop-opacity="0.988"/>
      <stop offset="1" stop-color="#a0f3a0"/>
    </linearGradient>
    <linearGradient id="linear-gradient-2" x1="0.5" y1="1" x2="0.5" gradientUnits="objectBoundingBox">
      <stop offset="0.05" stop-color="#f5fbc2"/>
      <stop offset="0.32" stop-color="#9f6"/>
      <stop offset="0.61" stop-color="#63ef86"/>
      <stop offset="1" stop-color="#2bb673"/>
    </linearGradient>
    <linearGradient id="linear-gradient-3" x1="0.5" y1="1" x2="0.5" y2="0" xlink:href="#linear-gradient-2"/>
    <clipPath id="clip-path">
      <path id="Intersection_5" data-name="Intersection 5" d="M1184.2,1300.3s-84.3,0-130.4-31.5-56.9-132.2-66.1-173.8c-6.2-27.7-15.8-39.3-21.5-44a12.9,12.9,0,0,1-4.6-9.9v-7.2a12.8,12.8,0,0,1,9.5-12.4c25.7-6.9,97.9-24.9,155-27.4,141.5-3.1,193.8,44.6,215.3,58.4,7.8,5,18.5,8.8,28.9,11.7a206.384,206.384,0,0,0,53.6,6.9H1436a205.578,205.578,0,0,0,53.5-6.9c10.5-2.9,21.2-6.7,29-11.7,21.5-13.8,73.8-61.5,215.3-58.4,57.1,2.5,129.3,20.5,155,27.4a12.8,12.8,0,0,1,9.5,12.332v7.268a12.9,12.9,0,0,1-4.6,9.9c-5.7,4.7-15.3,16.3-21.5,44-9.2,41.6-19.9,142.3-66.1,173.8s-130.4,31.5-130.4,31.5-74.2,2.3-105.7-26.1-62.9-88.7-76.1-120.7c-11.9-28.8-17.9-43.8-40.8-43.8h-46.3c-22.9,0-28.9,15-40.8,43.8-13.2,32-44.6,92.2-76.1,120.7-26.961,24.393-85.2,26.15-101.426,26.15C1185.742,1300.35,1184.2,1300.3,1184.2,1300.3ZM1022.3,1111c8.5,63.8,13.1,159,92.3,173.7s148.4,12.3,179.9-26.9c25.044-31.166,44.778-84.834,41.765-130,1.147-18.534-.883-36.406-7.165-51.7-20-48.7-149.2-59.5-149.2-59.5-74.5-2.3-166.1,11.6-157.6,75.4q.121.911.242,1.832A55.329,55.329,0,0,0,1022.3,1111Zm543.1,146.8c31.5,39.2,100.7,41.5,179.9,26.9s83.8-109.9,92.3-173.7a55.556,55.556,0,0,0-.25-17.107c.083-.633.166-1.266.25-1.893,8.4-63.9-83.1-77.7-157.7-75.4,0,0-129.1,10.7-149.1,59.5-6.282,15.327-8.312,33.21-7.165,51.745C1520.622,1173.033,1540.356,1226.634,1565.4,1257.8Z" fill="none"/>
    </clipPath>
    <linearGradient id="linear-gradient-4" y1="0.5" x2="1" y2="0.5" gradientUnits="objectBoundingBox">
      <stop offset="0" stop-color="#fff"/>
      <stop offset="0.41" stop-color="#fff" stop-opacity="0"/>
    </linearGradient>
    <linearGradient id="linear-gradient-5" x1="0.267" y1="0.599" x2="0.911" y2="-0.112" xlink:href="#linear-gradient-4"/>
    <linearGradient id="linear-gradient-6" x1="0.269" y1="0.604" x2="0.971" y2="-0.15" xlink:href="#linear-gradient-4"/>
    <linearGradient id="linear-gradient-7" x1="-0.241" y1="0.716" x2="3.283" y2="-0.009" gradientUnits="objectBoundingBox">
      <stop offset="0" stop-color="#fff"/>
      <stop offset="0.41" stop-color="#fff" stop-opacity="0"/>
      <stop offset="0.54" stop-color="#fff" stop-opacity="0"/>
    </linearGradient>
    <linearGradient id="linear-gradient-8" x1="-0.121" y1="0.727" x2="2.793" y2="-0.029" gradientUnits="objectBoundingBox">
      <stop offset="0" stop-color="#fff"/>
      <stop offset="0.52" stop-color="#fff" stop-opacity="0"/>
      <stop offset="0.72" stop-color="#fff" stop-opacity="0"/>
    </linearGradient>
  </defs>
  <g id="Items" transform="translate(-956.6 -969.955)">
    <g id="_05Glasses" data-name="05Glasses">
      <g id="color03.1">
        <g id="lens_frame" data-name="lens frame">
          <path id="_Compound_Clipping_Path_" data-name="&lt;Compound Clipping Path&gt;" d="M1888.8,1002.5c-25.7-6.9-97.9-24.9-155-27.4-141.5-3.1-193.8,44.6-215.3,58.4-7.8,5-18.5,8.8-29,11.7a205.6,205.6,0,0,1-53.5,6.9h-12.1a206.407,206.407,0,0,1-53.6-6.9c-10.4-2.9-21.1-6.7-28.9-11.7-21.5-13.8-73.8-61.5-215.3-58.4-57.1,2.5-129.3,20.5-155,27.4a12.8,12.8,0,0,0-9.5,12.4v26.2a12.9,12.9,0,0,0,4.6,9.9c5.7,4.7,15.3,16.3,21.5,44,9.2,41.6,20,142.3,66.1,173.8s130.4,31.5,130.4,31.5,74.2,2.4,105.7-26.1,62.9-88.7,76.1-120.7c11.9-28.8,17.9-43.8,40.8-43.8h46.3c22.9,0,28.9,15,40.8,43.8,13.2,32,44.6,92.3,76.1,120.7s105.7,26.1,105.7,26.1,84.2,0,130.4-31.5,56.9-132.2,66.1-173.8c6.2-27.7,15.8-39.3,21.5-44a12.9,12.9,0,0,0,4.6-9.9v-26.2A12.8,12.8,0,0,0,1888.8,1002.5Zm-594.3,236.3c-31.5,39.2-100.7,41.6-179.9,26.9s-83.8-109.9-92.3-173.7,83.1-77.7,157.6-75.4c0,0,129.2,10.8,149.2,59.5S1326,1199.6,1294.5,1238.8ZM1837.6,1092c-8.5,63.8-13.1,159.1-92.3,173.7s-148.4,12.3-179.9-26.9-54.6-113.9-34.6-162.7,149.1-59.5,149.1-59.5C1754.5,1014.3,1846,1028.1,1837.6,1092Z" fill="#2bb673"/>
          <path id="_Compound_Clipping_Path_2" data-name="&lt;Compound Clipping Path&gt;" d="M1888.8,1002.5c-25.7-6.9-97.9-24.9-155-27.4-141.5-3.1-193.8,44.6-215.3,58.4-7.8,5-18.5,8.8-29,11.7a205.6,205.6,0,0,1-53.5,6.9h-12.1a206.407,206.407,0,0,1-53.6-6.9c-10.4-2.9-21.1-6.7-28.9-11.7-21.5-13.8-73.8-61.5-215.3-58.4-57.1,2.5-129.3,20.5-155,27.4a12.8,12.8,0,0,0-9.5,12.4v26.2a12.9,12.9,0,0,0,4.6,9.9c5.7,4.7,15.3,16.3,21.5,44,9.2,41.6,20,142.3,66.1,173.8s130.4,31.5,130.4,31.5,74.2,2.4,105.7-26.1,62.9-88.7,76.1-120.7c11.9-28.8,17.9-43.8,40.8-43.8h46.3c22.9,0,28.9,15,40.8,43.8,13.2,32,44.6,92.3,76.1,120.7s105.7,26.1,105.7,26.1,84.2,0,130.4-31.5,56.9-132.2,66.1-173.8c6.2-27.7,15.8-39.3,21.5-44a12.9,12.9,0,0,0,4.6-9.9v-26.2A12.8,12.8,0,0,0,1888.8,1002.5Zm-594.3,236.3c-31.5,39.2-100.7,41.6-179.9,26.9s-83.8-109.9-92.3-173.7,83.1-77.7,157.6-75.4c0,0,129.2,10.8,149.2,59.5S1326,1199.6,1294.5,1238.8ZM1837.6,1092c-8.5,63.8-13.1,159.1-92.3,173.7s-148.4,12.3-179.9-26.9-54.6-113.9-34.6-162.7,149.1-59.5,149.1-59.5C1754.5,1014.3,1846,1028.1,1837.6,1092Z" opacity="0.4" fill="url(#linear-gradient)"/>
        </g>
        <g id="len_copy_6" data-name="len copy 6">
          <path id="Path_223" data-name="Path 223" d="M1294.5,1238.8c-31.5,39.2-100.7,41.6-179.9,26.9s-83.8-109.9-92.3-173.7,83.1-77.7,157.6-75.4c0,0,129.2,10.8,149.2,59.5S1326,1199.6,1294.5,1238.8Z" opacity="0.9" fill="url(#linear-gradient-2)"/>
          <path id="Path_224" data-name="Path 224" d="M1837.6,1092c-8.5,63.8-13.1,159.1-92.3,173.7s-148.4,12.3-179.9-26.9-54.6-113.9-34.6-162.7,149.1-59.5,149.1-59.5C1754.5,1014.3,1846,1028.1,1837.6,1092Z" opacity="0.9" fill="url(#linear-gradient-3)"/>
        </g>
      </g>
      <g id="S">
        <path id="_Compound_Clipping_Path_3" data-name="&lt;Compound Clipping Path&gt;" d="M1888.8,1021.5c-25.7-6.9-97.9-24.9-155-27.4-141.5-3.1-193.8,44.6-215.3,58.4-7.8,5-18.5,8.8-29,11.7a205.6,205.6,0,0,1-53.5,6.9h-12.1a206.4,206.4,0,0,1-53.6-6.9c-10.4-2.9-21.1-6.7-28.9-11.7-21.5-13.8-73.8-61.5-215.3-58.4-57.1,2.5-129.3,20.5-155,27.4a12.8,12.8,0,0,0-9.5,12.4v26.2a12.9,12.9,0,0,0,4.6,9.9c5.7,4.7,15.3,16.3,21.5,44,9.2,41.6,20,142.3,66.1,173.8s130.4,31.5,130.4,31.5,74.2,2.4,105.7-26.1,62.9-88.7,76.1-120.7c11.9-28.8,17.9-43.8,40.8-43.8h46.3c22.9,0,28.9,15,40.8,43.8,13.2,32,44.6,92.3,76.1,120.7s105.7,26.1,105.7,26.1,84.2,0,130.4-31.5,56.9-132.2,66.1-173.8c6.2-27.7,15.8-39.3,21.5-44a12.9,12.9,0,0,0,4.6-9.9v-26.2A12.8,12.8,0,0,0,1888.8,1021.5Zm-594.3,236.3c-31.5,39.2-100.7,41.6-179.9,26.9s-83.8-109.9-92.3-173.7,83.1-77.7,157.6-75.4c0,0,129.2,10.8,149.2,59.5S1326,1218.6,1294.5,1257.8ZM1837.6,1111c-8.5,63.8-13.1,159.1-92.3,173.7s-148.4,12.3-179.9-26.9-54.6-113.9-34.6-162.7,149.1-59.5,149.1-59.5C1754.5,1033.3,1846,1047.1,1837.6,1111Z" fill="#595959" opacity="0.4" style="mix-blend-mode: multiply;isolation: isolate"/>
        <g id="Group_17" data-name="Group 17" clip-path="url(#clip-path)">
          <path id="Path_225" data-name="Path 225" d="M1368.2,1158.8c-6.9-5,3.4-29.7,5.6-35.7,5.3-14.2,10-24.3,24.5-28.7,22.1-6.6,44.1-9.9,64.9-.2s26.7,29,30.3,49c2,11.4,5.9,24.3,3.8,35.9s-11.6,17.5-21.9,20.7c-12.7,3.9-25.9,5.3-39.2,5.6-5.4.2-13.9-1.4-18.6,1.6l1.2,1.8" fill="#595959" opacity="0.4" style="mix-blend-mode: multiply;isolation: isolate"/>
        </g>
      </g>
      <g id="H">
        <g id="Group_18" data-name="Group 18" clip-path="url(#clip-path)">
          <path id="Path_226" data-name="Path 226" d="M1704.2,857.5c51.8,1.2,98.5,13.1,143.9,38.1,23.4,12.9,102.6,80,107.1,109.9,6.8,46.1-117.3-2.6-142.2-3.9-57.2-3.2-129.8-15.5-187.2-4.5-35.8,6.9-53.5,21.3-86.6,35.6-29.2,12.6-57.4,31.4-89.5,32.8-55.6,2.3-89.8-8.2-135-29-23.1-10.6-43.7-24.2-67.9-32.4-26.5-8.9-59.4-13.6-87.1-14.6-38-1.4-74.9,6.8-112.6,13-24.5,4-48.8,11.3-73.3,13.8-6.6.7-29.6,4.9-32.6,1.2L936.7,986" fill="#fff" opacity="0.7" style="mix-blend-mode: overlay;isolation: isolate"/>
          <path id="Path_227" data-name="Path 227" d="M1911.2,1045.5c-13.3-17.7-33.5,7.3-39,18.6-12.3,25.2-14.2,51.9-22,78.3-6.7,22.9-15.6,46.9-18.1,70.7-.9,8.3-4.6,26.3-1,33.4s14.9,7.5,22.4,6.9c22.3-1.7,31-14.1,40.7-32.9" fill="#fff" opacity="0.7" style="mix-blend-mode: overlay;isolation: isolate"/>
          <path id="Path_228" data-name="Path 228" d="M1617.5,908.4l126,475.5,143.6-7,22.5-463.4Z" opacity="0.35" fill="url(#linear-gradient-4)"/>
        </g>
        <path id="Path_229" data-name="Path 229" d="M1212.8,1020.3c125.2,16.9,123.8,80.4,123.8,80.4h0c-9.9,181.1-109.9,167.5-109.9,167.5,8.2-178.4-119.3-247.8-119.3-247.8S1162.8,1013.5,1212.8,1020.3Z" opacity="0.3" fill="url(#linear-gradient-5)" style="mix-blend-mode: overlay;isolation: isolate"/>
        <path id="Path_230" data-name="Path 230" d="M1715.4,1018.2c117.9,3,122.7,55.9,122.7,55.9v26.6c-9.9,181.1-109.8,167.5-109.8,167.5,8.1-178.4-112.3-239.8-112.3-239.8S1664.9,1017,1715.4,1018.2Z" opacity="0.3" fill="url(#linear-gradient-6)" style="mix-blend-mode: overlay;isolation: isolate"/>
        <path id="Path_231" data-name="Path 231" d="M1071.3,1057s-31.8,14.3-35.6,30c-1.7,6.9,7.2,132.1,50.1,156,0,0-37.1-42.5-29-138.1C1058.6,1083.6,1060.7,1073.3,1071.3,1057Z" opacity="0.5" fill="url(#linear-gradient-7)" style="mix-blend-mode: overlay;isolation: isolate"/>
        <path id="Path_232" data-name="Path 232" d="M1581.2,1071.6s-23.9,3.1-36,23.8c-10.8,18.6,2.8,126.8,50.6,153.4,0,0-37.2-33.8-29.1-129.3C1568.5,1098.2,1570.6,1087.8,1581.2,1071.6Z" opacity="0.5" fill="url(#linear-gradient-8)" style="mix-blend-mode: overlay;isolation: isolate"/>
      </g>
      <g id="Outline">
        <path id="Path_233" data-name="Path 233" d="M1179.9,1016.6c-74.5-2.3-166.1,11.5-157.6,75.4s13.1,159.1,92.3,173.7,148.4,12.3,179.9-26.9,54.6-113.9,34.6-162.7S1179.9,1016.6,1179.9,1016.6Z" fill="none" stroke="#31323d" stroke-linecap="round" stroke-miterlimit="10" stroke-width="8"/>
        <path id="Path_234" data-name="Path 234" d="M1453.1,1109.7c22.9,0,28.9,15,40.8,43.8,13.2,32,44.6,92.3,76.1,120.7s105.7,26.1,105.7,26.1,84.2,0,130.4-31.5,56.9-132.2,66.1-173.8c6.2-27.7,15.8-39.3,21.5-44a12.9,12.9,0,0,0,4.6-9.9v-26.2a12.8,12.8,0,0,0-9.5-12.4c-25.7-6.9-97.9-24.9-155-27.4-141.5-3.1-193.8,44.6-215.3,58.4-7.8,5-18.5,8.8-29,11.7a205.6,205.6,0,0,1-53.5,6.9h-12.1a206.391,206.391,0,0,1-53.6-6.9c-10.4-2.9-21.1-6.7-28.9-11.7-21.5-13.8-73.8-61.5-215.3-58.4-57.1,2.5-129.3,20.5-155,27.4a12.8,12.8,0,0,0-9.5,12.4v26.2a12.9,12.9,0,0,0,4.6,9.9c5.7,4.7,15.3,16.3,21.5,44,9.2,41.6,20,142.3,66.1,173.8s130.4,31.5,130.4,31.5,74.2,2.4,105.7-26.1,62.9-88.7,76.1-120.7c11.9-28.8,17.9-43.8,40.8-43.8Z" fill="none" stroke="#31323d" stroke-linecap="round" stroke-miterlimit="10" stroke-width="10"/>
        <path id="Path_235" data-name="Path 235" d="M1679.9,1016.6c74.6-2.3,166.1,11.5,157.7,75.4s-13.1,159.1-92.3,173.7-148.4,12.3-179.9-26.9-54.6-113.9-34.6-162.7S1679.9,1016.6,1679.9,1016.6Z" fill="none" stroke="#31323d" stroke-linecap="round" stroke-miterlimit="10" stroke-width="8"/>
      </g>
    </g>
  </g>
</svg>
